<svg width="1920" height="1080" viewBox="0 0 1920 1080" fill="none" xmlns="http://www.w3.org/2000/svg">
<g clip-path="url(#clip0_1_14639)">
<path d="M1920 0H0.000278473V1080H1920V0Z" fill="black"/>
<path fill-rule="evenodd" clip-rule="evenodd" d="M1826.78 1094.73L1901.76 1002.19L1911.2 1009.83L1836.27 1102.41L1826.78 1094.73Z" fill="white"/>
<path fill-rule="evenodd" clip-rule="evenodd" d="M1759.25 1098.36L1837.14 1002.23L1846.94 1010.16L1769.11 1106.34L1759.25 1098.36Z" fill="white"/>
<path fill-rule="evenodd" clip-rule="evenodd" d="M1694.97 1098.36L1772.85 1002.23L1782.66 1010.16L1704.82 1106.34L1694.97 1098.36Z" fill="white"/>
<path fill-rule="evenodd" clip-rule="evenodd" d="M1630.68 1098.36L1708.57 1002.23L1718.37 1010.16L1640.54 1106.34L1630.68 1098.36Z" fill="white"/>
<path fill-rule="evenodd" clip-rule="evenodd" d="M1566.4 1098.36L1644.28 1002.23L1654.09 1010.16L1576.25 1106.34L1566.4 1098.36Z" fill="white"/>
<path fill-rule="evenodd" clip-rule="evenodd" d="M1502.11 1098.36L1580 1002.23L1589.8 1010.16L1511.96 1106.34L1502.11 1098.36Z" fill="white"/>
<path fill-rule="evenodd" clip-rule="evenodd" d="M1437.82 1098.36L1515.71 1002.23L1525.51 1010.16L1447.68 1106.34L1437.82 1098.36Z" fill="white"/>
<path fill-rule="evenodd" clip-rule="evenodd" d="M1373.54 1098.36L1451.42 1002.23L1461.23 1010.16L1383.39 1106.34L1373.54 1098.36Z" fill="white"/>
<path fill-rule="evenodd" clip-rule="evenodd" d="M1309.25 1098.36L1387.14 1002.23L1396.94 1010.16L1319.11 1106.34L1309.25 1098.36Z" fill="white"/>
<path fill-rule="evenodd" clip-rule="evenodd" d="M1244.97 1098.36L1322.85 1002.23L1332.66 1010.16L1254.82 1106.34L1244.97 1098.36Z" fill="white"/>
<path fill-rule="evenodd" clip-rule="evenodd" d="M1180.68 1098.36L1258.57 1002.23L1268.37 1010.16L1190.54 1106.34L1180.68 1098.36Z" fill="white"/>
<path fill-rule="evenodd" clip-rule="evenodd" d="M1116.4 1098.36L1194.28 1002.23L1204.09 1010.16L1126.25 1106.34L1116.4 1098.36Z" fill="white"/>
<path fill-rule="evenodd" clip-rule="evenodd" d="M1052.11 1098.36L1130 1002.23L1139.8 1010.16L1061.97 1106.34L1052.11 1098.36Z" fill="white"/>
<path fill-rule="evenodd" clip-rule="evenodd" d="M987.824 1098.36L1065.71 1002.23L1075.51 1010.16L997.679 1106.34L987.824 1098.36Z" fill="white"/>
<path fill-rule="evenodd" clip-rule="evenodd" d="M923.538 1098.36L1001.42 1002.23L1011.23 1010.16L933.393 1106.34L923.538 1098.36Z" fill="white"/>
<path fill-rule="evenodd" clip-rule="evenodd" d="M859.253 1098.36L937.139 1002.23L946.943 1010.16L869.108 1106.34L859.253 1098.36Z" fill="white"/>
<path fill-rule="evenodd" clip-rule="evenodd" d="M794.967 1098.36L872.853 1002.23L882.657 1010.16L804.822 1106.34L794.967 1098.36Z" fill="white"/>
<path fill-rule="evenodd" clip-rule="evenodd" d="M730.681 1098.36L808.567 1002.23L818.371 1010.16L740.536 1106.34L730.681 1098.36Z" fill="white"/>
<path fill-rule="evenodd" clip-rule="evenodd" d="M666.395 1098.36L744.282 1002.23L754.085 1010.16L676.25 1106.34L666.395 1098.36Z" fill="white"/>
<path fill-rule="evenodd" clip-rule="evenodd" d="M602.11 1098.36L679.996 1002.23L689.8 1010.16L611.965 1106.34L602.11 1098.36Z" fill="white"/>
<path fill-rule="evenodd" clip-rule="evenodd" d="M537.824 1098.36L615.71 1002.23L625.514 1010.16L547.679 1106.34L537.824 1098.36Z" fill="white"/>
<path fill-rule="evenodd" clip-rule="evenodd" d="M473.54 1098.36L551.427 1002.23L561.23 1010.16L483.395 1106.34L473.54 1098.36Z" fill="white"/>
<path fill-rule="evenodd" clip-rule="evenodd" d="M409.255 1098.36L487.141 1002.23L496.945 1010.16L419.11 1106.34L409.255 1098.36Z" fill="white"/>
<path fill-rule="evenodd" clip-rule="evenodd" d="M344.969 1098.36L422.855 1002.23L432.659 1010.16L354.824 1106.34L344.969 1098.36Z" fill="white"/>
<path fill-rule="evenodd" clip-rule="evenodd" d="M280.683 1098.36L358.57 1002.23L368.373 1010.16L290.538 1106.34L280.683 1098.36Z" fill="white"/>
<path fill-rule="evenodd" clip-rule="evenodd" d="M216.397 1098.36L294.284 1002.23L304.087 1010.16L226.252 1106.34L216.397 1098.36Z" fill="white"/>
<path fill-rule="evenodd" clip-rule="evenodd" d="M152.11 1098.36L229.997 1002.23L239.801 1010.16L161.966 1106.34L152.11 1098.36Z" fill="white"/>
<path fill-rule="evenodd" clip-rule="evenodd" d="M87.8239 1098.36L165.711 1002.23L175.515 1010.16L97.68 1106.34L87.8239 1098.36Z" fill="white"/>
<path fill-rule="evenodd" clip-rule="evenodd" d="M23.5382 1098.36L101.426 1002.23L111.229 1010.16L33.3943 1106.34L23.5382 1098.36Z" fill="white"/>
<path fill-rule="evenodd" clip-rule="evenodd" d="M-40.7475 1098.36L37.14 1002.23L46.9432 1010.16L-30.8914 1106.34L-40.7475 1098.36Z" fill="white"/>
<path fill-rule="evenodd" clip-rule="evenodd" d="M1830.67 1026.09L1902.15 937.864L1911.15 945.15L1839.71 1033.42L1830.67 1026.09Z" fill="white"/>
<path fill-rule="evenodd" clip-rule="evenodd" d="M1762.07 1030.92L1837.43 937.911L1846.91 945.591L1771.6 1038.65L1762.07 1030.92Z" fill="white"/>
<path fill-rule="evenodd" clip-rule="evenodd" d="M1694.97 1034.07L1772.85 937.941L1782.66 945.879L1704.82 1042.05L1694.97 1034.07Z" fill="white"/>
<path fill-rule="evenodd" clip-rule="evenodd" d="M1630.68 1034.07L1708.57 937.941L1718.37 945.879L1640.54 1042.05L1630.68 1034.07Z" fill="white"/>
<path fill-rule="evenodd" clip-rule="evenodd" d="M1566.4 1034.07L1644.28 937.941L1654.09 945.879L1576.25 1042.05L1566.4 1034.07Z" fill="white"/>
<path fill-rule="evenodd" clip-rule="evenodd" d="M1502.11 1034.07L1580 937.941L1589.8 945.879L1511.96 1042.05L1502.11 1034.07Z" fill="white"/>
<path fill-rule="evenodd" clip-rule="evenodd" d="M1437.82 1034.07L1515.71 937.941L1525.51 945.879L1447.68 1042.05L1437.82 1034.07Z" fill="white"/>
<path fill-rule="evenodd" clip-rule="evenodd" d="M1373.54 1034.07L1451.42 937.941L1461.23 945.879L1383.39 1042.05L1373.54 1034.07Z" fill="white"/>
<path fill-rule="evenodd" clip-rule="evenodd" d="M1309.25 1034.07L1387.14 937.941L1396.94 945.879L1319.11 1042.05L1309.25 1034.07Z" fill="white"/>
<path fill-rule="evenodd" clip-rule="evenodd" d="M1244.97 1034.07L1322.85 937.941L1332.66 945.879L1254.82 1042.05L1244.97 1034.07Z" fill="white"/>
<path fill-rule="evenodd" clip-rule="evenodd" d="M1180.68 1034.07L1258.57 937.941L1268.37 945.879L1190.54 1042.05L1180.68 1034.07Z" fill="white"/>
<path fill-rule="evenodd" clip-rule="evenodd" d="M1116.4 1034.07L1194.28 937.941L1204.09 945.879L1126.25 1042.05L1116.4 1034.07Z" fill="white"/>
<path fill-rule="evenodd" clip-rule="evenodd" d="M1052.11 1034.07L1130 937.941L1139.8 945.879L1061.97 1042.05L1052.11 1034.07Z" fill="white"/>
<path fill-rule="evenodd" clip-rule="evenodd" d="M987.824 1034.07L1065.71 937.941L1075.51 945.879L997.679 1042.05L987.824 1034.07Z" fill="white"/>
<path fill-rule="evenodd" clip-rule="evenodd" d="M923.538 1034.07L1001.42 937.941L1011.23 945.879L933.393 1042.05L923.538 1034.07Z" fill="white"/>
<path fill-rule="evenodd" clip-rule="evenodd" d="M859.253 1034.07L937.139 937.941L946.943 945.879L869.108 1042.05L859.253 1034.07Z" fill="white"/>
<path fill-rule="evenodd" clip-rule="evenodd" d="M794.967 1034.07L872.853 937.941L882.657 945.879L804.822 1042.05L794.967 1034.07Z" fill="white"/>
<path fill-rule="evenodd" clip-rule="evenodd" d="M730.681 1034.07L808.567 937.941L818.371 945.879L740.536 1042.05L730.681 1034.07Z" fill="white"/>
<path fill-rule="evenodd" clip-rule="evenodd" d="M666.395 1034.07L744.282 937.941L754.085 945.879L676.25 1042.05L666.395 1034.07Z" fill="white"/>
<path fill-rule="evenodd" clip-rule="evenodd" d="M602.11 1034.07L679.996 937.941L689.8 945.879L611.965 1042.05L602.11 1034.07Z" fill="white"/>
<path fill-rule="evenodd" clip-rule="evenodd" d="M537.824 1034.07L615.71 937.941L625.514 945.879L547.679 1042.05L537.824 1034.07Z" fill="white"/>
<path fill-rule="evenodd" clip-rule="evenodd" d="M473.54 1034.07L551.427 937.941L561.23 945.879L483.395 1042.05L473.54 1034.07Z" fill="white"/>
<path fill-rule="evenodd" clip-rule="evenodd" d="M409.255 1034.07L487.141 937.941L496.945 945.879L419.11 1042.05L409.255 1034.07Z" fill="white"/>
<path fill-rule="evenodd" clip-rule="evenodd" d="M344.969 1034.07L422.855 937.941L432.659 945.879L354.824 1042.05L344.969 1034.07Z" fill="white"/>
<path fill-rule="evenodd" clip-rule="evenodd" d="M280.683 1034.07L358.57 937.941L368.373 945.879L290.538 1042.05L280.683 1034.07Z" fill="white"/>
<path fill-rule="evenodd" clip-rule="evenodd" d="M216.397 1034.07L294.284 937.941L304.087 945.879L226.252 1042.05L216.397 1034.07Z" fill="white"/>
<path fill-rule="evenodd" clip-rule="evenodd" d="M152.11 1034.07L229.997 937.941L239.801 945.879L161.966 1042.05L152.11 1034.07Z" fill="white"/>
<path fill-rule="evenodd" clip-rule="evenodd" d="M87.8239 1034.07L165.711 937.941L175.515 945.879L97.68 1042.05L87.8239 1034.07Z" fill="white"/>
<path fill-rule="evenodd" clip-rule="evenodd" d="M23.5382 1034.07L101.426 937.941L111.229 945.879L33.3943 1042.05L23.5382 1034.07Z" fill="white"/>
<path fill-rule="evenodd" clip-rule="evenodd" d="M-40.7475 1034.07L37.14 937.941L46.9432 945.879L-30.8914 1042.05L-40.7475 1034.07Z" fill="white"/>
<path fill-rule="evenodd" clip-rule="evenodd" d="M1834.55 957.459L1902.55 873.536L1911.11 880.468L1843.16 964.427L1834.55 957.459Z" fill="white"/>
<path fill-rule="evenodd" clip-rule="evenodd" d="M1765.95 962.29L1837.83 873.583L1846.87 880.909L1775.05 969.655L1765.95 962.29Z" fill="white"/>
<path fill-rule="evenodd" clip-rule="evenodd" d="M1697.35 967.121L1773.1 873.63L1782.63 881.351L1706.93 974.882L1697.35 967.121Z" fill="white"/>
<path fill-rule="evenodd" clip-rule="evenodd" d="M1630.68 969.784L1708.57 873.656L1718.37 881.593L1640.54 977.764L1630.68 969.784Z" fill="white"/>
<path fill-rule="evenodd" clip-rule="evenodd" d="M1566.4 969.784L1644.28 873.656L1654.09 881.593L1576.25 977.764L1566.4 969.784Z" fill="white"/>
<path fill-rule="evenodd" clip-rule="evenodd" d="M1502.11 969.784L1580 873.656L1589.8 881.593L1511.96 977.764L1502.11 969.784Z" fill="white"/>
<path fill-rule="evenodd" clip-rule="evenodd" d="M1437.82 969.784L1515.71 873.656L1525.51 881.593L1447.68 977.764L1437.82 969.784Z" fill="white"/>
<path fill-rule="evenodd" clip-rule="evenodd" d="M1373.54 969.784L1451.42 873.656L1461.23 881.593L1383.39 977.764L1373.54 969.784Z" fill="white"/>
<path fill-rule="evenodd" clip-rule="evenodd" d="M1309.25 969.784L1387.14 873.656L1396.94 881.593L1319.11 977.764L1309.25 969.784Z" fill="white"/>
<path fill-rule="evenodd" clip-rule="evenodd" d="M1244.97 969.784L1322.85 873.656L1332.66 881.593L1254.82 977.764L1244.97 969.784Z" fill="white"/>
<path fill-rule="evenodd" clip-rule="evenodd" d="M1180.68 969.784L1258.57 873.656L1268.37 881.593L1190.54 977.764L1180.68 969.784Z" fill="white"/>
<path fill-rule="evenodd" clip-rule="evenodd" d="M1116.4 969.784L1194.28 873.656L1204.09 881.593L1126.25 977.764L1116.4 969.784Z" fill="white"/>
<path fill-rule="evenodd" clip-rule="evenodd" d="M1052.11 969.784L1130 873.656L1139.8 881.593L1061.97 977.764L1052.11 969.784Z" fill="white"/>
<path fill-rule="evenodd" clip-rule="evenodd" d="M987.824 969.784L1065.71 873.656L1075.51 881.593L997.679 977.764L987.824 969.784Z" fill="white"/>
<path fill-rule="evenodd" clip-rule="evenodd" d="M923.538 969.784L1001.42 873.656L1011.23 881.593L933.393 977.764L923.538 969.784Z" fill="white"/>
<path fill-rule="evenodd" clip-rule="evenodd" d="M859.253 969.784L937.139 873.656L946.943 881.593L869.108 977.764L859.253 969.784Z" fill="white"/>
<path fill-rule="evenodd" clip-rule="evenodd" d="M794.967 969.784L872.853 873.656L882.657 881.593L804.822 977.764L794.967 969.784Z" fill="white"/>
<path fill-rule="evenodd" clip-rule="evenodd" d="M730.681 969.784L808.567 873.656L818.371 881.593L740.536 977.764L730.681 969.784Z" fill="white"/>
<path fill-rule="evenodd" clip-rule="evenodd" d="M666.395 969.784L744.282 873.656L754.085 881.593L676.25 977.764L666.395 969.784Z" fill="white"/>
<path fill-rule="evenodd" clip-rule="evenodd" d="M602.11 969.784L679.996 873.656L689.8 881.593L611.965 977.764L602.11 969.784Z" fill="white"/>
<path fill-rule="evenodd" clip-rule="evenodd" d="M537.824 969.784L615.71 873.656L625.514 881.593L547.679 977.764L537.824 969.784Z" fill="white"/>
<path fill-rule="evenodd" clip-rule="evenodd" d="M473.54 969.784L551.427 873.656L561.23 881.593L483.395 977.764L473.54 969.784Z" fill="white"/>
<path fill-rule="evenodd" clip-rule="evenodd" d="M409.255 969.784L487.141 873.656L496.945 881.593L419.11 977.764L409.255 969.784Z" fill="white"/>
<path fill-rule="evenodd" clip-rule="evenodd" d="M344.969 969.784L422.855 873.656L432.659 881.593L354.824 977.764L344.969 969.784Z" fill="white"/>
<path fill-rule="evenodd" clip-rule="evenodd" d="M280.683 969.784L358.57 873.656L368.373 881.593L290.538 977.764L280.683 969.784Z" fill="white"/>
<path fill-rule="evenodd" clip-rule="evenodd" d="M216.397 969.784L294.284 873.656L304.087 881.593L226.252 977.764L216.397 969.784Z" fill="white"/>
<path fill-rule="evenodd" clip-rule="evenodd" d="M152.11 969.784L229.997 873.656L239.801 881.593L161.966 977.764L152.11 969.784Z" fill="white"/>
<path fill-rule="evenodd" clip-rule="evenodd" d="M87.8239 969.784L165.711 873.656L175.515 881.593L97.68 977.764L87.8239 969.784Z" fill="white"/>
<path fill-rule="evenodd" clip-rule="evenodd" d="M23.5382 969.784L101.426 873.656L111.229 881.593L33.3943 977.764L23.5382 969.784Z" fill="white"/>
<path fill-rule="evenodd" clip-rule="evenodd" d="M-40.7475 969.784L37.14 873.656L46.9432 881.593L-30.8914 977.764L-40.7475 969.784Z" fill="white"/>
<path fill-rule="evenodd" clip-rule="evenodd" d="M1838.44 888.827L1902.95 809.211L1911.07 815.786L1846.6 895.438L1838.44 888.827Z" fill="white"/>
<path fill-rule="evenodd" clip-rule="evenodd" d="M1769.84 893.657L1838.22 809.256L1846.83 816.227L1778.49 900.664L1769.84 893.657Z" fill="white"/>
<path fill-rule="evenodd" clip-rule="evenodd" d="M1701.24 898.487L1773.5 809.303L1782.59 816.668L1710.38 905.893L1701.24 898.487Z" fill="white"/>
<path fill-rule="evenodd" clip-rule="evenodd" d="M1632.63 903.317L1708.77 809.351L1718.35 817.11L1642.27 911.119L1632.63 903.317Z" fill="white"/>
<path fill-rule="evenodd" clip-rule="evenodd" d="M1566.4 905.501L1644.28 809.372L1654.09 817.309L1576.25 913.481L1566.4 905.501Z" fill="white"/>
<path fill-rule="evenodd" clip-rule="evenodd" d="M1502.11 905.501L1580 809.372L1589.8 817.309L1511.96 913.481L1502.11 905.501Z" fill="white"/>
<path fill-rule="evenodd" clip-rule="evenodd" d="M1437.82 905.501L1515.71 809.372L1525.51 817.309L1447.68 913.481L1437.82 905.501Z" fill="white"/>
<path fill-rule="evenodd" clip-rule="evenodd" d="M1373.54 905.501L1451.42 809.372L1461.23 817.309L1383.39 913.481L1373.54 905.501Z" fill="white"/>
<path fill-rule="evenodd" clip-rule="evenodd" d="M1309.25 905.501L1387.14 809.372L1396.94 817.309L1319.11 913.481L1309.25 905.501Z" fill="white"/>
<path fill-rule="evenodd" clip-rule="evenodd" d="M1244.97 905.501L1322.85 809.372L1332.66 817.309L1254.82 913.481L1244.97 905.501Z" fill="white"/>
<path fill-rule="evenodd" clip-rule="evenodd" d="M1180.68 905.501L1258.57 809.372L1268.37 817.309L1190.54 913.481L1180.68 905.501Z" fill="white"/>
<path fill-rule="evenodd" clip-rule="evenodd" d="M1116.4 905.501L1194.28 809.372L1204.09 817.309L1126.25 913.481L1116.4 905.501Z" fill="white"/>
<path fill-rule="evenodd" clip-rule="evenodd" d="M1052.11 905.501L1130 809.372L1139.8 817.309L1061.97 913.481L1052.11 905.501Z" fill="white"/>
<path fill-rule="evenodd" clip-rule="evenodd" d="M987.824 905.501L1065.71 809.372L1075.51 817.309L997.679 913.481L987.824 905.501Z" fill="white"/>
<path fill-rule="evenodd" clip-rule="evenodd" d="M923.538 905.501L1001.42 809.372L1011.23 817.309L933.393 913.481L923.538 905.501Z" fill="white"/>
<path fill-rule="evenodd" clip-rule="evenodd" d="M859.253 905.501L937.139 809.372L946.943 817.309L869.108 913.481L859.253 905.501Z" fill="white"/>
<path fill-rule="evenodd" clip-rule="evenodd" d="M794.967 905.501L872.853 809.372L882.657 817.309L804.822 913.481L794.967 905.501Z" fill="white"/>
<path fill-rule="evenodd" clip-rule="evenodd" d="M730.681 905.501L808.567 809.372L818.371 817.309L740.536 913.481L730.681 905.501Z" fill="white"/>
<path fill-rule="evenodd" clip-rule="evenodd" d="M666.395 905.501L744.282 809.372L754.085 817.309L676.25 913.481L666.395 905.501Z" fill="white"/>
<path fill-rule="evenodd" clip-rule="evenodd" d="M602.11 905.501L679.996 809.372L689.8 817.309L611.965 913.481L602.11 905.501Z" fill="white"/>
<path fill-rule="evenodd" clip-rule="evenodd" d="M537.824 905.501L615.71 809.372L625.514 817.309L547.679 913.481L537.824 905.501Z" fill="white"/>
<path fill-rule="evenodd" clip-rule="evenodd" d="M473.54 905.501L551.427 809.372L561.23 817.309L483.395 913.481L473.54 905.501Z" fill="white"/>
<path fill-rule="evenodd" clip-rule="evenodd" d="M409.255 905.501L487.141 809.372L496.945 817.309L419.11 913.481L409.255 905.501Z" fill="white"/>
<path fill-rule="evenodd" clip-rule="evenodd" d="M344.969 905.501L422.855 809.372L432.659 817.309L354.824 913.481L344.969 905.501Z" fill="white"/>
<path fill-rule="evenodd" clip-rule="evenodd" d="M280.683 905.501L358.57 809.372L368.373 817.309L290.538 913.481L280.683 905.501Z" fill="white"/>
<path fill-rule="evenodd" clip-rule="evenodd" d="M216.397 905.501L294.284 809.372L304.087 817.309L226.252 913.481L216.397 905.501Z" fill="white"/>
<path fill-rule="evenodd" clip-rule="evenodd" d="M152.11 905.501L229.997 809.372L239.801 817.309L161.966 913.481L152.11 905.501Z" fill="white"/>
<path fill-rule="evenodd" clip-rule="evenodd" d="M87.8239 905.501L165.711 809.372L175.515 817.309L97.68 913.481L87.8239 905.501Z" fill="white"/>
<path fill-rule="evenodd" clip-rule="evenodd" d="M23.5382 905.501L101.426 809.372L111.229 817.309L33.3943 913.481L23.5382 905.501Z" fill="white"/>
<path fill-rule="evenodd" clip-rule="evenodd" d="M-40.7475 905.501L37.14 809.372L46.9432 817.309L-30.8914 913.481L-40.7475 905.501Z" fill="white"/>
<path fill-rule="evenodd" clip-rule="evenodd" d="M1842.33 820.191L1903.35 744.883L1911.03 751.104L1850.05 826.444L1842.33 820.191Z" fill="white"/>
<path fill-rule="evenodd" clip-rule="evenodd" d="M1773.73 825.021L1838.62 744.93L1846.79 751.545L1781.94 831.673L1773.73 825.021Z" fill="white"/>
<path fill-rule="evenodd" clip-rule="evenodd" d="M1705.12 829.851L1773.89 744.977L1782.55 751.986L1713.82 836.899L1705.12 829.851Z" fill="white"/>
<path fill-rule="evenodd" clip-rule="evenodd" d="M1636.52 834.684L1709.17 745.022L1718.31 752.428L1645.71 842.128L1636.52 834.684Z" fill="white"/>
<path fill-rule="evenodd" clip-rule="evenodd" d="M1567.92 839.514L1644.44 745.069L1654.07 752.869L1577.6 847.354L1567.92 839.514Z" fill="white"/>
<path fill-rule="evenodd" clip-rule="evenodd" d="M1502.11 841.215L1580 745.086L1589.8 753.023L1511.96 849.195L1502.11 841.215Z" fill="white"/>
<path fill-rule="evenodd" clip-rule="evenodd" d="M1437.82 841.215L1515.71 745.086L1525.51 753.023L1447.68 849.195L1437.82 841.215Z" fill="white"/>
<path fill-rule="evenodd" clip-rule="evenodd" d="M1373.54 841.215L1451.42 745.086L1461.23 753.023L1383.39 849.195L1373.54 841.215Z" fill="white"/>
<path fill-rule="evenodd" clip-rule="evenodd" d="M1309.25 841.215L1387.14 745.086L1396.94 753.023L1319.11 849.195L1309.25 841.215Z" fill="white"/>
<path fill-rule="evenodd" clip-rule="evenodd" d="M1244.97 841.215L1322.85 745.086L1332.66 753.023L1254.82 849.195L1244.97 841.215Z" fill="white"/>
<path fill-rule="evenodd" clip-rule="evenodd" d="M1180.68 841.215L1258.57 745.086L1268.37 753.023L1190.54 849.195L1180.68 841.215Z" fill="white"/>
<path fill-rule="evenodd" clip-rule="evenodd" d="M1116.4 841.215L1194.28 745.086L1204.09 753.023L1126.25 849.195L1116.4 841.215Z" fill="white"/>
<path fill-rule="evenodd" clip-rule="evenodd" d="M1052.11 841.215L1130 745.086L1139.8 753.023L1061.97 849.195L1052.11 841.215Z" fill="white"/>
<path fill-rule="evenodd" clip-rule="evenodd" d="M987.824 841.215L1065.71 745.086L1075.51 753.023L997.679 849.195L987.824 841.215Z" fill="white"/>
<path fill-rule="evenodd" clip-rule="evenodd" d="M923.538 841.215L1001.42 745.086L1011.23 753.023L933.393 849.195L923.538 841.215Z" fill="white"/>
<path fill-rule="evenodd" clip-rule="evenodd" d="M859.253 841.215L937.139 745.086L946.943 753.023L869.108 849.195L859.253 841.215Z" fill="white"/>
<path fill-rule="evenodd" clip-rule="evenodd" d="M794.967 841.215L872.853 745.086L882.657 753.023L804.822 849.195L794.967 841.215Z" fill="white"/>
<path fill-rule="evenodd" clip-rule="evenodd" d="M730.681 841.215L808.567 745.086L818.371 753.023L740.536 849.195L730.681 841.215Z" fill="white"/>
<path fill-rule="evenodd" clip-rule="evenodd" d="M666.395 841.215L744.282 745.086L754.085 753.023L676.25 849.195L666.395 841.215Z" fill="white"/>
<path fill-rule="evenodd" clip-rule="evenodd" d="M602.11 841.215L679.996 745.086L689.8 753.023L611.965 849.195L602.11 841.215Z" fill="white"/>
<path fill-rule="evenodd" clip-rule="evenodd" d="M537.824 841.215L615.71 745.086L625.514 753.023L547.679 849.195L537.824 841.215Z" fill="white"/>
<path fill-rule="evenodd" clip-rule="evenodd" d="M473.54 841.215L551.427 745.086L561.23 753.023L483.395 849.195L473.54 841.215Z" fill="white"/>
<path fill-rule="evenodd" clip-rule="evenodd" d="M409.255 841.215L487.141 745.086L496.945 753.023L419.11 849.195L409.255 841.215Z" fill="white"/>
<path fill-rule="evenodd" clip-rule="evenodd" d="M344.969 841.215L422.855 745.086L432.659 753.023L354.824 849.195L344.969 841.215Z" fill="white"/>
<path fill-rule="evenodd" clip-rule="evenodd" d="M280.683 841.215L358.57 745.086L368.373 753.023L290.538 849.195L280.683 841.215Z" fill="white"/>
<path fill-rule="evenodd" clip-rule="evenodd" d="M216.397 841.215L294.284 745.086L304.087 753.023L226.252 849.195L216.397 841.215Z" fill="white"/>
<path fill-rule="evenodd" clip-rule="evenodd" d="M152.11 841.215L229.997 745.086L239.801 753.023L161.966 849.195L152.11 841.215Z" fill="white"/>
<path fill-rule="evenodd" clip-rule="evenodd" d="M87.8239 841.215L165.711 745.086L175.515 753.023L97.68 849.195L87.8239 841.215Z" fill="white"/>
<path fill-rule="evenodd" clip-rule="evenodd" d="M23.5382 841.215L101.426 745.086L111.229 753.023L33.3943 849.195L23.5382 841.215Z" fill="white"/>
<path fill-rule="evenodd" clip-rule="evenodd" d="M-40.7475 841.215L37.14 745.086L46.9432 753.023L-30.8914 849.195L-40.7475 841.215Z" fill="white"/>
<path fill-rule="evenodd" clip-rule="evenodd" d="M1846.22 751.558L1903.75 680.556L1910.99 686.419L1853.5 757.453L1846.22 751.558Z" fill="white"/>
<path fill-rule="evenodd" clip-rule="evenodd" d="M1777.61 756.388L1839.02 680.604L1846.75 686.861L1785.38 762.679L1777.61 756.388Z" fill="white"/>
<path fill-rule="evenodd" clip-rule="evenodd" d="M1709.01 761.218L1774.29 680.648L1782.51 687.302L1717.27 767.908L1709.01 761.218Z" fill="white"/>
<path fill-rule="evenodd" clip-rule="evenodd" d="M1640.41 766.048L1709.56 680.696L1718.27 687.743L1649.16 773.134L1640.41 766.048Z" fill="white"/>
<path fill-rule="evenodd" clip-rule="evenodd" d="M1571.81 770.878L1644.84 680.741L1654.03 688.185L1581.05 778.361L1571.81 770.878Z" fill="white"/>
<path fill-rule="evenodd" clip-rule="evenodd" d="M1503.2 775.708L1580.11 680.788L1589.79 688.626L1512.94 783.589L1503.2 775.708Z" fill="white"/>
<path fill-rule="evenodd" clip-rule="evenodd" d="M1437.82 776.929L1515.71 680.801L1525.51 688.738L1447.68 784.909L1437.82 776.929Z" fill="white"/>
<path fill-rule="evenodd" clip-rule="evenodd" d="M1373.54 776.929L1451.42 680.801L1461.23 688.738L1383.39 784.909L1373.54 776.929Z" fill="white"/>
<path fill-rule="evenodd" clip-rule="evenodd" d="M1309.25 776.929L1387.14 680.801L1396.94 688.738L1319.11 784.909L1309.25 776.929Z" fill="white"/>
<path fill-rule="evenodd" clip-rule="evenodd" d="M1244.97 776.929L1322.85 680.801L1332.66 688.738L1254.82 784.909L1244.97 776.929Z" fill="white"/>
<path fill-rule="evenodd" clip-rule="evenodd" d="M1180.68 776.929L1258.57 680.801L1268.37 688.738L1190.54 784.909L1180.68 776.929Z" fill="white"/>
<path fill-rule="evenodd" clip-rule="evenodd" d="M1116.4 776.929L1194.28 680.801L1204.09 688.738L1126.25 784.909L1116.4 776.929Z" fill="white"/>
<path fill-rule="evenodd" clip-rule="evenodd" d="M1052.11 776.929L1130 680.801L1139.8 688.738L1061.97 784.909L1052.11 776.929Z" fill="white"/>
<path fill-rule="evenodd" clip-rule="evenodd" d="M987.824 776.929L1065.71 680.801L1075.51 688.738L997.679 784.909L987.824 776.929Z" fill="white"/>
<path fill-rule="evenodd" clip-rule="evenodd" d="M923.538 776.929L1001.42 680.801L1011.23 688.738L933.393 784.909L923.538 776.929Z" fill="white"/>
<path fill-rule="evenodd" clip-rule="evenodd" d="M859.253 776.929L937.139 680.801L946.943 688.738L869.108 784.909L859.253 776.929Z" fill="white"/>
<path fill-rule="evenodd" clip-rule="evenodd" d="M794.967 776.929L872.853 680.801L882.657 688.738L804.822 784.909L794.967 776.929Z" fill="white"/>
<path fill-rule="evenodd" clip-rule="evenodd" d="M730.681 776.929L808.567 680.801L818.371 688.738L740.536 784.909L730.681 776.929Z" fill="white"/>
<path fill-rule="evenodd" clip-rule="evenodd" d="M666.395 776.929L744.282 680.801L754.085 688.738L676.25 784.909L666.395 776.929Z" fill="white"/>
<path fill-rule="evenodd" clip-rule="evenodd" d="M602.11 776.929L679.996 680.801L689.8 688.738L611.965 784.909L602.11 776.929Z" fill="white"/>
<path fill-rule="evenodd" clip-rule="evenodd" d="M537.824 776.929L615.71 680.801L625.514 688.738L547.679 784.909L537.824 776.929Z" fill="white"/>
<path fill-rule="evenodd" clip-rule="evenodd" d="M473.54 776.929L551.427 680.801L561.23 688.738L483.395 784.909L473.54 776.929Z" fill="white"/>
<path fill-rule="evenodd" clip-rule="evenodd" d="M409.255 776.929L487.141 680.801L496.945 688.738L419.11 784.909L409.255 776.929Z" fill="white"/>
<path fill-rule="evenodd" clip-rule="evenodd" d="M344.969 776.929L422.855 680.801L432.659 688.738L354.824 784.909L344.969 776.929Z" fill="white"/>
<path fill-rule="evenodd" clip-rule="evenodd" d="M280.683 776.929L358.57 680.801L368.373 688.738L290.538 784.909L280.683 776.929Z" fill="white"/>
<path fill-rule="evenodd" clip-rule="evenodd" d="M216.397 776.929L294.284 680.801L304.087 688.738L226.252 784.909L216.397 776.929Z" fill="white"/>
<path fill-rule="evenodd" clip-rule="evenodd" d="M152.11 776.929L229.997 680.801L239.801 688.738L161.966 784.909L152.11 776.929Z" fill="white"/>
<path fill-rule="evenodd" clip-rule="evenodd" d="M87.8239 776.929L165.711 680.801L175.515 688.738L97.68 784.909L87.8239 776.929Z" fill="white"/>
<path fill-rule="evenodd" clip-rule="evenodd" d="M23.5382 776.929L101.426 680.801L111.229 688.738L33.3943 784.909L23.5382 776.929Z" fill="white"/>
<path fill-rule="evenodd" clip-rule="evenodd" d="M-40.7475 776.929L37.14 680.801L46.9432 688.738L-30.8914 784.909L-40.7475 776.929Z" fill="white"/>
<path fill-rule="evenodd" clip-rule="evenodd" d="M1850.1 682.922L1904.14 616.228L1910.94 621.737L1856.94 688.459L1850.1 682.922Z" fill="white"/>
<path fill-rule="evenodd" clip-rule="evenodd" d="M1781.5 687.752L1839.42 616.275L1846.7 622.178L1788.83 693.688L1781.5 687.752Z" fill="white"/>
<path fill-rule="evenodd" clip-rule="evenodd" d="M1712.9 692.582L1774.69 616.322L1782.46 622.62L1720.72 698.914L1712.9 692.582Z" fill="white"/>
<path fill-rule="evenodd" clip-rule="evenodd" d="M1644.3 697.412L1709.96 616.367L1718.23 623.061L1652.6 704.143L1644.3 697.412Z" fill="white"/>
<path fill-rule="evenodd" clip-rule="evenodd" d="M1575.69 702.242L1645.24 616.414L1653.99 623.503L1584.49 709.369L1575.69 702.242Z" fill="white"/>
<path fill-rule="evenodd" clip-rule="evenodd" d="M1507.09 707.074L1580.51 616.461L1589.75 623.944L1516.38 714.595L1507.09 707.074Z" fill="white"/>
<path fill-rule="evenodd" clip-rule="evenodd" d="M1438.49 711.904L1515.78 616.506L1525.51 624.385L1448.27 719.824L1438.49 711.904Z" fill="white"/>
<path fill-rule="evenodd" clip-rule="evenodd" d="M1373.54 712.643L1451.42 616.515L1461.23 624.452L1383.39 720.623L1373.54 712.643Z" fill="white"/>
<path fill-rule="evenodd" clip-rule="evenodd" d="M1309.25 712.643L1387.14 616.515L1396.94 624.452L1319.11 720.623L1309.25 712.643Z" fill="white"/>
<path fill-rule="evenodd" clip-rule="evenodd" d="M1244.97 712.643L1322.85 616.515L1332.66 624.452L1254.82 720.623L1244.97 712.643Z" fill="white"/>
<path fill-rule="evenodd" clip-rule="evenodd" d="M1180.68 712.643L1258.57 616.515L1268.37 624.452L1190.54 720.623L1180.68 712.643Z" fill="white"/>
<path fill-rule="evenodd" clip-rule="evenodd" d="M1116.4 712.643L1194.28 616.515L1204.09 624.452L1126.25 720.623L1116.4 712.643Z" fill="white"/>
<path fill-rule="evenodd" clip-rule="evenodd" d="M1052.11 712.643L1130 616.515L1139.8 624.452L1061.97 720.623L1052.11 712.643Z" fill="white"/>
<path fill-rule="evenodd" clip-rule="evenodd" d="M987.824 712.643L1065.71 616.515L1075.51 624.452L997.679 720.623L987.824 712.643Z" fill="white"/>
<path fill-rule="evenodd" clip-rule="evenodd" d="M923.538 712.643L1001.42 616.515L1011.23 624.452L933.393 720.623L923.538 712.643Z" fill="white"/>
<path fill-rule="evenodd" clip-rule="evenodd" d="M859.253 712.643L937.139 616.515L946.943 624.452L869.108 720.623L859.253 712.643Z" fill="white"/>
<path fill-rule="evenodd" clip-rule="evenodd" d="M794.967 712.643L872.853 616.515L882.657 624.452L804.822 720.623L794.967 712.643Z" fill="white"/>
<path fill-rule="evenodd" clip-rule="evenodd" d="M730.681 712.643L808.567 616.515L818.371 624.452L740.536 720.623L730.681 712.643Z" fill="white"/>
<path fill-rule="evenodd" clip-rule="evenodd" d="M666.395 712.643L744.282 616.515L754.085 624.452L676.25 720.623L666.395 712.643Z" fill="white"/>
<path fill-rule="evenodd" clip-rule="evenodd" d="M602.11 712.643L679.996 616.515L689.8 624.452L611.965 720.623L602.11 712.643Z" fill="white"/>
<path fill-rule="evenodd" clip-rule="evenodd" d="M537.824 712.643L615.71 616.515L625.514 624.452L547.679 720.623L537.824 712.643Z" fill="white"/>
<path fill-rule="evenodd" clip-rule="evenodd" d="M473.54 712.643L551.427 616.515L561.23 624.452L483.395 720.623L473.54 712.643Z" fill="white"/>
<path fill-rule="evenodd" clip-rule="evenodd" d="M409.255 712.643L487.141 616.515L496.945 624.452L419.11 720.623L409.255 712.643Z" fill="white"/>
<path fill-rule="evenodd" clip-rule="evenodd" d="M344.969 712.643L422.855 616.515L432.659 624.452L354.824 720.623L344.969 712.643Z" fill="white"/>
<path fill-rule="evenodd" clip-rule="evenodd" d="M280.683 712.643L358.57 616.515L368.373 624.452L290.538 720.623L280.683 712.643Z" fill="white"/>
<path fill-rule="evenodd" clip-rule="evenodd" d="M216.397 712.643L294.284 616.515L304.087 624.452L226.252 720.623L216.397 712.643Z" fill="white"/>
<path fill-rule="evenodd" clip-rule="evenodd" d="M152.11 712.643L229.997 616.515L239.801 624.452L161.966 720.623L152.11 712.643Z" fill="white"/>
<path fill-rule="evenodd" clip-rule="evenodd" d="M87.8239 712.643L165.711 616.515L175.515 624.452L97.68 720.623L87.8239 712.643Z" fill="white"/>
<path fill-rule="evenodd" clip-rule="evenodd" d="M23.5382 712.643L101.426 616.515L111.229 624.452L33.3943 720.623L23.5382 712.643Z" fill="white"/>
<path fill-rule="evenodd" clip-rule="evenodd" d="M-40.7475 712.643L37.14 616.515L46.9432 624.452L-30.8914 720.623L-40.7475 712.643Z" fill="white"/>
<path fill-rule="evenodd" clip-rule="evenodd" d="M1853.99 614.286L1904.54 551.899L1910.9 557.051L1860.39 619.466L1853.99 614.286Z" fill="white"/>
<path fill-rule="evenodd" clip-rule="evenodd" d="M1785.39 619.116L1839.81 551.946L1846.66 557.492L1792.27 624.692L1785.39 619.116Z" fill="white"/>
<path fill-rule="evenodd" clip-rule="evenodd" d="M1716.79 623.946L1775.09 551.991L1782.42 557.933L1724.16 629.921L1716.79 623.946Z" fill="white"/>
<path fill-rule="evenodd" clip-rule="evenodd" d="M1648.18 628.776L1710.36 552.038L1718.18 558.375L1656.05 635.147L1648.18 628.776Z" fill="white"/>
<path fill-rule="evenodd" clip-rule="evenodd" d="M1579.58 633.606L1645.63 552.083L1653.95 558.816L1587.94 640.376L1579.58 633.606Z" fill="white"/>
<path fill-rule="evenodd" clip-rule="evenodd" d="M1510.98 638.436L1580.91 552.13L1589.71 559.257L1519.83 645.602L1510.98 638.436Z" fill="white"/>
<path fill-rule="evenodd" clip-rule="evenodd" d="M1442.37 643.266L1516.18 552.178L1525.47 559.699L1451.71 650.828L1442.37 643.266Z" fill="white"/>
<path fill-rule="evenodd" clip-rule="evenodd" d="M1373.77 648.096L1451.45 552.223L1461.23 560.141L1383.6 656.057L1373.77 648.096Z" fill="white"/>
<path fill-rule="evenodd" clip-rule="evenodd" d="M1309.25 648.356L1387.14 552.227L1396.94 560.164L1319.11 656.336L1309.25 648.356Z" fill="white"/>
<path fill-rule="evenodd" clip-rule="evenodd" d="M1244.97 648.356L1322.85 552.227L1332.66 560.164L1254.82 656.336L1244.97 648.356Z" fill="white"/>
<path fill-rule="evenodd" clip-rule="evenodd" d="M1180.68 648.356L1258.57 552.227L1268.37 560.164L1190.54 656.336L1180.68 648.356Z" fill="white"/>
<path fill-rule="evenodd" clip-rule="evenodd" d="M1116.4 648.356L1194.28 552.227L1204.09 560.164L1126.25 656.336L1116.4 648.356Z" fill="white"/>
<path fill-rule="evenodd" clip-rule="evenodd" d="M1052.11 648.356L1130 552.227L1139.8 560.164L1061.97 656.336L1052.11 648.356Z" fill="white"/>
<path fill-rule="evenodd" clip-rule="evenodd" d="M987.824 648.356L1065.71 552.227L1075.51 560.164L997.679 656.336L987.824 648.356Z" fill="white"/>
<path fill-rule="evenodd" clip-rule="evenodd" d="M923.538 648.356L1001.42 552.227L1011.23 560.164L933.393 656.336L923.538 648.356Z" fill="white"/>
<path fill-rule="evenodd" clip-rule="evenodd" d="M859.253 648.356L937.139 552.227L946.943 560.164L869.108 656.336L859.253 648.356Z" fill="white"/>
<path fill-rule="evenodd" clip-rule="evenodd" d="M794.967 648.356L872.853 552.227L882.657 560.164L804.822 656.336L794.967 648.356Z" fill="white"/>
<path fill-rule="evenodd" clip-rule="evenodd" d="M730.681 648.356L808.567 552.227L818.371 560.164L740.536 656.336L730.681 648.356Z" fill="white"/>
<path fill-rule="evenodd" clip-rule="evenodd" d="M666.395 648.356L744.282 552.227L754.085 560.164L676.25 656.336L666.395 648.356Z" fill="white"/>
<path fill-rule="evenodd" clip-rule="evenodd" d="M602.11 648.356L679.996 552.227L689.8 560.164L611.965 656.336L602.11 648.356Z" fill="white"/>
<path fill-rule="evenodd" clip-rule="evenodd" d="M537.824 648.356L615.71 552.227L625.514 560.164L547.679 656.336L537.824 648.356Z" fill="white"/>
<path fill-rule="evenodd" clip-rule="evenodd" d="M473.54 648.356L551.427 552.227L561.23 560.164L483.395 656.336L473.54 648.356Z" fill="white"/>
<path fill-rule="evenodd" clip-rule="evenodd" d="M409.255 648.356L487.141 552.227L496.945 560.164L419.11 656.336L409.255 648.356Z" fill="white"/>
<path fill-rule="evenodd" clip-rule="evenodd" d="M344.969 648.356L422.855 552.227L432.659 560.164L354.824 656.336L344.969 648.356Z" fill="white"/>
<path fill-rule="evenodd" clip-rule="evenodd" d="M280.683 648.356L358.57 552.227L368.373 560.164L290.538 656.336L280.683 648.356Z" fill="white"/>
<path fill-rule="evenodd" clip-rule="evenodd" d="M216.397 648.356L294.284 552.227L304.087 560.164L226.252 656.336L216.397 648.356Z" fill="white"/>
<path fill-rule="evenodd" clip-rule="evenodd" d="M152.11 648.356L229.997 552.227L239.801 560.164L161.966 656.336L152.11 648.356Z" fill="white"/>
<path fill-rule="evenodd" clip-rule="evenodd" d="M87.8239 648.356L165.711 552.227L175.515 560.164L97.68 656.336L87.8239 648.356Z" fill="white"/>
<path fill-rule="evenodd" clip-rule="evenodd" d="M23.5382 648.356L101.426 552.227L111.229 560.164L33.3943 656.336L23.5382 648.356Z" fill="white"/>
<path fill-rule="evenodd" clip-rule="evenodd" d="M-40.7475 648.356L37.14 552.227L46.9432 560.164L-30.8914 656.336L-40.7475 648.356Z" fill="white"/>
<path fill-rule="evenodd" clip-rule="evenodd" d="M1857.88 545.651L1904.94 487.571L1910.86 492.368L1863.83 550.472L1857.88 545.651Z" fill="white"/>
<path fill-rule="evenodd" clip-rule="evenodd" d="M1789.28 550.481L1840.21 487.618L1846.62 492.81L1795.72 555.701L1789.28 550.481Z" fill="white"/>
<path fill-rule="evenodd" clip-rule="evenodd" d="M1720.67 555.31L1775.48 487.665L1782.38 493.251L1727.61 560.927L1720.67 555.31Z" fill="white"/>
<path fill-rule="evenodd" clip-rule="evenodd" d="M1652.07 560.14L1710.76 487.71L1718.14 493.693L1659.5 566.155L1652.07 560.14Z" fill="white"/>
<path fill-rule="evenodd" clip-rule="evenodd" d="M1583.47 564.971L1646.03 487.757L1653.9 494.134L1591.39 571.382L1583.47 564.971Z" fill="white"/>
<path fill-rule="evenodd" clip-rule="evenodd" d="M1514.86 569.801L1581.3 487.804L1589.66 494.576L1523.27 576.611L1514.86 569.801Z" fill="white"/>
<path fill-rule="evenodd" clip-rule="evenodd" d="M1446.26 574.631L1516.58 487.849L1525.43 495.017L1455.16 581.837L1446.26 574.631Z" fill="white"/>
<path fill-rule="evenodd" clip-rule="evenodd" d="M1377.66 579.463L1451.85 487.896L1461.19 495.458L1387.05 587.063L1377.66 579.463Z" fill="white"/>
<path fill-rule="evenodd" clip-rule="evenodd" d="M1309.25 584.07L1387.14 487.941L1396.94 495.879L1319.11 592.05L1309.25 584.07Z" fill="white"/>
<path fill-rule="evenodd" clip-rule="evenodd" d="M1244.97 584.07L1322.85 487.941L1332.66 495.879L1254.82 592.05L1244.97 584.07Z" fill="white"/>
<path fill-rule="evenodd" clip-rule="evenodd" d="M1180.68 584.07L1258.57 487.941L1268.37 495.879L1190.54 592.05L1180.68 584.07Z" fill="white"/>
<path fill-rule="evenodd" clip-rule="evenodd" d="M1116.4 584.07L1194.28 487.941L1204.09 495.879L1126.25 592.05L1116.4 584.07Z" fill="white"/>
<path fill-rule="evenodd" clip-rule="evenodd" d="M1052.11 584.07L1130 487.941L1139.8 495.879L1061.97 592.05L1052.11 584.07Z" fill="white"/>
<path fill-rule="evenodd" clip-rule="evenodd" d="M987.824 584.07L1065.71 487.941L1075.51 495.879L997.679 592.05L987.824 584.07Z" fill="white"/>
<path fill-rule="evenodd" clip-rule="evenodd" d="M923.538 584.07L1001.42 487.941L1011.23 495.879L933.393 592.05L923.538 584.07Z" fill="white"/>
<path fill-rule="evenodd" clip-rule="evenodd" d="M859.253 584.07L937.139 487.941L946.943 495.879L869.108 592.05L859.253 584.07Z" fill="white"/>
<path fill-rule="evenodd" clip-rule="evenodd" d="M794.967 584.07L872.853 487.941L882.657 495.879L804.822 592.05L794.967 584.07Z" fill="white"/>
<path fill-rule="evenodd" clip-rule="evenodd" d="M730.681 584.07L808.567 487.941L818.371 495.879L740.536 592.05L730.681 584.07Z" fill="white"/>
<path fill-rule="evenodd" clip-rule="evenodd" d="M666.395 584.07L744.282 487.941L754.085 495.879L676.25 592.05L666.395 584.07Z" fill="white"/>
<path fill-rule="evenodd" clip-rule="evenodd" d="M602.11 584.07L679.996 487.941L689.8 495.879L611.965 592.05L602.11 584.07Z" fill="white"/>
<path fill-rule="evenodd" clip-rule="evenodd" d="M537.824 584.07L615.71 487.941L625.514 495.879L547.679 592.05L537.824 584.07Z" fill="white"/>
<path fill-rule="evenodd" clip-rule="evenodd" d="M473.54 584.07L551.427 487.941L561.23 495.879L483.395 592.05L473.54 584.07Z" fill="white"/>
<path fill-rule="evenodd" clip-rule="evenodd" d="M409.255 584.07L487.141 487.941L496.945 495.879L419.11 592.05L409.255 584.07Z" fill="white"/>
<path fill-rule="evenodd" clip-rule="evenodd" d="M344.969 584.07L422.855 487.941L432.659 495.879L354.824 592.05L344.969 584.07Z" fill="white"/>
<path fill-rule="evenodd" clip-rule="evenodd" d="M280.683 584.07L358.57 487.941L368.373 495.879L290.538 592.05L280.683 584.07Z" fill="white"/>
<path fill-rule="evenodd" clip-rule="evenodd" d="M216.397 584.07L294.284 487.941L304.087 495.879L226.252 592.05L216.397 584.07Z" fill="white"/>
<path fill-rule="evenodd" clip-rule="evenodd" d="M152.11 584.07L229.997 487.941L239.801 495.879L161.966 592.05L152.11 584.07Z" fill="white"/>
<path fill-rule="evenodd" clip-rule="evenodd" d="M87.8239 584.07L165.711 487.941L175.515 495.879L97.68 592.05L87.8239 584.07Z" fill="white"/>
<path fill-rule="evenodd" clip-rule="evenodd" d="M23.5382 584.07L101.426 487.941L111.229 495.879L33.3943 592.05L23.5382 584.07Z" fill="white"/>
<path fill-rule="evenodd" clip-rule="evenodd" d="M-40.7475 584.07L37.14 487.941L46.9432 495.879L-30.8914 592.05L-40.7475 584.07Z" fill="white"/>
<path fill-rule="evenodd" clip-rule="evenodd" d="M1861.77 477.015L1905.34 423.244L1910.82 427.684L1867.28 481.481L1861.77 477.015Z" fill="white"/>
<path fill-rule="evenodd" clip-rule="evenodd" d="M1793.16 481.845L1840.61 423.291L1846.58 428.126L1799.17 486.707L1793.16 481.845Z" fill="white"/>
<path fill-rule="evenodd" clip-rule="evenodd" d="M1724.56 486.677L1775.88 423.336L1782.34 428.567L1731.06 491.936L1724.56 486.677Z" fill="white"/>
<path fill-rule="evenodd" clip-rule="evenodd" d="M1655.96 491.507L1711.15 423.384L1718.1 429.009L1662.94 497.162L1655.96 491.507Z" fill="white"/>
<path fill-rule="evenodd" clip-rule="evenodd" d="M1587.35 496.337L1646.43 423.428L1653.86 429.45L1594.83 502.391L1587.35 496.337Z" fill="white"/>
<path fill-rule="evenodd" clip-rule="evenodd" d="M1518.75 501.167L1581.7 423.476L1589.62 429.891L1526.72 507.617L1518.75 501.167Z" fill="white"/>
<path fill-rule="evenodd" clip-rule="evenodd" d="M1450.15 505.997L1516.97 423.523L1525.38 430.333L1458.61 512.843L1450.15 505.997Z" fill="white"/>
<path fill-rule="evenodd" clip-rule="evenodd" d="M1381.54 510.827L1452.24 423.568L1461.14 430.774L1390.49 518.072L1381.54 510.827Z" fill="white"/>
<path fill-rule="evenodd" clip-rule="evenodd" d="M1312.94 515.657L1387.52 423.615L1396.91 431.216L1322.38 523.299L1312.94 515.657Z" fill="white"/>
<path fill-rule="evenodd" clip-rule="evenodd" d="M1244.97 519.784L1322.85 423.656L1332.66 431.593L1254.82 527.764L1244.97 519.784Z" fill="white"/>
<path fill-rule="evenodd" clip-rule="evenodd" d="M1180.68 519.784L1258.57 423.656L1268.37 431.593L1190.54 527.764L1180.68 519.784Z" fill="white"/>
<path fill-rule="evenodd" clip-rule="evenodd" d="M1116.4 519.784L1194.28 423.656L1204.09 431.593L1126.25 527.764L1116.4 519.784Z" fill="white"/>
<path fill-rule="evenodd" clip-rule="evenodd" d="M1052.11 519.784L1130 423.656L1139.8 431.593L1061.97 527.764L1052.11 519.784Z" fill="white"/>
<path fill-rule="evenodd" clip-rule="evenodd" d="M987.824 519.784L1065.71 423.656L1075.51 431.593L997.679 527.764L987.824 519.784Z" fill="white"/>
<path fill-rule="evenodd" clip-rule="evenodd" d="M923.538 519.784L1001.42 423.656L1011.23 431.593L933.393 527.764L923.538 519.784Z" fill="white"/>
<path fill-rule="evenodd" clip-rule="evenodd" d="M859.253 519.784L937.139 423.656L946.943 431.593L869.108 527.764L859.253 519.784Z" fill="white"/>
<path fill-rule="evenodd" clip-rule="evenodd" d="M794.967 519.784L872.853 423.656L882.657 431.593L804.822 527.764L794.967 519.784Z" fill="white"/>
<path fill-rule="evenodd" clip-rule="evenodd" d="M730.681 519.784L808.567 423.656L818.371 431.593L740.536 527.764L730.681 519.784Z" fill="white"/>
<path fill-rule="evenodd" clip-rule="evenodd" d="M666.395 519.784L744.282 423.656L754.085 431.593L676.25 527.764L666.395 519.784Z" fill="white"/>
<path fill-rule="evenodd" clip-rule="evenodd" d="M602.11 519.784L679.996 423.656L689.8 431.593L611.965 527.764L602.11 519.784Z" fill="white"/>
<path fill-rule="evenodd" clip-rule="evenodd" d="M537.824 519.784L615.71 423.656L625.514 431.593L547.679 527.764L537.824 519.784Z" fill="white"/>
<path fill-rule="evenodd" clip-rule="evenodd" d="M473.54 519.784L551.427 423.656L561.23 431.593L483.395 527.764L473.54 519.784Z" fill="white"/>
<path fill-rule="evenodd" clip-rule="evenodd" d="M409.255 519.784L487.141 423.656L496.945 431.593L419.11 527.764L409.255 519.784Z" fill="white"/>
<path fill-rule="evenodd" clip-rule="evenodd" d="M344.969 519.784L422.855 423.656L432.659 431.593L354.824 527.764L344.969 519.784Z" fill="white"/>
<path fill-rule="evenodd" clip-rule="evenodd" d="M280.683 519.784L358.57 423.656L368.373 431.593L290.538 527.764L280.683 519.784Z" fill="white"/>
<path fill-rule="evenodd" clip-rule="evenodd" d="M216.397 519.784L294.284 423.656L304.087 431.593L226.252 527.764L216.397 519.784Z" fill="white"/>
<path fill-rule="evenodd" clip-rule="evenodd" d="M152.11 519.784L229.997 423.656L239.801 431.593L161.966 527.764L152.11 519.784Z" fill="white"/>
<path fill-rule="evenodd" clip-rule="evenodd" d="M87.8239 519.784L165.711 423.656L175.515 431.593L97.68 527.764L87.8239 519.784Z" fill="white"/>
<path fill-rule="evenodd" clip-rule="evenodd" d="M23.5382 519.784L101.426 423.656L111.229 431.593L33.3943 527.764L23.5382 519.784Z" fill="white"/>
<path fill-rule="evenodd" clip-rule="evenodd" d="M-40.7475 519.784L37.14 423.656L46.9432 431.593L-30.8914 527.764L-40.7475 519.784Z" fill="white"/>
<path fill-rule="evenodd" clip-rule="evenodd" d="M1865.65 408.381L1905.73 358.916L1910.78 363.002L1870.72 412.487L1865.65 408.381Z" fill="white"/>
<path fill-rule="evenodd" clip-rule="evenodd" d="M1797.05 413.211L1841.01 358.963L1846.54 363.444L1802.61 417.716L1797.05 413.211Z" fill="white"/>
<path fill-rule="evenodd" clip-rule="evenodd" d="M1728.45 418.041L1776.28 359.01L1782.3 363.885L1734.5 422.942L1728.45 418.041Z" fill="white"/>
<path fill-rule="evenodd" clip-rule="evenodd" d="M1659.84 422.871L1711.55 359.055L1718.06 364.326L1666.39 428.171L1659.84 422.871Z" fill="white"/>
<path fill-rule="evenodd" clip-rule="evenodd" d="M1591.24 427.701L1646.83 359.102L1653.82 364.768L1598.28 433.397L1591.24 427.701Z" fill="white"/>
<path fill-rule="evenodd" clip-rule="evenodd" d="M1522.64 432.531L1582.1 359.149L1589.58 365.209L1530.16 438.626L1522.64 432.531Z" fill="white"/>
<path fill-rule="evenodd" clip-rule="evenodd" d="M1454.04 437.361L1517.37 359.194L1525.34 365.651L1462.05 443.852L1454.04 437.361Z" fill="white"/>
<path fill-rule="evenodd" clip-rule="evenodd" d="M1385.43 442.191L1452.64 359.241L1461.1 366.092L1393.94 449.079L1385.43 442.191Z" fill="white"/>
<path fill-rule="evenodd" clip-rule="evenodd" d="M1316.83 447.021L1387.92 359.289L1396.86 366.534L1325.82 454.307L1316.83 447.021Z" fill="white"/>
<path fill-rule="evenodd" clip-rule="evenodd" d="M1248.23 451.854L1323.19 359.333L1332.62 366.975L1257.71 459.534L1248.23 451.854Z" fill="white"/>
<path fill-rule="evenodd" clip-rule="evenodd" d="M1180.68 455.498L1258.57 359.37L1268.37 367.307L1190.54 463.478L1180.68 455.498Z" fill="white"/>
<path fill-rule="evenodd" clip-rule="evenodd" d="M1116.4 455.498L1194.28 359.37L1204.09 367.307L1126.25 463.478L1116.4 455.498Z" fill="white"/>
<path fill-rule="evenodd" clip-rule="evenodd" d="M1052.11 455.498L1130 359.37L1139.8 367.307L1061.97 463.478L1052.11 455.498Z" fill="white"/>
<path fill-rule="evenodd" clip-rule="evenodd" d="M987.824 455.498L1065.71 359.37L1075.51 367.307L997.679 463.478L987.824 455.498Z" fill="white"/>
<path fill-rule="evenodd" clip-rule="evenodd" d="M923.538 455.498L1001.42 359.37L1011.23 367.307L933.393 463.478L923.538 455.498Z" fill="white"/>
<path fill-rule="evenodd" clip-rule="evenodd" d="M859.253 455.498L937.139 359.37L946.943 367.307L869.108 463.478L859.253 455.498Z" fill="white"/>
<path fill-rule="evenodd" clip-rule="evenodd" d="M794.967 455.498L872.853 359.37L882.657 367.307L804.822 463.478L794.967 455.498Z" fill="white"/>
<path fill-rule="evenodd" clip-rule="evenodd" d="M730.681 455.498L808.567 359.37L818.371 367.307L740.536 463.478L730.681 455.498Z" fill="white"/>
<path fill-rule="evenodd" clip-rule="evenodd" d="M666.395 455.498L744.282 359.37L754.085 367.307L676.25 463.478L666.395 455.498Z" fill="white"/>
<path fill-rule="evenodd" clip-rule="evenodd" d="M602.11 455.498L679.996 359.37L689.8 367.307L611.965 463.478L602.11 455.498Z" fill="white"/>
<path fill-rule="evenodd" clip-rule="evenodd" d="M537.824 455.498L615.71 359.37L625.514 367.307L547.679 463.478L537.824 455.498Z" fill="white"/>
<path fill-rule="evenodd" clip-rule="evenodd" d="M473.54 455.498L551.427 359.37L561.23 367.307L483.395 463.478L473.54 455.498Z" fill="white"/>
<path fill-rule="evenodd" clip-rule="evenodd" d="M409.255 455.498L487.141 359.37L496.945 367.307L419.11 463.478L409.255 455.498Z" fill="white"/>
<path fill-rule="evenodd" clip-rule="evenodd" d="M344.969 455.498L422.855 359.37L432.659 367.307L354.824 463.478L344.969 455.498Z" fill="white"/>
<path fill-rule="evenodd" clip-rule="evenodd" d="M280.683 455.498L358.57 359.37L368.373 367.307L290.538 463.478L280.683 455.498Z" fill="white"/>
<path fill-rule="evenodd" clip-rule="evenodd" d="M216.397 455.498L294.284 359.37L304.087 367.307L226.252 463.478L216.397 455.498Z" fill="white"/>
<path fill-rule="evenodd" clip-rule="evenodd" d="M152.11 455.498L229.997 359.37L239.801 367.307L161.966 463.478L152.11 455.498Z" fill="white"/>
<path fill-rule="evenodd" clip-rule="evenodd" d="M87.8239 455.498L165.711 359.37L175.515 367.307L97.68 463.478L87.8239 455.498Z" fill="white"/>
<path fill-rule="evenodd" clip-rule="evenodd" d="M23.5382 455.498L101.426 359.37L111.229 367.307L33.3943 463.478L23.5382 455.498Z" fill="white"/>
<path fill-rule="evenodd" clip-rule="evenodd" d="M-40.7475 455.498L37.14 359.37L46.9432 367.307L-30.8914 463.478L-40.7475 455.498Z" fill="white"/>
<path fill-rule="evenodd" clip-rule="evenodd" d="M1869.54 339.746L1906.13 294.589L1910.74 298.318L1874.17 343.496L1869.54 339.746Z" fill="white"/>
<path fill-rule="evenodd" clip-rule="evenodd" d="M1800.94 344.576L1841.4 294.636L1846.5 298.759L1806.06 348.722L1800.94 344.576Z" fill="white"/>
<path fill-rule="evenodd" clip-rule="evenodd" d="M1732.34 349.406L1776.68 294.681L1782.26 299.201L1737.95 353.951L1732.34 349.406Z" fill="white"/>
<path fill-rule="evenodd" clip-rule="evenodd" d="M1663.73 354.236L1711.95 294.729L1718.02 299.642L1669.84 359.177L1663.73 354.236Z" fill="white"/>
<path fill-rule="evenodd" clip-rule="evenodd" d="M1595.13 359.068L1647.22 294.776L1653.78 300.084L1601.72 364.406L1595.13 359.068Z" fill="white"/>
<path fill-rule="evenodd" clip-rule="evenodd" d="M1526.53 363.898L1582.49 294.821L1589.54 300.525L1533.61 369.632L1526.53 363.898Z" fill="white"/>
<path fill-rule="evenodd" clip-rule="evenodd" d="M1457.92 368.728L1517.77 294.868L1525.3 300.967L1465.5 374.861L1457.92 368.728Z" fill="white"/>
<path fill-rule="evenodd" clip-rule="evenodd" d="M1389.32 373.558L1453.04 294.913L1461.06 301.408L1397.38 380.087L1389.32 373.558Z" fill="white"/>
<path fill-rule="evenodd" clip-rule="evenodd" d="M1320.72 378.388L1388.31 294.96L1396.82 301.849L1329.27 385.314L1320.72 378.388Z" fill="white"/>
<path fill-rule="evenodd" clip-rule="evenodd" d="M1252.11 383.218L1323.58 295.007L1332.58 302.291L1261.16 390.542L1252.11 383.218Z" fill="white"/>
<path fill-rule="evenodd" clip-rule="evenodd" d="M1183.51 388.048L1258.86 295.052L1268.34 302.732L1193.04 395.768L1183.51 388.048Z" fill="white"/>
<path fill-rule="evenodd" clip-rule="evenodd" d="M1116.4 391.213L1194.28 295.084L1204.09 303.021L1126.25 399.193L1116.4 391.213Z" fill="white"/>
<path fill-rule="evenodd" clip-rule="evenodd" d="M1052.11 391.213L1130 295.084L1139.8 303.021L1061.97 399.193L1052.11 391.213Z" fill="white"/>
<path fill-rule="evenodd" clip-rule="evenodd" d="M987.824 391.213L1065.71 295.084L1075.51 303.021L997.679 399.193L987.824 391.213Z" fill="white"/>
<path fill-rule="evenodd" clip-rule="evenodd" d="M923.538 391.213L1001.42 295.084L1011.23 303.021L933.393 399.193L923.538 391.213Z" fill="white"/>
<path fill-rule="evenodd" clip-rule="evenodd" d="M859.253 391.213L937.139 295.084L946.943 303.021L869.108 399.193L859.253 391.213Z" fill="white"/>
<path fill-rule="evenodd" clip-rule="evenodd" d="M794.967 391.213L872.853 295.084L882.657 303.021L804.822 399.193L794.967 391.213Z" fill="white"/>
<path fill-rule="evenodd" clip-rule="evenodd" d="M730.681 391.213L808.567 295.084L818.371 303.021L740.536 399.193L730.681 391.213Z" fill="white"/>
<path fill-rule="evenodd" clip-rule="evenodd" d="M666.395 391.213L744.282 295.084L754.085 303.021L676.25 399.193L666.395 391.213Z" fill="white"/>
<path fill-rule="evenodd" clip-rule="evenodd" d="M602.11 391.213L679.996 295.084L689.8 303.021L611.965 399.193L602.11 391.213Z" fill="white"/>
<path fill-rule="evenodd" clip-rule="evenodd" d="M537.824 391.213L615.71 295.084L625.514 303.021L547.679 399.193L537.824 391.213Z" fill="white"/>
<path fill-rule="evenodd" clip-rule="evenodd" d="M473.54 391.213L551.427 295.084L561.23 303.021L483.395 399.193L473.54 391.213Z" fill="white"/>
<path fill-rule="evenodd" clip-rule="evenodd" d="M409.255 391.213L487.141 295.084L496.945 303.021L419.11 399.193L409.255 391.213Z" fill="white"/>
<path fill-rule="evenodd" clip-rule="evenodd" d="M344.969 391.213L422.855 295.084L432.659 303.021L354.824 399.193L344.969 391.213Z" fill="white"/>
<path fill-rule="evenodd" clip-rule="evenodd" d="M280.683 391.213L358.57 295.084L368.373 303.021L290.538 399.193L280.683 391.213Z" fill="white"/>
<path fill-rule="evenodd" clip-rule="evenodd" d="M216.397 391.213L294.284 295.084L304.087 303.021L226.252 399.193L216.397 391.213Z" fill="white"/>
<path fill-rule="evenodd" clip-rule="evenodd" d="M152.11 391.213L229.997 295.084L239.801 303.021L161.966 399.193L152.11 391.213Z" fill="white"/>
<path fill-rule="evenodd" clip-rule="evenodd" d="M87.8239 391.213L165.711 295.084L175.515 303.021L97.68 399.193L87.8239 391.213Z" fill="white"/>
<path fill-rule="evenodd" clip-rule="evenodd" d="M23.5382 391.213L101.426 295.084L111.229 303.021L33.3943 399.193L23.5382 391.213Z" fill="white"/>
<path fill-rule="evenodd" clip-rule="evenodd" d="M-40.7475 391.213L37.14 295.084L46.9432 303.021L-30.8914 399.193L-40.7475 391.213Z" fill="white"/>
<path fill-rule="evenodd" clip-rule="evenodd" d="M1873.43 271.112L1906.53 230.261L1910.69 233.636L1877.62 274.502L1873.43 271.112Z" fill="white"/>
<path fill-rule="evenodd" clip-rule="evenodd" d="M1804.83 275.942L1841.8 230.308L1846.45 234.077L1809.51 279.73L1804.83 275.942Z" fill="white"/>
<path fill-rule="evenodd" clip-rule="evenodd" d="M1736.22 280.772L1777.07 230.355L1782.22 234.518L1741.39 284.957L1736.22 280.772Z" fill="white"/>
<path fill-rule="evenodd" clip-rule="evenodd" d="M1667.62 285.602L1712.35 230.4L1717.98 234.96L1673.28 290.186L1667.62 285.602Z" fill="white"/>
<path fill-rule="evenodd" clip-rule="evenodd" d="M1599.02 290.432L1647.62 230.447L1653.74 235.401L1605.17 295.412L1599.02 290.432Z" fill="white"/>
<path fill-rule="evenodd" clip-rule="evenodd" d="M1530.41 295.262L1582.89 230.494L1589.5 235.843L1537.06 300.641L1530.41 295.262Z" fill="white"/>
<path fill-rule="evenodd" clip-rule="evenodd" d="M1461.81 300.092L1518.17 230.539L1525.26 236.284L1468.94 305.867L1461.81 300.092Z" fill="white"/>
<path fill-rule="evenodd" clip-rule="evenodd" d="M1393.21 304.922L1453.44 230.586L1461.02 236.725L1400.83 311.093L1393.21 304.922Z" fill="white"/>
<path fill-rule="evenodd" clip-rule="evenodd" d="M1324.6 309.752L1388.71 230.633L1396.78 237.167L1332.72 316.322L1324.6 309.752Z" fill="white"/>
<path fill-rule="evenodd" clip-rule="evenodd" d="M1256 314.582L1323.98 230.678L1332.54 237.608L1264.6 321.548L1256 314.582Z" fill="white"/>
<path fill-rule="evenodd" clip-rule="evenodd" d="M1187.4 319.412L1259.26 230.726L1268.3 238.05L1196.49 326.777L1187.4 319.412Z" fill="white"/>
<path fill-rule="evenodd" clip-rule="evenodd" d="M1118.79 324.244L1194.53 230.773L1204.06 238.491L1128.38 332.003L1118.79 324.244Z" fill="white"/>
<path fill-rule="evenodd" clip-rule="evenodd" d="M1052.11 326.927L1130 230.798L1139.8 238.735L1061.97 334.907L1052.11 326.927Z" fill="white"/>
<path fill-rule="evenodd" clip-rule="evenodd" d="M987.824 326.927L1065.71 230.798L1075.51 238.735L997.679 334.907L987.824 326.927Z" fill="white"/>
<path fill-rule="evenodd" clip-rule="evenodd" d="M923.538 326.927L1001.42 230.798L1011.23 238.735L933.393 334.907L923.538 326.927Z" fill="white"/>
<path fill-rule="evenodd" clip-rule="evenodd" d="M859.253 326.927L937.139 230.798L946.943 238.735L869.108 334.907L859.253 326.927Z" fill="white"/>
<path fill-rule="evenodd" clip-rule="evenodd" d="M794.967 326.927L872.853 230.798L882.657 238.735L804.822 334.907L794.967 326.927Z" fill="white"/>
<path fill-rule="evenodd" clip-rule="evenodd" d="M730.681 326.927L808.567 230.798L818.371 238.735L740.536 334.907L730.681 326.927Z" fill="white"/>
<path fill-rule="evenodd" clip-rule="evenodd" d="M666.395 326.927L744.282 230.798L754.085 238.735L676.25 334.907L666.395 326.927Z" fill="white"/>
<path fill-rule="evenodd" clip-rule="evenodd" d="M602.11 326.927L679.996 230.798L689.8 238.735L611.965 334.907L602.11 326.927Z" fill="white"/>
<path fill-rule="evenodd" clip-rule="evenodd" d="M537.824 326.927L615.71 230.798L625.514 238.735L547.679 334.907L537.824 326.927Z" fill="white"/>
<path fill-rule="evenodd" clip-rule="evenodd" d="M473.54 326.927L551.427 230.798L561.23 238.735L483.395 334.907L473.54 326.927Z" fill="white"/>
<path fill-rule="evenodd" clip-rule="evenodd" d="M409.255 326.927L487.141 230.798L496.945 238.735L419.11 334.907L409.255 326.927Z" fill="white"/>
<path fill-rule="evenodd" clip-rule="evenodd" d="M344.969 326.927L422.855 230.798L432.659 238.735L354.824 334.907L344.969 326.927Z" fill="white"/>
<path fill-rule="evenodd" clip-rule="evenodd" d="M280.683 326.927L358.57 230.798L368.373 238.735L290.538 334.907L280.683 326.927Z" fill="white"/>
<path fill-rule="evenodd" clip-rule="evenodd" d="M216.397 326.927L294.284 230.798L304.087 238.735L226.252 334.907L216.397 326.927Z" fill="white"/>
<path fill-rule="evenodd" clip-rule="evenodd" d="M152.11 326.927L229.997 230.798L239.801 238.735L161.966 334.907L152.11 326.927Z" fill="white"/>
<path fill-rule="evenodd" clip-rule="evenodd" d="M87.8239 326.927L165.711 230.798L175.515 238.735L97.68 334.907L87.8239 326.927Z" fill="white"/>
<path fill-rule="evenodd" clip-rule="evenodd" d="M23.5382 326.927L101.426 230.798L111.229 238.735L33.3943 334.907L23.5382 326.927Z" fill="white"/>
<path fill-rule="evenodd" clip-rule="evenodd" d="M-40.7475 326.927L37.14 230.798L46.9432 238.735L-30.8914 334.907L-40.7475 326.927Z" fill="white"/>
<path fill-rule="evenodd" clip-rule="evenodd" d="M1877.32 202.476L1906.93 165.934L1910.65 168.952L1881.07 205.51L1877.32 202.476Z" fill="white"/>
<path fill-rule="evenodd" clip-rule="evenodd" d="M1808.71 207.307L1842.2 165.98L1846.41 169.393L1812.95 210.738L1808.71 207.307Z" fill="white"/>
<path fill-rule="evenodd" clip-rule="evenodd" d="M1740.11 212.137L1777.47 166.027L1782.17 169.834L1744.84 215.965L1740.11 212.137Z" fill="white"/>
<path fill-rule="evenodd" clip-rule="evenodd" d="M1671.51 216.966L1712.74 166.073L1717.93 170.276L1676.73 221.192L1671.51 216.966Z" fill="white"/>
<path fill-rule="evenodd" clip-rule="evenodd" d="M1602.9 221.796L1648.02 166.12L1653.69 170.718L1608.61 226.421L1602.9 221.796Z" fill="white"/>
<path fill-rule="evenodd" clip-rule="evenodd" d="M1534.3 226.626L1583.29 166.166L1589.46 171.159L1540.5 231.647L1534.3 226.626Z" fill="white"/>
<path fill-rule="evenodd" clip-rule="evenodd" d="M1465.7 231.459L1518.56 166.212L1525.22 171.6L1472.39 236.876L1465.7 231.459Z" fill="white"/>
<path fill-rule="evenodd" clip-rule="evenodd" d="M1397.1 236.288L1453.83 166.259L1460.98 172.042L1404.27 242.102L1397.1 236.288Z" fill="white"/>
<path fill-rule="evenodd" clip-rule="evenodd" d="M1328.49 241.118L1389.11 166.305L1396.74 172.483L1336.16 247.328L1328.49 241.118Z" fill="white"/>
<path fill-rule="evenodd" clip-rule="evenodd" d="M1259.89 245.948L1324.38 166.352L1332.5 172.925L1268.05 252.557L1259.89 245.948Z" fill="white"/>
<path fill-rule="evenodd" clip-rule="evenodd" d="M1191.28 250.779L1259.65 166.398L1268.26 173.366L1199.94 257.784L1191.28 250.779Z" fill="white"/>
<path fill-rule="evenodd" clip-rule="evenodd" d="M1122.68 255.608L1194.93 166.444L1204.02 173.808L1131.82 263.012L1122.68 255.608Z" fill="white"/>
<path fill-rule="evenodd" clip-rule="evenodd" d="M1054.08 260.439L1130.2 166.491L1139.78 174.249L1063.71 268.239L1054.08 260.439Z" fill="white"/>
<path fill-rule="evenodd" clip-rule="evenodd" d="M987.824 262.641L1065.71 166.512L1075.51 174.45L997.679 270.621L987.824 262.641Z" fill="white"/>
<path fill-rule="evenodd" clip-rule="evenodd" d="M923.538 262.641L1001.42 166.512L1011.23 174.45L933.393 270.621L923.538 262.641Z" fill="white"/>
<path fill-rule="evenodd" clip-rule="evenodd" d="M859.253 262.641L937.139 166.512L946.943 174.45L869.108 270.621L859.253 262.641Z" fill="white"/>
<path fill-rule="evenodd" clip-rule="evenodd" d="M794.967 262.641L872.853 166.512L882.657 174.45L804.822 270.621L794.967 262.641Z" fill="white"/>
<path fill-rule="evenodd" clip-rule="evenodd" d="M730.681 262.641L808.567 166.512L818.371 174.45L740.536 270.621L730.681 262.641Z" fill="white"/>
<path fill-rule="evenodd" clip-rule="evenodd" d="M666.395 262.641L744.282 166.512L754.085 174.45L676.25 270.621L666.395 262.641Z" fill="white"/>
<path fill-rule="evenodd" clip-rule="evenodd" d="M602.11 262.641L679.996 166.512L689.8 174.45L611.965 270.621L602.11 262.641Z" fill="white"/>
<path fill-rule="evenodd" clip-rule="evenodd" d="M537.824 262.641L615.71 166.512L625.514 174.45L547.679 270.621L537.824 262.641Z" fill="white"/>
<path fill-rule="evenodd" clip-rule="evenodd" d="M473.54 262.641L551.427 166.512L561.23 174.45L483.395 270.621L473.54 262.641Z" fill="white"/>
<path fill-rule="evenodd" clip-rule="evenodd" d="M409.255 262.641L487.141 166.512L496.945 174.45L419.11 270.621L409.255 262.641Z" fill="white"/>
<path fill-rule="evenodd" clip-rule="evenodd" d="M344.969 262.641L422.855 166.512L432.659 174.45L354.824 270.621L344.969 262.641Z" fill="white"/>
<path fill-rule="evenodd" clip-rule="evenodd" d="M280.683 262.641L358.57 166.512L368.373 174.45L290.538 270.621L280.683 262.641Z" fill="white"/>
<path fill-rule="evenodd" clip-rule="evenodd" d="M216.397 262.641L294.284 166.512L304.087 174.45L226.252 270.621L216.397 262.641Z" fill="white"/>
<path fill-rule="evenodd" clip-rule="evenodd" d="M152.11 262.641L229.997 166.512L239.801 174.45L161.966 270.621L152.11 262.641Z" fill="white"/>
<path fill-rule="evenodd" clip-rule="evenodd" d="M87.8239 262.641L165.711 166.512L175.515 174.45L97.68 270.621L87.8239 262.641Z" fill="white"/>
<path fill-rule="evenodd" clip-rule="evenodd" d="M23.5382 262.641L101.426 166.512L111.229 174.45L33.3943 270.621L23.5382 262.641Z" fill="white"/>
<path fill-rule="evenodd" clip-rule="evenodd" d="M-40.7475 262.641L37.14 166.512L46.9432 174.45L-30.8914 270.621L-40.7475 262.641Z" fill="white"/>
<path fill-rule="evenodd" clip-rule="evenodd" d="M1881.2 133.842L1907.32 101.606L1910.61 104.269L1884.51 136.518L1881.2 133.842Z" fill="white"/>
<path fill-rule="evenodd" clip-rule="evenodd" d="M1812.6 138.672L1842.6 101.653L1846.37 104.71L1816.4 141.745L1812.6 138.672Z" fill="white"/>
<path fill-rule="evenodd" clip-rule="evenodd" d="M1744 143.502L1777.87 101.699L1782.13 105.151L1748.29 146.973L1744 143.502Z" fill="white"/>
<path fill-rule="evenodd" clip-rule="evenodd" d="M1675.39 148.332L1713.14 101.746L1717.89 105.593L1680.17 152.2L1675.39 148.332Z" fill="white"/>
<path fill-rule="evenodd" clip-rule="evenodd" d="M1606.79 153.162L1648.41 101.792L1653.65 106.034L1612.06 157.427L1606.79 153.162Z" fill="white"/>
<path fill-rule="evenodd" clip-rule="evenodd" d="M1538.19 157.993L1583.69 101.839L1589.41 106.476L1543.95 162.655L1538.19 157.993Z" fill="white"/>
<path fill-rule="evenodd" clip-rule="evenodd" d="M1469.59 162.823L1518.96 101.885L1525.17 106.917L1475.83 167.882L1469.59 162.823Z" fill="white"/>
<path fill-rule="evenodd" clip-rule="evenodd" d="M1400.98 167.653L1454.23 101.931L1460.94 107.359L1407.72 173.11L1400.98 167.653Z" fill="white"/>
<path fill-rule="evenodd" clip-rule="evenodd" d="M1332.38 172.483L1389.51 101.978L1396.7 107.8L1339.61 178.337L1332.38 172.483Z" fill="white"/>
<path fill-rule="evenodd" clip-rule="evenodd" d="M1263.78 177.313L1324.78 102.024L1332.45 108.241L1271.49 183.564L1263.78 177.313Z" fill="white"/>
<path fill-rule="evenodd" clip-rule="evenodd" d="M1195.17 182.143L1260.05 102.07L1268.22 108.683L1203.38 188.792L1195.17 182.143Z" fill="white"/>
<path fill-rule="evenodd" clip-rule="evenodd" d="M1126.57 186.974L1195.32 102.117L1203.98 109.125L1135.27 194.019L1126.57 186.974Z" fill="white"/>
<path fill-rule="evenodd" clip-rule="evenodd" d="M1057.97 191.804L1130.6 102.163L1139.74 109.566L1067.16 199.246L1057.97 191.804Z" fill="white"/>
<path fill-rule="evenodd" clip-rule="evenodd" d="M989.362 196.634L1065.87 102.21L1075.5 110.007L999.044 204.474L989.362 196.634Z" fill="white"/>
<path fill-rule="evenodd" clip-rule="evenodd" d="M923.538 198.355L1001.42 102.226L1011.23 110.165L933.393 206.336L923.538 198.355Z" fill="white"/>
<path fill-rule="evenodd" clip-rule="evenodd" d="M859.253 198.355L937.139 102.226L946.943 110.165L869.108 206.336L859.253 198.355Z" fill="white"/>
<path fill-rule="evenodd" clip-rule="evenodd" d="M794.967 198.355L872.853 102.226L882.657 110.165L804.822 206.336L794.967 198.355Z" fill="white"/>
<path fill-rule="evenodd" clip-rule="evenodd" d="M730.681 198.355L808.567 102.226L818.371 110.165L740.536 206.336L730.681 198.355Z" fill="white"/>
<path fill-rule="evenodd" clip-rule="evenodd" d="M666.395 198.355L744.282 102.226L754.085 110.165L676.25 206.336L666.395 198.355Z" fill="white"/>
<path fill-rule="evenodd" clip-rule="evenodd" d="M602.11 198.355L679.996 102.226L689.8 110.165L611.965 206.336L602.11 198.355Z" fill="white"/>
<path fill-rule="evenodd" clip-rule="evenodd" d="M537.824 198.355L615.71 102.226L625.514 110.165L547.679 206.336L537.824 198.355Z" fill="white"/>
<path fill-rule="evenodd" clip-rule="evenodd" d="M473.54 198.355L551.427 102.226L561.23 110.165L483.395 206.336L473.54 198.355Z" fill="white"/>
<path fill-rule="evenodd" clip-rule="evenodd" d="M409.255 198.355L487.141 102.226L496.945 110.165L419.11 206.336L409.255 198.355Z" fill="white"/>
<path fill-rule="evenodd" clip-rule="evenodd" d="M344.969 198.355L422.855 102.226L432.659 110.165L354.824 206.336L344.969 198.355Z" fill="white"/>
<path fill-rule="evenodd" clip-rule="evenodd" d="M280.683 198.355L358.57 102.226L368.373 110.165L290.538 206.336L280.683 198.355Z" fill="white"/>
<path fill-rule="evenodd" clip-rule="evenodd" d="M216.397 198.355L294.284 102.226L304.087 110.165L226.252 206.336L216.397 198.355Z" fill="white"/>
<path fill-rule="evenodd" clip-rule="evenodd" d="M152.11 198.355L229.997 102.226L239.801 110.165L161.966 206.336L152.11 198.355Z" fill="white"/>
<path fill-rule="evenodd" clip-rule="evenodd" d="M87.8239 198.355L165.711 102.226L175.515 110.165L97.68 206.336L87.8239 198.355Z" fill="white"/>
<path fill-rule="evenodd" clip-rule="evenodd" d="M23.5382 198.355L101.426 102.226L111.229 110.165L33.3943 206.336L23.5382 198.355Z" fill="white"/>
<path fill-rule="evenodd" clip-rule="evenodd" d="M-40.7475 198.355L37.14 102.226L46.9432 110.165L-30.8914 206.336L-40.7475 198.355Z" fill="white"/>
<path fill-rule="evenodd" clip-rule="evenodd" d="M1885.09 65.2069L1907.72 37.2791L1910.57 39.5854L1887.96 67.5257L1885.09 65.2069Z" fill="white"/>
<path fill-rule="evenodd" clip-rule="evenodd" d="M1816.49 70.037L1842.99 37.3254L1846.33 40.0267L1819.84 72.7531L1816.49 70.037Z" fill="white"/>
<path fill-rule="evenodd" clip-rule="evenodd" d="M1747.89 74.8673L1778.26 37.3718L1782.09 40.4683L1751.73 77.9805L1747.89 74.8673Z" fill="white"/>
<path fill-rule="evenodd" clip-rule="evenodd" d="M1679.28 79.6974L1713.54 37.4182L1717.85 40.9096L1683.62 83.2076L1679.28 79.6974Z" fill="white"/>
<path fill-rule="evenodd" clip-rule="evenodd" d="M1610.68 84.5273L1648.81 37.4644L1653.61 41.3509L1615.51 88.435L1610.68 84.5273Z" fill="white"/>
<path fill-rule="evenodd" clip-rule="evenodd" d="M1542.08 89.3576L1584.08 37.511L1589.37 41.7924L1547.39 93.6624L1542.08 89.3576Z" fill="white"/>
<path fill-rule="evenodd" clip-rule="evenodd" d="M1473.47 94.1879L1519.36 37.5574L1525.13 42.2342L1479.28 98.8898L1473.47 94.1879Z" fill="white"/>
<path fill-rule="evenodd" clip-rule="evenodd" d="M1404.87 99.018L1454.63 37.6038L1460.89 42.6755L1411.17 104.117L1404.87 99.018Z" fill="white"/>
<path fill-rule="evenodd" clip-rule="evenodd" d="M1336.27 103.848L1389.9 37.6501L1396.65 43.117L1343.06 109.345L1336.27 103.848Z" fill="white"/>
<path fill-rule="evenodd" clip-rule="evenodd" d="M1267.66 108.678L1325.18 37.6968L1332.41 43.5586L1274.94 114.572L1267.66 108.678Z" fill="white"/>
<path fill-rule="evenodd" clip-rule="evenodd" d="M1199.06 113.509L1260.45 37.7429L1268.17 43.9999L1206.83 119.799L1199.06 113.509Z" fill="white"/>
<path fill-rule="evenodd" clip-rule="evenodd" d="M1130.46 118.339L1195.72 37.7893L1203.93 44.4412L1138.71 125.027L1130.46 118.339Z" fill="white"/>
<path fill-rule="evenodd" clip-rule="evenodd" d="M1061.85 123.169L1130.99 37.8357L1139.7 44.8827L1070.6 130.254L1061.85 123.169Z" fill="white"/>
<path fill-rule="evenodd" clip-rule="evenodd" d="M993.25 127.999L1066.27 37.8821L1075.46 45.324L1002.49 135.481L993.25 127.999Z" fill="white"/>
<path fill-rule="evenodd" clip-rule="evenodd" d="M924.647 132.829L1001.54 37.9285L1011.22 45.7655L934.378 140.709L924.647 132.829Z" fill="white"/>
<path fill-rule="evenodd" clip-rule="evenodd" d="M859.253 134.069L937.139 37.9404L946.943 45.8789L869.108 142.051L859.253 134.069Z" fill="white"/>
<path fill-rule="evenodd" clip-rule="evenodd" d="M794.967 134.069L872.853 37.9404L882.657 45.8789L804.822 142.051L794.967 134.069Z" fill="white"/>
<path fill-rule="evenodd" clip-rule="evenodd" d="M730.681 134.069L808.567 37.9404L818.371 45.8789L740.536 142.051L730.681 134.069Z" fill="white"/>
<path fill-rule="evenodd" clip-rule="evenodd" d="M666.395 134.069L744.282 37.9404L754.085 45.8789L676.25 142.051L666.395 134.069Z" fill="white"/>
<path fill-rule="evenodd" clip-rule="evenodd" d="M602.11 134.069L679.996 37.9404L689.8 45.8789L611.965 142.051L602.11 134.069Z" fill="white"/>
<path fill-rule="evenodd" clip-rule="evenodd" d="M537.824 134.069L615.71 37.9404L625.514 45.8789L547.679 142.051L537.824 134.069Z" fill="white"/>
<path fill-rule="evenodd" clip-rule="evenodd" d="M473.54 134.069L551.427 37.9404L561.23 45.8789L483.395 142.051L473.54 134.069Z" fill="white"/>
<path fill-rule="evenodd" clip-rule="evenodd" d="M409.255 134.069L487.141 37.9404L496.945 45.8789L419.11 142.051L409.255 134.069Z" fill="white"/>
<path fill-rule="evenodd" clip-rule="evenodd" d="M344.969 134.069L422.855 37.9404L432.659 45.8789L354.824 142.051L344.969 134.069Z" fill="white"/>
<path fill-rule="evenodd" clip-rule="evenodd" d="M280.683 134.069L358.57 37.9404L368.373 45.8789L290.538 142.051L280.683 134.069Z" fill="white"/>
<path fill-rule="evenodd" clip-rule="evenodd" d="M216.397 134.069L294.284 37.9404L304.087 45.8789L226.252 142.051L216.397 134.069Z" fill="white"/>
<path fill-rule="evenodd" clip-rule="evenodd" d="M152.11 134.069L229.997 37.9404L239.801 45.8789L161.966 142.051L152.11 134.069Z" fill="white"/>
<path fill-rule="evenodd" clip-rule="evenodd" d="M87.8239 134.069L165.711 37.9404L175.515 45.8789L97.68 142.051L87.8239 134.069Z" fill="white"/>
<path fill-rule="evenodd" clip-rule="evenodd" d="M23.5382 134.069L101.426 37.9404L111.229 45.8789L33.3943 142.051L23.5382 134.069Z" fill="white"/>
<path fill-rule="evenodd" clip-rule="evenodd" d="M-40.7475 134.069L37.14 37.9404L46.9432 45.8789L-30.8914 142.051L-40.7475 134.069Z" fill="white"/>
<path fill-rule="evenodd" clip-rule="evenodd" d="M1820.38 1.40233L1843.39 -27.002L1846.29 -24.6564L1823.29 3.76069L1820.38 1.40233Z" fill="white"/>
<path fill-rule="evenodd" clip-rule="evenodd" d="M1751.77 6.23237L1778.66 -26.9558L1782.05 -24.2151L1755.18 8.98789L1751.77 6.23237Z" fill="white"/>
<path fill-rule="evenodd" clip-rule="evenodd" d="M1683.17 11.0627L1713.94 -26.9092L1717.81 -23.7735L1687.06 14.2154L1683.17 11.0627Z" fill="white"/>
<path fill-rule="evenodd" clip-rule="evenodd" d="M1614.57 15.8929L1649.21 -26.8628L1653.57 -23.332L1618.95 19.4428L1614.57 15.8929Z" fill="white"/>
<path fill-rule="evenodd" clip-rule="evenodd" d="M1545.97 20.7227L1584.48 -26.8167L1589.33 -22.8909L1550.84 24.6698L1545.97 20.7227Z" fill="white"/>
<path fill-rule="evenodd" clip-rule="evenodd" d="M1477.36 25.5529L1519.75 -26.7703L1525.09 -22.4492L1482.72 29.8972L1477.36 25.5529Z" fill="white"/>
<path fill-rule="evenodd" clip-rule="evenodd" d="M1408.76 30.3833L1455.03 -26.7236L1460.85 -22.0076L1414.61 35.1248L1408.76 30.3833Z" fill="white"/>
<path fill-rule="evenodd" clip-rule="evenodd" d="M1340.15 35.2134L1390.3 -26.6775L1396.61 -21.5663L1346.5 40.3519L1340.15 35.2134Z" fill="white"/>
<path fill-rule="evenodd" clip-rule="evenodd" d="M1271.55 40.0437L1325.57 -26.6309L1332.37 -21.1248L1278.39 45.5793L1271.55 40.0437Z" fill="white"/>
<path fill-rule="evenodd" clip-rule="evenodd" d="M1202.95 44.8738L1260.84 -26.5845L1268.13 -20.6833L1210.27 50.807L1202.95 44.8738Z" fill="white"/>
<path fill-rule="evenodd" clip-rule="evenodd" d="M1134.34 49.7039L1196.12 -26.5381L1203.89 -20.2419L1142.16 56.0341L1134.34 49.7039Z" fill="white"/>
<path fill-rule="evenodd" clip-rule="evenodd" d="M1065.74 54.5342L1131.39 -26.4917L1139.65 -19.8004L1074.05 61.2615L1065.74 54.5342Z" fill="white"/>
<path fill-rule="evenodd" clip-rule="evenodd" d="M997.138 59.3643L1066.66 -26.4453L1075.41 -19.3591L1005.94 66.4887L997.138 59.3643Z" fill="white"/>
<path fill-rule="evenodd" clip-rule="evenodd" d="M928.533 64.1942L1001.93 -26.3989L1011.17 -18.9177L937.823 71.7161L928.533 64.1942Z" fill="white"/>
<path fill-rule="evenodd" clip-rule="evenodd" d="M859.93 69.0245L937.208 -26.3525L946.935 -18.4762L869.71 76.9435L859.93 69.0245Z" fill="white"/>
<path fill-rule="evenodd" clip-rule="evenodd" d="M794.967 69.7836L872.853 -26.3452L882.657 -18.4068L804.822 77.7649L794.967 69.7836Z" fill="white"/>
<path fill-rule="evenodd" clip-rule="evenodd" d="M730.681 69.7836L808.567 -26.3452L818.371 -18.4068L740.536 77.7649L730.681 69.7836Z" fill="white"/>
<path fill-rule="evenodd" clip-rule="evenodd" d="M666.395 69.7836L744.282 -26.3452L754.085 -18.4068L676.25 77.7649L666.395 69.7836Z" fill="white"/>
<path fill-rule="evenodd" clip-rule="evenodd" d="M602.11 69.7836L679.996 -26.3452L689.8 -18.4068L611.965 77.7649L602.11 69.7836Z" fill="white"/>
<path fill-rule="evenodd" clip-rule="evenodd" d="M537.824 69.7836L615.71 -26.3452L625.514 -18.4068L547.679 77.7649L537.824 69.7836Z" fill="white"/>
<path fill-rule="evenodd" clip-rule="evenodd" d="M473.54 69.7836L551.427 -26.3452L561.23 -18.4068L483.395 77.7649L473.54 69.7836Z" fill="white"/>
<path fill-rule="evenodd" clip-rule="evenodd" d="M409.255 69.7836L487.141 -26.3452L496.945 -18.4068L419.11 77.7649L409.255 69.7836Z" fill="white"/>
<path fill-rule="evenodd" clip-rule="evenodd" d="M344.969 69.7836L422.855 -26.3452L432.659 -18.4068L354.824 77.7649L344.969 69.7836Z" fill="white"/>
<path fill-rule="evenodd" clip-rule="evenodd" d="M280.683 69.7836L358.57 -26.3452L368.373 -18.4068L290.538 77.7649L280.683 69.7836Z" fill="white"/>
<path fill-rule="evenodd" clip-rule="evenodd" d="M216.397 69.7836L294.284 -26.3452L304.087 -18.4068L226.252 77.7649L216.397 69.7836Z" fill="white"/>
<path fill-rule="evenodd" clip-rule="evenodd" d="M152.11 69.7836L229.997 -26.3452L239.801 -18.4068L161.966 77.7649L152.11 69.7836Z" fill="white"/>
<path fill-rule="evenodd" clip-rule="evenodd" d="M87.8239 69.7836L165.711 -26.3452L175.515 -18.4068L97.68 77.7649L87.8239 69.7836Z" fill="white"/>
<path fill-rule="evenodd" clip-rule="evenodd" d="M23.5382 69.7836L101.426 -26.3452L111.229 -18.4068L33.3943 77.7649L23.5382 69.7836Z" fill="white"/>
<path fill-rule="evenodd" clip-rule="evenodd" d="M-40.7475 69.7836L37.14 -26.3452L46.9432 -18.4068L-30.8914 77.7649L-40.7475 69.7836Z" fill="white"/>
</g>
<defs>
<clipPath id="clip0_1_14639">
<rect width="1920" height="1080" fill="white"/>
</clipPath>
</defs>
</svg>
