<svg xmlns="http://www.w3.org/2000/svg" width="360" height="720" viewBox="0 0 360 720" role="img" aria-label="App Oberflaeche schematisch">
  <rect width="360" height="720" fill="#e4e9ed"/>
  <rect x="14" y="18" width="332" height="684" rx="28" fill="#ffffff" stroke="#ccd3db" stroke-width="1"/>
  <rect x="36" y="44" width="288" height="10" rx="3" fill="#ccd3db"/>
  <rect x="36" y="72" width="120" height="14" rx="4" fill="#5c6570" opacity="0.35"/>
  <rect x="304" y="72" width="20" height="20" rx="5" fill="#edf0f3" stroke="#ccd3db"/>
  <rect x="36" y="112" width="288" height="360" rx="12" fill="#f6f8f9" stroke="#ccd3db"/>
  <rect x="52" y="132" width="200" height="8" rx="2" fill="#ccd3db"/>
  <rect x="52" y="154" width="256" height="52" rx="8" fill="#ffffff" stroke="#ccd3db"/>
  <rect x="64" y="170" width="120" height="6" rx="2" fill="#ccd3db"/>
  <rect x="64" y="184" width="80" height="5" rx="2" fill="#ccd3db" opacity="0.65"/>
  <rect x="52" y="218" width="256" height="52" rx="8" fill="#ffffff" stroke="#ccd3db"/>
  <rect x="64" y="234" width="100" height="6" rx="2" fill="#ccd3db"/>
  <rect x="64" y="248" width="90" height="5" rx="2" fill="#ccd3db" opacity="0.65"/>
  <rect x="52" y="282" width="256" height="52" rx="8" fill="#ffffff" stroke="#ccd3db"/>
  <rect x="52" y="492" width="256" height="6" rx="2" fill="#ccd3db" opacity="0.45"/>
  <rect x="52" y="506" width="170" height="6" rx="2" fill="#ccd3db" opacity="0.3"/>
  <rect x="52" y="520" width="200" height="6" rx="2" fill="#ccd3db" opacity="0.3"/>
</svg>
