<svg width="1920" height="1080" viewBox="0 0 1920 1080" fill="none" xmlns="http://www.w3.org/2000/svg">
<g clip-path="url(#clip0_1_15151)">
<path d="M1920 0H-0.00012207V1080H1920V0Z" fill="black"/>
<path fill-rule="evenodd" clip-rule="evenodd" d="M6.13499 57.4231L0.628163 64.2196L-0.0649414 63.6584L5.43814 56.8589L6.13499 57.4231Z" fill="white"/>
<path fill-rule="evenodd" clip-rule="evenodd" d="M70.1723 57.7004L64.888 64.2224L64.2229 63.6837L69.5035 57.1589L70.1723 57.7004Z" fill="white"/>
<path fill-rule="evenodd" clip-rule="evenodd" d="M134.21 57.9778L129.148 64.2251L128.511 63.7093L133.569 57.459L134.21 57.9778Z" fill="white"/>
<path fill-rule="evenodd" clip-rule="evenodd" d="M198.249 58.2551L193.41 64.2279L192.801 63.7346L197.637 57.759L198.249 58.2551Z" fill="white"/>
<path fill-rule="evenodd" clip-rule="evenodd" d="M262.287 58.532L257.669 64.2303L257.088 63.7597L261.702 58.0591L262.287 58.532Z" fill="white"/>
<path fill-rule="evenodd" clip-rule="evenodd" d="M326.324 58.8093L321.931 64.2331L321.376 63.7851L325.769 58.3591L326.324 58.8093Z" fill="white"/>
<path fill-rule="evenodd" clip-rule="evenodd" d="M390.363 59.0867L386.191 64.2358L385.666 63.8106L389.834 58.6592L390.363 59.0867Z" fill="white"/>
<path fill-rule="evenodd" clip-rule="evenodd" d="M454.4 59.364L450.451 64.2384L449.954 63.8359L453.901 58.9592L454.4 59.364Z" fill="white"/>
<path fill-rule="evenodd" clip-rule="evenodd" d="M518.437 59.6413L514.711 64.2412L514.242 63.8613L517.966 59.2593L518.437 59.6413Z" fill="white"/>
<path fill-rule="evenodd" clip-rule="evenodd" d="M582.477 59.9185L578.971 64.2438L578.53 63.8866L582.033 59.5593L582.477 59.9185Z" fill="white"/>
<path fill-rule="evenodd" clip-rule="evenodd" d="M646.514 60.1958L643.231 64.2467L642.819 63.912L646.098 59.8596L646.514 60.1958Z" fill="white"/>
<path fill-rule="evenodd" clip-rule="evenodd" d="M710.551 60.4727L707.493 64.2488L707.107 63.937L710.165 60.1592L710.551 60.4727Z" fill="white"/>
<path fill-rule="evenodd" clip-rule="evenodd" d="M774.59 60.75L771.753 64.2517L771.395 63.9624L774.23 60.4592L774.59 60.75Z" fill="white"/>
<path fill-rule="evenodd" clip-rule="evenodd" d="M838.627 61.0273L836.013 64.2543L835.683 63.9877L838.297 60.7593L838.627 61.0273Z" fill="white"/>
<path fill-rule="evenodd" clip-rule="evenodd" d="M902.666 61.3045L900.273 64.2569L899.973 64.0133L902.362 61.0593L902.666 61.3045Z" fill="white"/>
<path fill-rule="evenodd" clip-rule="evenodd" d="M966.703 61.5818L964.533 64.2597L964.26 64.0386L966.429 61.3594L966.703 61.5818Z" fill="white"/>
<path fill-rule="evenodd" clip-rule="evenodd" d="M1030.74 61.8592L1028.79 64.2624L1028.55 64.064L1030.49 61.6597L1030.74 61.8592Z" fill="white"/>
<path fill-rule="evenodd" clip-rule="evenodd" d="M1094.79 62.1286L1093.05 64.2648L1092.84 64.0885L1094.57 61.9514L1094.79 62.1286Z" fill="white"/>
<path fill-rule="evenodd" clip-rule="evenodd" d="M1159.07 62.1288L1157.34 64.2648L1157.12 64.0885L1158.85 61.9514L1159.07 62.1288Z" fill="white"/>
<path fill-rule="evenodd" clip-rule="evenodd" d="M1223.36 62.1288L1221.63 64.2648L1221.41 64.0885L1223.14 61.9514L1223.36 62.1288Z" fill="white"/>
<path fill-rule="evenodd" clip-rule="evenodd" d="M1287.64 62.1288L1285.91 64.2648L1285.69 64.0885L1287.42 61.9514L1287.64 62.1288Z" fill="white"/>
<path fill-rule="evenodd" clip-rule="evenodd" d="M1351.93 62.1288L1350.2 64.2648L1349.98 64.0885L1351.71 61.9514L1351.93 62.1288Z" fill="white"/>
<path fill-rule="evenodd" clip-rule="evenodd" d="M1416.21 62.1288L1414.48 64.2648L1414.26 64.0885L1415.99 61.9514L1416.21 62.1288Z" fill="white"/>
<path fill-rule="evenodd" clip-rule="evenodd" d="M1480.5 62.1288L1478.77 64.2648L1478.55 64.0885L1480.28 61.9514L1480.5 62.1288Z" fill="white"/>
<path fill-rule="evenodd" clip-rule="evenodd" d="M1544.79 62.1288L1543.05 64.2648L1542.84 64.0885L1544.57 61.9514L1544.79 62.1288Z" fill="white"/>
<path fill-rule="evenodd" clip-rule="evenodd" d="M1609.07 62.1288L1607.34 64.2648L1607.12 64.0885L1608.85 61.9514L1609.07 62.1288Z" fill="white"/>
<path fill-rule="evenodd" clip-rule="evenodd" d="M1673.36 62.1288L1671.63 64.2648L1671.41 64.0885L1673.14 61.9514L1673.36 62.1288Z" fill="white"/>
<path fill-rule="evenodd" clip-rule="evenodd" d="M1737.64 62.1288L1735.91 64.2648L1735.69 64.0885L1737.42 61.9514L1737.64 62.1288Z" fill="white"/>
<path fill-rule="evenodd" clip-rule="evenodd" d="M1801.93 62.1288L1800.2 64.2648L1799.98 64.0885L1801.71 61.9514L1801.93 62.1288Z" fill="white"/>
<path fill-rule="evenodd" clip-rule="evenodd" d="M1866.21 62.1288L1864.48 64.2648L1864.26 64.0885L1865.99 61.9514L1866.21 62.1288Z" fill="white"/>
<path fill-rule="evenodd" clip-rule="evenodd" d="M13.2323 113.77L1.35458 128.429L-0.140381 127.219L11.7292 112.553L13.2323 113.77Z" fill="white"/>
<path fill-rule="evenodd" clip-rule="evenodd" d="M77.2697 114.047L65.6145 128.432L64.1475 127.244L75.7947 112.853L77.2697 114.047Z" fill="white"/>
<path fill-rule="evenodd" clip-rule="evenodd" d="M141.307 114.324L129.874 128.434L128.435 127.269L139.86 113.153L141.307 114.324Z" fill="white"/>
<path fill-rule="evenodd" clip-rule="evenodd" d="M205.344 114.601L194.134 128.437L192.723 127.295L203.926 113.453L205.344 114.601Z" fill="white"/>
<path fill-rule="evenodd" clip-rule="evenodd" d="M269.384 114.879L258.395 128.44L257.013 127.32L267.993 113.753L269.384 114.879Z" fill="white"/>
<path fill-rule="evenodd" clip-rule="evenodd" d="M333.421 115.156L322.655 128.443L321.301 127.345L332.058 114.053L333.421 115.156Z" fill="white"/>
<path fill-rule="evenodd" clip-rule="evenodd" d="M397.458 115.433L386.915 128.445L385.589 127.371L396.125 114.353L397.458 115.433Z" fill="white"/>
<path fill-rule="evenodd" clip-rule="evenodd" d="M461.497 115.71L451.177 128.448L449.876 127.396L460.19 114.653L461.497 115.71Z" fill="white"/>
<path fill-rule="evenodd" clip-rule="evenodd" d="M525.534 115.988L515.437 128.451L514.166 127.421L524.257 114.953L525.534 115.988Z" fill="white"/>
<path fill-rule="evenodd" clip-rule="evenodd" d="M589.571 116.265L579.697 128.453L578.454 127.447L588.322 115.253L589.571 116.265Z" fill="white"/>
<path fill-rule="evenodd" clip-rule="evenodd" d="M653.61 116.542L643.957 128.456L642.742 127.472L652.389 115.553L653.61 116.542Z" fill="white"/>
<path fill-rule="evenodd" clip-rule="evenodd" d="M717.648 116.819L708.217 128.459L707.03 127.498L716.454 115.853L717.648 116.819Z" fill="white"/>
<path fill-rule="evenodd" clip-rule="evenodd" d="M781.685 117.097L772.477 128.461L771.32 127.523L780.521 116.153L781.685 117.097Z" fill="white"/>
<path fill-rule="evenodd" clip-rule="evenodd" d="M845.724 117.374L836.739 128.464L835.607 127.548L844.586 116.453L845.724 117.374Z" fill="white"/>
<path fill-rule="evenodd" clip-rule="evenodd" d="M909.761 117.651L900.999 128.466L899.895 127.573L908.653 116.753L909.761 117.651Z" fill="white"/>
<path fill-rule="evenodd" clip-rule="evenodd" d="M973.8 117.928L965.259 128.469L964.183 127.599L972.718 117.053L973.8 117.928Z" fill="white"/>
<path fill-rule="evenodd" clip-rule="evenodd" d="M1037.84 118.205L1029.52 128.472L1028.47 127.624L1036.79 117.353L1037.84 118.205Z" fill="white"/>
<path fill-rule="evenodd" clip-rule="evenodd" d="M1101.87 118.483L1093.78 128.475L1092.76 127.649L1100.85 117.653L1101.87 118.483Z" fill="white"/>
<path fill-rule="evenodd" clip-rule="evenodd" d="M1165.91 118.76L1158.04 128.477L1157.05 127.675L1164.92 117.953L1165.91 118.76Z" fill="white"/>
<path fill-rule="evenodd" clip-rule="evenodd" d="M1229.95 119.037L1222.3 128.48L1221.34 127.7L1228.98 118.253L1229.95 119.037Z" fill="white"/>
<path fill-rule="evenodd" clip-rule="evenodd" d="M1293.99 119.315L1286.56 128.483L1285.62 127.726L1293.05 118.553L1293.99 119.315Z" fill="white"/>
<path fill-rule="evenodd" clip-rule="evenodd" d="M1358.03 119.592L1350.82 128.485L1349.92 127.751L1357.12 118.854L1358.03 119.592Z" fill="white"/>
<path fill-rule="evenodd" clip-rule="evenodd" d="M1422.06 119.869L1415.08 128.488L1414.2 127.776L1421.18 119.154L1422.06 119.869Z" fill="white"/>
<path fill-rule="evenodd" clip-rule="evenodd" d="M1486.1 120.146L1479.34 128.49L1478.49 127.802L1485.25 119.454L1486.1 120.146Z" fill="white"/>
<path fill-rule="evenodd" clip-rule="evenodd" d="M1550.14 120.424L1543.6 128.493L1542.78 127.827L1549.32 119.754L1550.14 120.424Z" fill="white"/>
<path fill-rule="evenodd" clip-rule="evenodd" d="M1614.18 120.701L1607.86 128.496L1607.07 127.852L1613.38 120.054L1614.18 120.701Z" fill="white"/>
<path fill-rule="evenodd" clip-rule="evenodd" d="M1678.22 120.978L1672.12 128.499L1671.36 127.878L1677.45 120.354L1678.22 120.978Z" fill="white"/>
<path fill-rule="evenodd" clip-rule="evenodd" d="M1742.26 121.255L1736.38 128.501L1735.65 127.903L1741.51 120.654L1742.26 121.255Z" fill="white"/>
<path fill-rule="evenodd" clip-rule="evenodd" d="M1806.29 121.532L1800.64 128.504L1799.93 127.928L1805.58 120.954L1806.29 121.532Z" fill="white"/>
<path fill-rule="evenodd" clip-rule="evenodd" d="M1870.33 121.81L1864.9 128.506L1864.22 127.953L1869.64 121.254L1870.33 121.81Z" fill="white"/>
<path fill-rule="evenodd" clip-rule="evenodd" d="M20.3275 170.116L2.07903 192.639L-0.217773 190.779L18.0183 168.247L20.3275 170.116Z" fill="white"/>
<path fill-rule="evenodd" clip-rule="evenodd" d="M84.3649 170.394L66.3389 192.641L64.0701 190.804L82.0838 168.546L84.3649 170.394Z" fill="white"/>
<path fill-rule="evenodd" clip-rule="evenodd" d="M148.404 170.671L130.601 192.644L128.36 190.829L146.151 168.846L148.404 170.671Z" fill="white"/>
<path fill-rule="evenodd" clip-rule="evenodd" d="M212.441 170.948L194.86 192.647L192.648 190.855L210.217 169.146L212.441 170.948Z" fill="white"/>
<path fill-rule="evenodd" clip-rule="evenodd" d="M276.478 171.225L259.121 192.649L256.936 190.88L274.282 169.447L276.478 171.225Z" fill="white"/>
<path fill-rule="evenodd" clip-rule="evenodd" d="M340.518 171.502L323.381 192.652L321.223 190.905L338.349 169.747L340.518 171.502Z" fill="white"/>
<path fill-rule="evenodd" clip-rule="evenodd" d="M404.555 171.78L387.641 192.655L385.513 190.931L402.414 170.047L404.555 171.78Z" fill="white"/>
<path fill-rule="evenodd" clip-rule="evenodd" d="M468.592 172.057L451.901 192.657L449.801 190.956L466.481 170.347L468.592 172.057Z" fill="white"/>
<path fill-rule="evenodd" clip-rule="evenodd" d="M532.631 172.334L516.161 192.66L514.089 190.982L530.546 170.647L532.631 172.334Z" fill="white"/>
<path fill-rule="evenodd" clip-rule="evenodd" d="M596.668 172.612L580.423 192.663L578.377 191.007L594.613 170.947L596.668 172.612Z" fill="white"/>
<path fill-rule="evenodd" clip-rule="evenodd" d="M660.705 172.889L644.683 192.665L642.667 191.032L658.678 171.247L660.705 172.889Z" fill="white"/>
<path fill-rule="evenodd" clip-rule="evenodd" d="M724.744 173.166L708.943 192.668L706.954 191.058L722.745 171.547L724.744 173.166Z" fill="white"/>
<path fill-rule="evenodd" clip-rule="evenodd" d="M788.781 173.443L773.203 192.671L771.242 191.083L786.81 171.847L788.781 173.443Z" fill="white"/>
<path fill-rule="evenodd" clip-rule="evenodd" d="M852.819 173.721L837.463 192.673L835.53 191.108L850.877 172.147L852.819 173.721Z" fill="white"/>
<path fill-rule="evenodd" clip-rule="evenodd" d="M916.858 173.998L901.723 192.676L899.818 191.134L914.942 172.447L916.858 173.998Z" fill="white"/>
<path fill-rule="evenodd" clip-rule="evenodd" d="M980.895 174.275L965.985 192.679L964.108 191.159L979.009 172.747L980.895 174.275Z" fill="white"/>
<path fill-rule="evenodd" clip-rule="evenodd" d="M1044.93 174.552L1030.24 192.681L1028.4 191.184L1043.07 173.047L1044.93 174.552Z" fill="white"/>
<path fill-rule="evenodd" clip-rule="evenodd" d="M1108.97 174.829L1094.51 192.684L1092.69 191.209L1107.14 173.347L1108.97 174.829Z" fill="white"/>
<path fill-rule="evenodd" clip-rule="evenodd" d="M1173.01 175.107L1158.76 192.686L1156.97 191.235L1171.21 173.647L1173.01 175.107Z" fill="white"/>
<path fill-rule="evenodd" clip-rule="evenodd" d="M1237.05 175.384L1223.03 192.689L1221.26 191.26L1235.28 173.947L1237.05 175.384Z" fill="white"/>
<path fill-rule="evenodd" clip-rule="evenodd" d="M1301.09 175.661L1287.29 192.692L1285.55 191.286L1299.34 174.247L1301.09 175.661Z" fill="white"/>
<path fill-rule="evenodd" clip-rule="evenodd" d="M1365.12 175.939L1351.55 192.695L1349.84 191.311L1363.41 174.547L1365.12 175.939Z" fill="white"/>
<path fill-rule="evenodd" clip-rule="evenodd" d="M1429.16 176.216L1415.81 192.697L1414.13 191.336L1427.47 174.847L1429.16 176.216Z" fill="white"/>
<path fill-rule="evenodd" clip-rule="evenodd" d="M1493.2 176.493L1480.07 192.7L1478.42 191.362L1491.54 175.147L1493.2 176.493Z" fill="white"/>
<path fill-rule="evenodd" clip-rule="evenodd" d="M1557.24 176.77L1544.33 192.703L1542.7 191.387L1555.6 175.447L1557.24 176.77Z" fill="white"/>
<path fill-rule="evenodd" clip-rule="evenodd" d="M1621.28 177.047L1608.59 192.705L1606.99 191.412L1619.67 175.748L1621.28 177.047Z" fill="white"/>
<path fill-rule="evenodd" clip-rule="evenodd" d="M1685.31 177.325L1672.85 192.708L1671.28 191.438L1683.74 176.048L1685.31 177.325Z" fill="white"/>
<path fill-rule="evenodd" clip-rule="evenodd" d="M1749.35 177.602L1737.11 192.711L1735.57 191.463L1747.8 176.348L1749.35 177.602Z" fill="white"/>
<path fill-rule="evenodd" clip-rule="evenodd" d="M1813.39 177.879L1801.37 192.714L1799.86 191.488L1811.87 176.648L1813.39 177.879Z" fill="white"/>
<path fill-rule="evenodd" clip-rule="evenodd" d="M1877.43 178.156L1865.63 192.716L1864.15 191.513L1875.93 176.947L1877.43 178.156Z" fill="white"/>
<path fill-rule="evenodd" clip-rule="evenodd" d="M27.4248 226.463L2.80557 256.847L-0.293091 254.338L24.3095 223.939L27.4248 226.463Z" fill="white"/>
<path fill-rule="evenodd" clip-rule="evenodd" d="M91.4622 226.74L67.0653 256.851L63.9946 254.364L88.375 224.239L91.4622 226.74Z" fill="white"/>
<path fill-rule="evenodd" clip-rule="evenodd" d="M155.499 227.016L131.325 256.854L128.282 254.389L152.44 224.539L155.499 227.016Z" fill="white"/>
<path fill-rule="evenodd" clip-rule="evenodd" d="M219.538 227.295L195.585 256.856L192.57 254.415L216.506 224.839L219.538 227.295Z" fill="white"/>
<path fill-rule="evenodd" clip-rule="evenodd" d="M283.575 227.571L259.845 256.858L256.858 254.441L280.573 225.139L283.575 227.571Z" fill="white"/>
<path fill-rule="evenodd" clip-rule="evenodd" d="M347.612 227.85L324.105 256.862L321.148 254.466L344.638 225.439L347.612 227.85Z" fill="white"/>
<path fill-rule="evenodd" clip-rule="evenodd" d="M411.652 228.126L388.367 256.864L385.436 254.49L408.705 225.741L411.652 228.126Z" fill="white"/>
<path fill-rule="evenodd" clip-rule="evenodd" d="M475.689 228.403L452.627 256.866L449.724 254.516L472.77 226.041L475.689 228.403Z" fill="white"/>
<path fill-rule="evenodd" clip-rule="evenodd" d="M539.726 228.681L516.887 256.868L514.011 254.541L536.837 226.341L539.726 228.681Z" fill="white"/>
<path fill-rule="evenodd" clip-rule="evenodd" d="M603.765 228.958L581.147 256.873L578.301 254.567L600.902 226.641L603.765 228.958Z" fill="white"/>
<path fill-rule="evenodd" clip-rule="evenodd" d="M667.802 229.236L645.407 256.875L642.589 254.593L664.969 226.941L667.802 229.236Z" fill="white"/>
<path fill-rule="evenodd" clip-rule="evenodd" d="M731.839 229.513L709.667 256.877L706.877 254.619L729.034 227.241L731.839 229.513Z" fill="white"/>
<path fill-rule="evenodd" clip-rule="evenodd" d="M795.878 229.789L773.929 256.879L771.165 254.642L793.101 227.542L795.878 229.789Z" fill="white"/>
<path fill-rule="evenodd" clip-rule="evenodd" d="M859.918 230.068L838.191 256.884L835.457 254.668L857.168 227.842L859.918 230.068Z" fill="white"/>
<path fill-rule="evenodd" clip-rule="evenodd" d="M923.957 230.344L902.451 256.886L899.745 254.694L921.235 228.142L923.957 230.344Z" fill="white"/>
<path fill-rule="evenodd" clip-rule="evenodd" d="M987.994 230.621L966.711 256.888L964.032 254.719L985.3 228.441L987.994 230.621Z" fill="white"/>
<path fill-rule="evenodd" clip-rule="evenodd" d="M1052.03 230.899L1030.97 256.89L1028.32 254.745L1049.37 228.741L1052.03 230.899Z" fill="white"/>
<path fill-rule="evenodd" clip-rule="evenodd" d="M1116.07 231.176L1095.23 256.894L1092.61 254.771L1113.43 229.042L1116.07 231.176Z" fill="white"/>
<path fill-rule="evenodd" clip-rule="evenodd" d="M1180.11 231.454L1159.49 256.896L1156.9 254.794L1177.5 229.341L1180.11 231.454Z" fill="white"/>
<path fill-rule="evenodd" clip-rule="evenodd" d="M1244.14 231.731L1223.75 256.899L1221.19 254.82L1241.56 229.641L1244.14 231.731Z" fill="white"/>
<path fill-rule="evenodd" clip-rule="evenodd" d="M1308.18 232.007L1288.01 256.901L1285.47 254.846L1305.63 229.941L1308.18 232.007Z" fill="white"/>
<path fill-rule="evenodd" clip-rule="evenodd" d="M1372.22 232.286L1352.27 256.905L1349.76 254.871L1369.7 230.241L1372.22 232.286Z" fill="white"/>
<path fill-rule="evenodd" clip-rule="evenodd" d="M1436.26 232.562L1416.53 256.907L1414.05 254.897L1433.76 230.541L1436.26 232.562Z" fill="white"/>
<path fill-rule="evenodd" clip-rule="evenodd" d="M1500.3 232.838L1480.79 256.909L1478.34 254.921L1497.83 230.841L1500.3 232.838Z" fill="white"/>
<path fill-rule="evenodd" clip-rule="evenodd" d="M1564.33 233.117L1545.05 256.911L1542.63 254.946L1561.89 231.141L1564.33 233.117Z" fill="white"/>
<path fill-rule="evenodd" clip-rule="evenodd" d="M1628.37 233.394L1609.31 256.916L1606.92 254.972L1625.96 231.441L1628.37 233.394Z" fill="white"/>
<path fill-rule="evenodd" clip-rule="evenodd" d="M1692.41 233.672L1673.57 256.918L1671.2 254.998L1690.03 231.741L1692.41 233.672Z" fill="white"/>
<path fill-rule="evenodd" clip-rule="evenodd" d="M1756.45 233.949L1737.83 256.92L1735.49 255.024L1754.09 232.042L1756.45 233.949Z" fill="white"/>
<path fill-rule="evenodd" clip-rule="evenodd" d="M1820.48 234.225L1802.09 256.922L1799.78 255.049L1818.16 232.342L1820.48 234.225Z" fill="white"/>
<path fill-rule="evenodd" clip-rule="evenodd" d="M1884.52 234.504L1866.36 256.927L1864.07 255.073L1882.22 232.642L1884.52 234.504Z" fill="white"/>
<path fill-rule="evenodd" clip-rule="evenodd" d="M34.5202 282.81L3.53003 321.058L-0.370483 317.899L30.5986 279.634L34.5202 282.81Z" fill="white"/>
<path fill-rule="evenodd" clip-rule="evenodd" d="M98.5574 283.086L67.7898 321.06L63.9172 317.925L94.664 279.934L98.5574 283.086Z" fill="white"/>
<path fill-rule="evenodd" clip-rule="evenodd" d="M162.597 283.365L132.052 321.062L128.207 317.951L158.732 280.234L162.597 283.365Z" fill="white"/>
<path fill-rule="evenodd" clip-rule="evenodd" d="M226.634 283.642L196.312 321.067L192.495 317.974L222.798 280.534L226.634 283.642Z" fill="white"/>
<path fill-rule="evenodd" clip-rule="evenodd" d="M290.672 283.918L260.571 321.069L256.783 318L286.862 280.834L290.672 283.918Z" fill="white"/>
<path fill-rule="evenodd" clip-rule="evenodd" d="M354.709 284.196L324.831 321.071L321.071 318.026L350.929 281.134L354.709 284.196Z" fill="white"/>
<path fill-rule="evenodd" clip-rule="evenodd" d="M418.746 284.473L389.091 321.073L385.358 318.051L414.994 281.434L418.746 284.473Z" fill="white"/>
<path fill-rule="evenodd" clip-rule="evenodd" d="M482.788 284.749L453.353 321.077L449.65 318.077L479.063 281.734L482.788 284.749Z" fill="white"/>
<path fill-rule="evenodd" clip-rule="evenodd" d="M546.825 285.028L517.615 321.079L513.938 318.101L543.128 282.034L546.825 285.028Z" fill="white"/>
<path fill-rule="evenodd" clip-rule="evenodd" d="M610.862 285.304L581.875 321.081L578.226 318.126L607.195 282.334L610.862 285.304Z" fill="white"/>
<path fill-rule="evenodd" clip-rule="evenodd" d="M674.901 285.583L646.135 321.084L642.514 318.152L671.26 282.634L674.901 285.583Z" fill="white"/>
<path fill-rule="evenodd" clip-rule="evenodd" d="M738.938 285.859L710.395 321.088L706.804 318.178L735.327 282.934L738.938 285.859Z" fill="white"/>
<path fill-rule="evenodd" clip-rule="evenodd" d="M802.975 286.136L774.655 321.09L771.092 318.204L799.392 283.234L802.975 286.136Z" fill="white"/>
<path fill-rule="evenodd" clip-rule="evenodd" d="M867.014 286.414L838.915 321.092L835.379 318.229L863.459 283.534L867.014 286.414Z" fill="white"/>
<path fill-rule="evenodd" clip-rule="evenodd" d="M931.052 286.691L903.177 321.094L899.667 318.253L927.524 283.834L931.052 286.691Z" fill="white"/>
<path fill-rule="evenodd" clip-rule="evenodd" d="M995.091 286.967L967.437 321.099L963.957 318.279L991.591 284.134L995.091 286.967Z" fill="white"/>
<path fill-rule="evenodd" clip-rule="evenodd" d="M1059.13 287.246L1031.7 321.101L1028.24 318.304L1055.66 284.434L1059.13 287.246Z" fill="white"/>
<path fill-rule="evenodd" clip-rule="evenodd" d="M1123.16 287.522L1095.96 321.103L1092.53 318.33L1119.72 284.734L1123.16 287.522Z" fill="white"/>
<path fill-rule="evenodd" clip-rule="evenodd" d="M1187.2 287.801L1160.22 321.105L1156.82 318.356L1183.79 285.034L1187.2 287.801Z" fill="white"/>
<path fill-rule="evenodd" clip-rule="evenodd" d="M1251.24 288.077L1224.48 321.107L1221.11 318.381L1247.85 285.334L1251.24 288.077Z" fill="white"/>
<path fill-rule="evenodd" clip-rule="evenodd" d="M1315.28 288.354L1288.74 321.111L1285.4 318.405L1311.92 285.634L1315.28 288.354Z" fill="white"/>
<path fill-rule="evenodd" clip-rule="evenodd" d="M1379.32 288.632L1353 321.114L1349.69 318.431L1375.99 285.934L1379.32 288.632Z" fill="white"/>
<path fill-rule="evenodd" clip-rule="evenodd" d="M1443.35 288.909L1417.26 321.116L1413.97 318.457L1440.05 286.234L1443.35 288.909Z" fill="white"/>
<path fill-rule="evenodd" clip-rule="evenodd" d="M1507.39 289.187L1481.52 321.118L1478.26 318.482L1504.12 286.534L1507.39 289.187Z" fill="white"/>
<path fill-rule="evenodd" clip-rule="evenodd" d="M1571.43 289.463L1545.78 321.122L1542.55 318.508L1568.18 286.834L1571.43 289.463Z" fill="white"/>
<path fill-rule="evenodd" clip-rule="evenodd" d="M1635.47 289.74L1610.04 321.124L1606.84 318.531L1632.25 287.134L1635.47 289.74Z" fill="white"/>
<path fill-rule="evenodd" clip-rule="evenodd" d="M1699.5 290.019L1674.3 321.126L1671.13 318.557L1696.32 287.434L1699.5 290.019Z" fill="white"/>
<path fill-rule="evenodd" clip-rule="evenodd" d="M1763.54 290.295L1738.56 321.129L1735.42 318.583L1760.38 287.734L1763.54 290.295Z" fill="white"/>
<path fill-rule="evenodd" clip-rule="evenodd" d="M1827.58 290.572L1802.82 321.133L1799.7 318.609L1824.45 288.034L1827.58 290.572Z" fill="white"/>
<path fill-rule="evenodd" clip-rule="evenodd" d="M1891.62 290.85L1867.08 321.135L1863.99 318.634L1888.51 288.334L1891.62 290.85Z" fill="white"/>
<path fill-rule="evenodd" clip-rule="evenodd" d="M41.6176 339.156L4.25654 385.266L-0.445801 381.459L36.8899 335.327L41.6176 339.156Z" fill="white"/>
<path fill-rule="evenodd" clip-rule="evenodd" d="M105.655 339.433L68.5165 385.271L63.842 381.484L100.955 335.627L105.655 339.433Z" fill="white"/>
<path fill-rule="evenodd" clip-rule="evenodd" d="M169.692 339.712L132.776 385.273L128.13 381.51L165.021 335.927L169.692 339.712Z" fill="white"/>
<path fill-rule="evenodd" clip-rule="evenodd" d="M233.732 339.988L197.038 385.275L192.42 381.536L229.088 336.227L233.732 339.988Z" fill="white"/>
<path fill-rule="evenodd" clip-rule="evenodd" d="M297.769 340.264L261.298 385.277L256.708 381.561L293.155 336.527L297.769 340.264Z" fill="white"/>
<path fill-rule="evenodd" clip-rule="evenodd" d="M361.808 340.543L325.559 385.281L320.997 381.585L357.22 336.827L361.808 340.543Z" fill="white"/>
<path fill-rule="evenodd" clip-rule="evenodd" d="M425.845 340.819L389.819 385.284L385.285 381.611L421.287 337.127L425.845 340.819Z" fill="white"/>
<path fill-rule="evenodd" clip-rule="evenodd" d="M489.882 341.096L454.079 385.286L449.573 381.637L485.352 337.427L489.882 341.096Z" fill="white"/>
<path fill-rule="evenodd" clip-rule="evenodd" d="M553.922 341.374L518.339 385.288L513.861 381.662L549.417 337.727L553.922 341.374Z" fill="white"/>
<path fill-rule="evenodd" clip-rule="evenodd" d="M617.958 341.651L582.599 385.29L578.151 381.688L613.484 338.027L617.958 341.651Z" fill="white"/>
<path fill-rule="evenodd" clip-rule="evenodd" d="M681.996 341.929L646.861 385.294L642.438 381.714L677.551 338.327L681.996 341.929Z" fill="white"/>
<path fill-rule="evenodd" clip-rule="evenodd" d="M746.035 342.206L711.121 385.296L706.726 381.737L741.616 338.627L746.035 342.206Z" fill="white"/>
<path fill-rule="evenodd" clip-rule="evenodd" d="M810.072 342.482L775.381 385.299L771.014 381.763L805.681 338.927L810.072 342.482Z" fill="white"/>
<path fill-rule="evenodd" clip-rule="evenodd" d="M874.109 342.761L839.641 385.301L835.302 381.789L869.748 339.227L874.109 342.761Z" fill="white"/>
<path fill-rule="evenodd" clip-rule="evenodd" d="M938.148 343.037L903.901 385.305L899.592 381.814L933.813 339.527L938.148 343.037Z" fill="white"/>
<path fill-rule="evenodd" clip-rule="evenodd" d="M1002.19 343.315L968.161 385.307L963.88 381.84L997.88 339.827L1002.19 343.315Z" fill="white"/>
<path fill-rule="evenodd" clip-rule="evenodd" d="M1066.22 343.592L1032.42 385.309L1028.17 381.863L1061.95 340.127L1066.22 343.592Z" fill="white"/>
<path fill-rule="evenodd" clip-rule="evenodd" d="M1130.26 343.868L1096.68 385.311L1092.46 381.889L1126.01 340.429L1130.26 343.868Z" fill="white"/>
<path fill-rule="evenodd" clip-rule="evenodd" d="M1194.3 344.147L1160.94 385.316L1156.75 381.915L1190.08 340.729L1194.3 344.147Z" fill="white"/>
<path fill-rule="evenodd" clip-rule="evenodd" d="M1258.34 344.424L1225.2 385.318L1221.03 381.941L1254.14 341.029L1258.34 344.424Z" fill="white"/>
<path fill-rule="evenodd" clip-rule="evenodd" d="M1322.38 344.7L1289.46 385.32L1285.32 381.966L1318.21 341.329L1322.38 344.7Z" fill="white"/>
<path fill-rule="evenodd" clip-rule="evenodd" d="M1386.41 344.979L1353.72 385.322L1349.61 381.992L1382.28 341.629L1386.41 344.979Z" fill="white"/>
<path fill-rule="evenodd" clip-rule="evenodd" d="M1450.45 345.255L1417.98 385.326L1413.9 382.016L1446.34 341.929L1450.45 345.255Z" fill="white"/>
<path fill-rule="evenodd" clip-rule="evenodd" d="M1514.49 345.534L1482.24 385.329L1478.19 382.041L1510.41 342.229L1514.49 345.534Z" fill="white"/>
<path fill-rule="evenodd" clip-rule="evenodd" d="M1578.53 345.81L1546.5 385.331L1542.47 382.067L1574.47 342.529L1578.53 345.81Z" fill="white"/>
<path fill-rule="evenodd" clip-rule="evenodd" d="M1642.56 346.086L1610.76 385.333L1606.76 382.093L1638.54 342.829L1642.56 346.086Z" fill="white"/>
<path fill-rule="evenodd" clip-rule="evenodd" d="M1706.6 346.365L1675.02 385.337L1671.05 382.118L1702.61 343.129L1706.6 346.365Z" fill="white"/>
<path fill-rule="evenodd" clip-rule="evenodd" d="M1770.64 346.641L1739.28 385.339L1735.34 382.144L1766.67 343.429L1770.64 346.641Z" fill="white"/>
<path fill-rule="evenodd" clip-rule="evenodd" d="M1834.68 346.918L1803.55 385.341L1799.63 382.168L1830.74 343.729L1834.68 346.918Z" fill="white"/>
<path fill-rule="evenodd" clip-rule="evenodd" d="M1898.72 347.196L1867.81 385.344L1863.92 382.194L1894.8 344.029L1898.72 347.196Z" fill="white"/>
<path fill-rule="evenodd" clip-rule="evenodd" d="M48.7127 395.503L4.98091 449.477L-0.523315 445.02L43.1788 391.022L48.7127 395.503Z" fill="white"/>
<path fill-rule="evenodd" clip-rule="evenodd" d="M112.752 395.779L69.2429 449.479L63.7666 445.043L107.246 391.322L112.752 395.779Z" fill="white"/>
<path fill-rule="evenodd" clip-rule="evenodd" d="M176.789 396.058L133.503 449.481L128.054 445.069L171.312 391.622L176.789 396.058Z" fill="white"/>
<path fill-rule="evenodd" clip-rule="evenodd" d="M240.828 396.334L197.763 449.484L192.342 445.095L235.376 391.922L240.828 396.334Z" fill="white"/>
<path fill-rule="evenodd" clip-rule="evenodd" d="M304.866 396.611L262.024 449.488L256.632 445.121L299.444 392.222L304.866 396.611Z" fill="white"/>
<path fill-rule="evenodd" clip-rule="evenodd" d="M368.903 396.889L326.284 449.49L320.92 445.146L363.509 392.522L368.903 396.889Z" fill="white"/>
<path fill-rule="evenodd" clip-rule="evenodd" d="M432.942 397.166L390.543 449.492L385.208 445.172L427.576 392.822L432.942 397.166Z" fill="white"/>
<path fill-rule="evenodd" clip-rule="evenodd" d="M496.979 397.444L454.806 449.494L449.496 445.196L491.641 393.122L496.979 397.444Z" fill="white"/>
<path fill-rule="evenodd" clip-rule="evenodd" d="M561.016 397.721L519.065 449.499L513.785 445.222L555.708 393.422L561.016 397.721Z" fill="white"/>
<path fill-rule="evenodd" clip-rule="evenodd" d="M625.055 397.997L583.325 449.501L578.073 445.247L619.773 393.722L625.055 397.997Z" fill="white"/>
<path fill-rule="evenodd" clip-rule="evenodd" d="M689.092 398.276L647.585 449.503L642.361 445.273L683.84 394.022L689.092 398.276Z" fill="white"/>
<path fill-rule="evenodd" clip-rule="evenodd" d="M753.13 398.552L711.845 449.505L706.649 445.298L747.905 394.322L753.13 398.552Z" fill="white"/>
<path fill-rule="evenodd" clip-rule="evenodd" d="M817.169 398.828L776.105 449.509L770.939 445.324L811.972 394.622L817.169 398.828Z" fill="white"/>
<path fill-rule="evenodd" clip-rule="evenodd" d="M881.206 399.107L840.367 449.511L835.227 445.348L876.037 394.922L881.206 399.107Z" fill="white"/>
<path fill-rule="evenodd" clip-rule="evenodd" d="M945.245 399.384L904.627 449.514L899.514 445.374L940.104 395.222L945.245 399.384Z" fill="white"/>
<path fill-rule="evenodd" clip-rule="evenodd" d="M1009.28 399.662L968.887 449.516L963.802 445.399L1004.17 395.522L1009.28 399.662Z" fill="white"/>
<path fill-rule="evenodd" clip-rule="evenodd" d="M1073.32 399.939L1033.15 449.52L1028.09 445.425L1068.24 395.822L1073.32 399.939Z" fill="white"/>
<path fill-rule="evenodd" clip-rule="evenodd" d="M1137.36 400.215L1097.41 449.522L1092.38 445.451L1132.3 396.122L1137.36 400.215Z" fill="white"/>
<path fill-rule="evenodd" clip-rule="evenodd" d="M1201.4 400.494L1161.67 449.524L1156.67 445.476L1196.37 396.422L1201.4 400.494Z" fill="white"/>
<path fill-rule="evenodd" clip-rule="evenodd" d="M1265.43 400.77L1225.93 449.526L1220.96 445.5L1260.43 396.722L1265.43 400.77Z" fill="white"/>
<path fill-rule="evenodd" clip-rule="evenodd" d="M1329.47 401.046L1290.19 449.531L1285.25 445.526L1324.5 397.022L1329.47 401.046Z" fill="white"/>
<path fill-rule="evenodd" clip-rule="evenodd" d="M1393.51 401.325L1354.45 449.533L1349.53 445.551L1388.57 397.322L1393.51 401.325Z" fill="white"/>
<path fill-rule="evenodd" clip-rule="evenodd" d="M1457.55 401.601L1418.71 449.535L1413.82 445.577L1452.63 397.622L1457.55 401.601Z" fill="white"/>
<path fill-rule="evenodd" clip-rule="evenodd" d="M1521.59 401.88L1482.97 449.537L1478.11 445.603L1516.7 397.922L1521.59 401.88Z" fill="white"/>
<path fill-rule="evenodd" clip-rule="evenodd" d="M1585.62 402.156L1547.23 449.541L1542.4 445.626L1580.76 398.222L1585.62 402.156Z" fill="white"/>
<path fill-rule="evenodd" clip-rule="evenodd" d="M1649.66 402.433L1611.49 449.544L1606.69 445.652L1644.83 398.522L1649.66 402.433Z" fill="white"/>
<path fill-rule="evenodd" clip-rule="evenodd" d="M1713.7 402.711L1675.75 449.546L1670.97 445.678L1708.9 398.822L1713.7 402.711Z" fill="white"/>
<path fill-rule="evenodd" clip-rule="evenodd" d="M1777.74 402.988L1740.01 449.548L1735.26 445.703L1772.96 399.122L1777.74 402.988Z" fill="white"/>
<path fill-rule="evenodd" clip-rule="evenodd" d="M1841.77 403.266L1804.27 449.552L1799.55 445.729L1837.03 399.422L1841.77 403.266Z" fill="white"/>
<path fill-rule="evenodd" clip-rule="evenodd" d="M1905.81 403.543L1868.53 449.554L1863.84 445.755L1901.09 399.722L1905.81 403.543Z" fill="white"/>
<path fill-rule="evenodd" clip-rule="evenodd" d="M55.8101 451.849L5.70743 513.686L-0.598633 508.579L49.4698 446.715L55.8101 451.849Z" fill="white"/>
<path fill-rule="evenodd" clip-rule="evenodd" d="M119.847 452.126L69.9671 513.688L63.6892 508.605L113.535 447.015L119.847 452.126Z" fill="white"/>
<path fill-rule="evenodd" clip-rule="evenodd" d="M183.885 452.404L134.227 513.692L127.977 508.631L177.601 447.315L183.885 452.404Z" fill="white"/>
<path fill-rule="evenodd" clip-rule="evenodd" d="M247.924 452.681L198.489 513.694L192.267 508.656L241.669 447.615L247.924 452.681Z" fill="white"/>
<path fill-rule="evenodd" clip-rule="evenodd" d="M311.963 452.957L262.75 513.696L256.555 508.68L305.733 447.915L311.963 452.957Z" fill="white"/>
<path fill-rule="evenodd" clip-rule="evenodd" d="M376 453.236L327.01 513.699L320.843 508.706L369.8 448.215L376 453.236Z" fill="white"/>
<path fill-rule="evenodd" clip-rule="evenodd" d="M440.037 453.512L391.269 513.703L385.132 508.732L433.865 448.515L440.037 453.512Z" fill="white"/>
<path fill-rule="evenodd" clip-rule="evenodd" d="M504.076 453.791L455.529 513.705L449.42 508.757L497.932 448.815L504.076 453.791Z" fill="white"/>
<path fill-rule="evenodd" clip-rule="evenodd" d="M568.113 454.067L519.789 513.707L513.708 508.783L561.997 449.115L568.113 454.067Z" fill="white"/>
<path fill-rule="evenodd" clip-rule="evenodd" d="M632.15 454.344L584.052 513.709L577.996 508.806L626.064 449.415L632.15 454.344Z" fill="white"/>
<path fill-rule="evenodd" clip-rule="evenodd" d="M696.189 454.622L648.311 513.713L642.286 508.832L690.129 449.715L696.189 454.622Z" fill="white"/>
<path fill-rule="evenodd" clip-rule="evenodd" d="M760.226 454.898L712.571 513.716L706.573 508.858L754.196 450.015L760.226 454.898Z" fill="white"/>
<path fill-rule="evenodd" clip-rule="evenodd" d="M824.264 455.177L776.831 513.718L770.861 508.884L818.261 450.315L824.264 455.177Z" fill="white"/>
<path fill-rule="evenodd" clip-rule="evenodd" d="M888.303 455.454L841.091 513.72L835.149 508.909L882.328 450.615L888.303 455.454Z" fill="white"/>
<path fill-rule="evenodd" clip-rule="evenodd" d="M952.34 455.73L905.351 513.724L899.439 508.935L946.393 450.915L952.34 455.73Z" fill="white"/>
<path fill-rule="evenodd" clip-rule="evenodd" d="M1016.38 456.009L969.613 513.727L963.727 508.959L1010.46 451.215L1016.38 456.009Z" fill="white"/>
<path fill-rule="evenodd" clip-rule="evenodd" d="M1080.42 456.285L1033.87 513.729L1028.01 508.984L1074.53 451.515L1080.42 456.285Z" fill="white"/>
<path fill-rule="evenodd" clip-rule="evenodd" d="M1144.45 456.562L1098.13 513.731L1092.3 509.01L1138.59 451.815L1144.45 456.562Z" fill="white"/>
<path fill-rule="evenodd" clip-rule="evenodd" d="M1208.49 456.84L1162.39 513.733L1156.59 509.036L1202.66 452.115L1208.49 456.84Z" fill="white"/>
<path fill-rule="evenodd" clip-rule="evenodd" d="M1272.53 457.116L1226.65 513.737L1220.88 509.061L1266.72 452.415L1272.53 457.116Z" fill="white"/>
<path fill-rule="evenodd" clip-rule="evenodd" d="M1336.57 457.395L1290.91 513.739L1285.17 509.087L1330.79 452.715L1336.57 457.395Z" fill="white"/>
<path fill-rule="evenodd" clip-rule="evenodd" d="M1400.61 457.671L1355.18 513.741L1349.46 509.111L1394.86 453.015L1400.61 457.671Z" fill="white"/>
<path fill-rule="evenodd" clip-rule="evenodd" d="M1464.64 457.948L1419.44 513.744L1413.74 509.136L1458.92 453.315L1464.64 457.948Z" fill="white"/>
<path fill-rule="evenodd" clip-rule="evenodd" d="M1528.68 458.226L1483.69 513.748L1478.03 509.162L1522.99 453.615L1528.68 458.226Z" fill="white"/>
<path fill-rule="evenodd" clip-rule="evenodd" d="M1592.72 458.503L1547.95 513.75L1542.32 509.188L1587.05 453.915L1592.72 458.503Z" fill="white"/>
<path fill-rule="evenodd" clip-rule="evenodd" d="M1656.76 458.779L1612.21 513.752L1606.61 509.214L1651.12 454.215L1656.76 458.779Z" fill="white"/>
<path fill-rule="evenodd" clip-rule="evenodd" d="M1720.79 459.058L1676.47 513.754L1670.9 509.239L1715.19 454.515L1720.79 459.058Z" fill="white"/>
<path fill-rule="evenodd" clip-rule="evenodd" d="M1784.83 459.334L1740.74 513.759L1735.19 509.263L1779.25 454.817L1784.83 459.334Z" fill="white"/>
<path fill-rule="evenodd" clip-rule="evenodd" d="M1848.87 459.613L1805 513.761L1799.48 509.288L1843.32 455.117L1848.87 459.613Z" fill="white"/>
<path fill-rule="evenodd" clip-rule="evenodd" d="M1912.91 459.889L1869.26 513.763L1863.76 509.314L1907.39 455.417L1912.91 459.889Z" fill="white"/>
<path fill-rule="evenodd" clip-rule="evenodd" d="M62.9055 508.196L6.43191 577.897L-0.676025 572.139L55.7591 502.408L62.9055 508.196Z" fill="white"/>
<path fill-rule="evenodd" clip-rule="evenodd" d="M126.945 508.472L70.6936 577.899L63.6138 572.164L119.826 502.708L126.945 508.472Z" fill="white"/>
<path fill-rule="evenodd" clip-rule="evenodd" d="M190.982 508.751L134.954 577.901L127.902 572.19L183.892 503.008L190.982 508.751Z" fill="white"/>
<path fill-rule="evenodd" clip-rule="evenodd" d="M255.02 509.027L199.213 577.903L192.189 572.216L247.957 503.308L255.02 509.027Z" fill="white"/>
<path fill-rule="evenodd" clip-rule="evenodd" d="M319.057 509.306L263.474 577.905L256.477 572.241L312.024 503.608L319.057 509.306Z" fill="white"/>
<path fill-rule="evenodd" clip-rule="evenodd" d="M383.096 509.582L327.734 577.909L320.767 572.267L376.089 503.91L383.096 509.582Z" fill="white"/>
<path fill-rule="evenodd" clip-rule="evenodd" d="M447.134 509.859L391.996 577.911L385.055 572.291L440.156 504.21L447.134 509.859Z" fill="white"/>
<path fill-rule="evenodd" clip-rule="evenodd" d="M511.171 510.137L456.256 577.914L449.343 572.316L504.221 504.51L511.171 510.137Z" fill="white"/>
<path fill-rule="evenodd" clip-rule="evenodd" d="M575.21 510.414L520.516 577.916L513.631 572.342L568.288 504.81L575.21 510.414Z" fill="white"/>
<path fill-rule="evenodd" clip-rule="evenodd" d="M639.247 510.69L584.775 577.92L577.92 572.368L632.353 505.11L639.247 510.69Z" fill="white"/>
<path fill-rule="evenodd" clip-rule="evenodd" d="M703.284 510.969L649.035 577.922L642.208 572.394L696.42 505.41L703.284 510.969Z" fill="white"/>
<path fill-rule="evenodd" clip-rule="evenodd" d="M767.323 511.245L713.298 577.924L706.496 572.419L760.485 505.71L767.323 511.245Z" fill="white"/>
<path fill-rule="evenodd" clip-rule="evenodd" d="M831.36 511.523L777.557 577.926L770.784 572.443L824.552 506.01L831.36 511.523Z" fill="white"/>
<path fill-rule="evenodd" clip-rule="evenodd" d="M895.397 511.8L841.817 577.931L835.074 572.468L888.617 506.31L895.397 511.8Z" fill="white"/>
<path fill-rule="evenodd" clip-rule="evenodd" d="M959.437 512.076L906.077 577.933L899.362 572.494L952.684 506.61L959.437 512.076Z" fill="white"/>
<path fill-rule="evenodd" clip-rule="evenodd" d="M1023.47 512.355L970.337 577.935L963.649 572.52L1016.75 506.91L1023.47 512.355Z" fill="white"/>
<path fill-rule="evenodd" clip-rule="evenodd" d="M1087.51 512.631L1034.6 577.937L1027.94 572.546L1080.82 507.21L1087.51 512.631Z" fill="white"/>
<path fill-rule="evenodd" clip-rule="evenodd" d="M1151.55 512.908L1098.86 577.941L1092.23 572.569L1144.88 507.51L1151.55 512.908Z" fill="white"/>
<path fill-rule="evenodd" clip-rule="evenodd" d="M1215.59 513.186L1163.12 577.944L1156.51 572.595L1208.95 507.81L1215.59 513.186Z" fill="white"/>
<path fill-rule="evenodd" clip-rule="evenodd" d="M1279.63 513.463L1227.38 577.946L1220.8 572.621L1273.01 508.11L1279.63 513.463Z" fill="white"/>
<path fill-rule="evenodd" clip-rule="evenodd" d="M1343.66 513.742L1291.64 577.948L1285.09 572.647L1337.08 508.41L1343.66 513.742Z" fill="white"/>
<path fill-rule="evenodd" clip-rule="evenodd" d="M1407.7 514.018L1355.9 577.952L1349.38 572.672L1401.15 508.71L1407.7 514.018Z" fill="white"/>
<path fill-rule="evenodd" clip-rule="evenodd" d="M1471.74 514.294L1420.16 577.954L1413.67 572.698L1465.21 509.01L1471.74 514.294Z" fill="white"/>
<path fill-rule="evenodd" clip-rule="evenodd" d="M1535.78 514.573L1484.42 577.957L1477.96 572.721L1529.28 509.31L1535.78 514.573Z" fill="white"/>
<path fill-rule="evenodd" clip-rule="evenodd" d="M1599.82 514.849L1548.68 577.958L1542.25 572.747L1593.35 509.61L1599.82 514.849Z" fill="white"/>
<path fill-rule="evenodd" clip-rule="evenodd" d="M1663.86 515.126L1612.94 577.963L1606.54 572.773L1657.41 509.91L1663.86 515.126Z" fill="white"/>
<path fill-rule="evenodd" clip-rule="evenodd" d="M1727.89 515.404L1677.2 577.965L1670.82 572.799L1721.48 510.21L1727.89 515.404Z" fill="white"/>
<path fill-rule="evenodd" clip-rule="evenodd" d="M1791.93 515.681L1741.46 577.967L1735.11 572.824L1785.54 510.51L1791.93 515.681Z" fill="white"/>
<path fill-rule="evenodd" clip-rule="evenodd" d="M1855.97 515.959L1805.72 577.969L1799.4 572.85L1849.61 510.81L1855.97 515.959Z" fill="white"/>
<path fill-rule="evenodd" clip-rule="evenodd" d="M1920.01 516.236L1869.98 577.974L1863.69 572.874L1913.68 511.11L1920.01 516.236Z" fill="white"/>
<path fill-rule="evenodd" clip-rule="evenodd" d="M70.0027 564.542L7.1584 642.105L-0.751343 635.7L62.0502 558.103L70.0027 564.542Z" fill="white"/>
<path fill-rule="evenodd" clip-rule="evenodd" d="M134.04 564.819L71.418 642.107L63.5364 635.726L126.116 558.403L134.04 564.819Z" fill="white"/>
<path fill-rule="evenodd" clip-rule="evenodd" d="M198.077 565.097L135.678 642.109L127.824 635.749L190.181 558.703L198.077 565.097Z" fill="white"/>
<path fill-rule="evenodd" clip-rule="evenodd" d="M262.118 565.374L199.94 642.114L192.114 635.775L254.249 559.003L262.118 565.374Z" fill="white"/>
<path fill-rule="evenodd" clip-rule="evenodd" d="M326.154 565.652L264.2 642.116L256.402 635.801L318.313 559.303L326.154 565.652Z" fill="white"/>
<path fill-rule="evenodd" clip-rule="evenodd" d="M390.191 565.928L328.46 642.118L320.69 635.826L382.38 559.603L390.191 565.928Z" fill="white"/>
<path fill-rule="evenodd" clip-rule="evenodd" d="M454.23 566.205L392.72 642.12L384.978 635.852L446.445 559.903L454.23 566.205Z" fill="white"/>
<path fill-rule="evenodd" clip-rule="evenodd" d="M518.268 566.484L456.98 642.124L449.268 635.878L510.513 560.203L518.268 566.484Z" fill="white"/>
<path fill-rule="evenodd" clip-rule="evenodd" d="M582.304 566.76L521.242 642.127L513.555 635.902L574.577 560.503L582.304 566.76Z" fill="white"/>
<path fill-rule="evenodd" clip-rule="evenodd" d="M646.344 567.036L585.502 642.128L577.843 635.927L638.644 560.803L646.344 567.036Z" fill="white"/>
<path fill-rule="evenodd" clip-rule="evenodd" d="M710.381 567.315L649.762 642.131L642.131 635.953L702.709 561.103L710.381 567.315Z" fill="white"/>
<path fill-rule="evenodd" clip-rule="evenodd" d="M774.418 567.591L714.022 642.135L706.421 635.979L766.777 561.403L774.418 567.591Z" fill="white"/>
<path fill-rule="evenodd" clip-rule="evenodd" d="M838.457 567.87L778.281 642.137L770.708 636.004L830.841 561.703L838.457 567.87Z" fill="white"/>
<path fill-rule="evenodd" clip-rule="evenodd" d="M902.494 568.147L842.541 642.139L834.996 636.03L894.908 562.003L902.494 568.147Z" fill="white"/>
<path fill-rule="evenodd" clip-rule="evenodd" d="M966.534 568.423L906.803 642.141L899.284 636.053L958.973 562.303L966.534 568.423Z" fill="white"/>
<path fill-rule="evenodd" clip-rule="evenodd" d="M1030.57 568.701L971.063 642.146L963.574 636.079L1023.04 562.603L1030.57 568.701Z" fill="white"/>
<path fill-rule="evenodd" clip-rule="evenodd" d="M1094.61 568.978L1035.33 642.148L1027.86 636.105L1087.11 562.903L1094.61 568.978Z" fill="white"/>
<path fill-rule="evenodd" clip-rule="evenodd" d="M1158.65 569.256L1099.59 642.15L1092.15 636.131L1151.17 563.203L1158.65 569.256Z" fill="white"/>
<path fill-rule="evenodd" clip-rule="evenodd" d="M1222.69 569.533L1163.85 642.152L1156.44 636.156L1215.24 563.503L1222.69 569.533Z" fill="white"/>
<path fill-rule="evenodd" clip-rule="evenodd" d="M1286.72 569.809L1228.11 642.157L1220.73 636.182L1279.31 563.803L1286.72 569.809Z" fill="white"/>
<path fill-rule="evenodd" clip-rule="evenodd" d="M1350.76 570.088L1292.37 642.159L1285.02 636.206L1343.37 564.103L1350.76 570.088Z" fill="white"/>
<path fill-rule="evenodd" clip-rule="evenodd" d="M1414.8 570.364L1356.63 642.161L1349.31 636.231L1407.44 564.403L1414.8 570.364Z" fill="white"/>
<path fill-rule="evenodd" clip-rule="evenodd" d="M1478.84 570.641L1420.89 642.163L1413.59 636.257L1471.5 564.703L1478.84 570.641Z" fill="white"/>
<path fill-rule="evenodd" clip-rule="evenodd" d="M1542.88 570.919L1485.15 642.167L1477.88 636.283L1535.57 565.003L1542.88 570.919Z" fill="white"/>
<path fill-rule="evenodd" clip-rule="evenodd" d="M1606.91 571.196L1549.41 642.169L1542.17 636.308L1599.64 565.303L1606.91 571.196Z" fill="white"/>
<path fill-rule="evenodd" clip-rule="evenodd" d="M1670.95 571.474L1613.67 642.171L1606.46 636.332L1663.7 565.603L1670.95 571.474Z" fill="white"/>
<path fill-rule="evenodd" clip-rule="evenodd" d="M1734.99 571.751L1677.93 642.174L1670.75 636.358L1727.77 565.903L1734.99 571.751Z" fill="white"/>
<path fill-rule="evenodd" clip-rule="evenodd" d="M1799.03 572.027L1742.19 642.176L1735.03 636.384L1791.83 566.203L1799.03 572.027Z" fill="white"/>
<path fill-rule="evenodd" clip-rule="evenodd" d="M1863.06 572.306L1806.45 642.18L1799.32 636.409L1855.9 566.503L1863.06 572.306Z" fill="white"/>
<path fill-rule="evenodd" clip-rule="evenodd" d="M1927.1 572.582L1870.71 642.182L1863.61 636.435L1919.97 566.803L1927.1 572.582Z" fill="white"/>
<path fill-rule="evenodd" clip-rule="evenodd" d="M77.1002 620.889L7.88496 706.314L-0.82666 699.259L68.3415 613.796L77.1002 620.889Z" fill="white"/>
<path fill-rule="evenodd" clip-rule="evenodd" d="M141.137 621.167L72.1447 706.318L63.4612 699.285L132.407 614.096L141.137 621.167Z" fill="white"/>
<path fill-rule="evenodd" clip-rule="evenodd" d="M205.175 621.444L136.405 706.32L127.749 699.311L196.473 614.396L205.175 621.444Z" fill="white"/>
<path fill-rule="evenodd" clip-rule="evenodd" d="M269.211 621.72L200.664 706.322L192.037 699.336L260.537 614.696L269.211 621.72Z" fill="white"/>
<path fill-rule="evenodd" clip-rule="evenodd" d="M333.251 621.999L264.924 706.324L256.324 699.362L324.604 614.996L333.251 621.999Z" fill="white"/>
<path fill-rule="evenodd" clip-rule="evenodd" d="M397.288 622.275L329.186 706.328L320.615 699.386L388.67 615.296L397.288 622.275Z" fill="white"/>
<path fill-rule="evenodd" clip-rule="evenodd" d="M461.325 622.552L393.446 706.331L384.902 699.412L452.737 615.596L461.325 622.552Z" fill="white"/>
<path fill-rule="evenodd" clip-rule="evenodd" d="M525.364 622.83L457.706 706.333L449.19 699.437L516.801 615.896L525.364 622.83Z" fill="white"/>
<path fill-rule="evenodd" clip-rule="evenodd" d="M589.401 623.106L521.966 706.335L513.478 699.463L580.868 616.196L589.401 623.106Z" fill="white"/>
<path fill-rule="evenodd" clip-rule="evenodd" d="M653.439 623.385L586.226 706.339L577.768 699.488L644.934 616.496L653.439 623.385Z" fill="white"/>
<path fill-rule="evenodd" clip-rule="evenodd" d="M717.478 623.661L650.488 706.341L642.056 699.512L709.001 616.796L717.478 623.661Z" fill="white"/>
<path fill-rule="evenodd" clip-rule="evenodd" d="M781.515 623.938L714.748 706.344L706.343 699.538L773.065 617.096L781.515 623.938Z" fill="white"/>
<path fill-rule="evenodd" clip-rule="evenodd" d="M845.554 624.216L779.01 706.346L770.633 699.564L837.135 617.396L845.554 624.216Z" fill="white"/>
<path fill-rule="evenodd" clip-rule="evenodd" d="M909.593 624.493L843.27 706.35L834.923 699.589L901.199 617.696L909.593 624.493Z" fill="white"/>
<path fill-rule="evenodd" clip-rule="evenodd" d="M973.63 624.769L907.529 706.352L899.211 699.615L965.267 617.996L973.63 624.769Z" fill="white"/>
<path fill-rule="evenodd" clip-rule="evenodd" d="M1037.67 625.048L971.79 706.354L963.499 699.641L1029.33 618.298L1037.67 625.048Z" fill="white"/>
<path fill-rule="evenodd" clip-rule="evenodd" d="M1101.71 625.324L1036.05 706.356L1027.79 699.664L1093.4 618.596L1101.71 625.324Z" fill="white"/>
<path fill-rule="evenodd" clip-rule="evenodd" d="M1165.74 625.603L1100.31 706.358L1092.07 699.69L1157.46 618.898L1165.74 625.603Z" fill="white"/>
<path fill-rule="evenodd" clip-rule="evenodd" d="M1229.78 625.879L1164.57 706.363L1156.36 699.716L1221.53 619.198L1229.78 625.879Z" fill="white"/>
<path fill-rule="evenodd" clip-rule="evenodd" d="M1293.82 626.156L1228.83 706.365L1220.65 699.741L1285.6 619.498L1293.82 626.156Z" fill="white"/>
<path fill-rule="evenodd" clip-rule="evenodd" d="M1357.86 626.434L1293.09 706.367L1284.94 699.767L1349.66 619.798L1357.86 626.434Z" fill="white"/>
<path fill-rule="evenodd" clip-rule="evenodd" d="M1421.9 626.711L1357.35 706.369L1349.23 699.793L1413.73 620.098L1421.9 626.711Z" fill="white"/>
<path fill-rule="evenodd" clip-rule="evenodd" d="M1485.93 626.987L1421.61 706.374L1413.52 699.816L1477.79 620.398L1485.93 626.987Z" fill="white"/>
<path fill-rule="evenodd" clip-rule="evenodd" d="M1549.97 627.266L1485.87 706.376L1477.81 699.842L1541.86 620.698L1549.97 627.266Z" fill="white"/>
<path fill-rule="evenodd" clip-rule="evenodd" d="M1614.01 627.542L1550.13 706.378L1542.09 699.868L1605.93 620.998L1614.01 627.542Z" fill="white"/>
<path fill-rule="evenodd" clip-rule="evenodd" d="M1678.05 627.821L1614.39 706.38L1606.38 699.894L1669.99 621.298L1678.05 627.821Z" fill="white"/>
<path fill-rule="evenodd" clip-rule="evenodd" d="M1742.08 628.097L1678.65 706.384L1670.67 699.919L1734.06 621.598L1742.08 628.097Z" fill="white"/>
<path fill-rule="evenodd" clip-rule="evenodd" d="M1806.12 628.374L1742.91 706.387L1734.96 699.945L1798.12 621.898L1806.12 628.374Z" fill="white"/>
<path fill-rule="evenodd" clip-rule="evenodd" d="M1870.16 628.652L1807.18 706.388L1799.25 699.968L1862.19 622.198L1870.16 628.652Z" fill="white"/>
<path fill-rule="evenodd" clip-rule="evenodd" d="M1934.2 628.929L1871.43 706.391L1863.53 699.994L1926.26 622.498L1934.2 628.929Z" fill="white"/>
<path fill-rule="evenodd" clip-rule="evenodd" d="M84.1952 677.235L8.60926 770.524L-0.904175 762.821L74.6304 669.491L84.1952 677.235Z" fill="white"/>
<path fill-rule="evenodd" clip-rule="evenodd" d="M148.233 677.513L72.8694 770.526L63.3838 762.844L138.696 669.791L148.233 677.513Z" fill="white"/>
<path fill-rule="evenodd" clip-rule="evenodd" d="M212.272 677.79L137.131 770.529L127.674 762.87L202.764 670.091L212.272 677.79Z" fill="white"/>
<path fill-rule="evenodd" clip-rule="evenodd" d="M276.31 678.066L201.391 770.531L191.961 762.896L266.83 670.391L276.31 678.066Z" fill="white"/>
<path fill-rule="evenodd" clip-rule="evenodd" d="M340.346 678.345L265.65 770.535L256.249 762.921L330.894 670.691L340.346 678.345Z" fill="white"/>
<path fill-rule="evenodd" clip-rule="evenodd" d="M404.385 678.621L329.91 770.537L320.537 762.947L394.961 670.991L404.385 678.621Z" fill="white"/>
<path fill-rule="evenodd" clip-rule="evenodd" d="M468.424 678.898L394.172 770.539L384.827 762.973L459.028 671.291L468.424 678.898Z" fill="white"/>
<path fill-rule="evenodd" clip-rule="evenodd" d="M532.461 679.176L458.434 770.541L449.115 762.996L523.095 671.591L532.461 679.176Z" fill="white"/>
<path fill-rule="evenodd" clip-rule="evenodd" d="M596.5 679.453L522.694 770.546L513.405 763.022L587.16 671.891L596.5 679.453Z" fill="white"/>
<path fill-rule="evenodd" clip-rule="evenodd" d="M660.537 679.731L586.954 770.548L577.692 763.048L651.227 672.191L660.537 679.731Z" fill="white"/>
<path fill-rule="evenodd" clip-rule="evenodd" d="M724.575 680.008L651.214 770.55L641.98 763.074L715.292 672.491L724.575 680.008Z" fill="white"/>
<path fill-rule="evenodd" clip-rule="evenodd" d="M788.614 680.284L715.474 770.552L706.268 763.099L779.359 672.791L788.614 680.284Z" fill="white"/>
<path fill-rule="evenodd" clip-rule="evenodd" d="M852.651 680.563L779.736 770.556L770.558 763.125L843.424 673.091L852.651 680.563Z" fill="white"/>
<path fill-rule="evenodd" clip-rule="evenodd" d="M916.688 680.839L843.996 770.558L834.846 763.148L907.491 673.391L916.688 680.839Z" fill="white"/>
<path fill-rule="evenodd" clip-rule="evenodd" d="M980.727 681.118L908.256 770.561L899.134 763.174L971.556 673.691L980.727 681.118Z" fill="white"/>
<path fill-rule="evenodd" clip-rule="evenodd" d="M1044.76 681.394L972.516 770.563L963.421 763.2L1035.62 673.991L1044.76 681.394Z" fill="white"/>
<path fill-rule="evenodd" clip-rule="evenodd" d="M1108.8 681.671L1036.78 770.567L1027.71 763.226L1099.69 674.291L1108.8 681.671Z" fill="white"/>
<path fill-rule="evenodd" clip-rule="evenodd" d="M1172.84 681.949L1101.04 770.569L1092 763.251L1163.75 674.591L1172.84 681.949Z" fill="white"/>
<path fill-rule="evenodd" clip-rule="evenodd" d="M1236.88 682.226L1165.3 770.571L1156.29 763.275L1227.82 674.891L1236.88 682.226Z" fill="white"/>
<path fill-rule="evenodd" clip-rule="evenodd" d="M1300.92 682.502L1229.56 770.574L1220.57 763.301L1291.89 675.191L1300.92 682.502Z" fill="white"/>
<path fill-rule="evenodd" clip-rule="evenodd" d="M1364.95 682.781L1293.82 770.578L1284.86 763.326L1355.95 675.491L1364.95 682.781Z" fill="white"/>
<path fill-rule="evenodd" clip-rule="evenodd" d="M1428.99 683.057L1358.08 770.58L1349.15 763.352L1420.02 675.791L1428.99 683.057Z" fill="white"/>
<path fill-rule="evenodd" clip-rule="evenodd" d="M1493.03 683.336L1422.34 770.582L1413.44 763.378L1484.08 676.091L1493.03 683.336Z" fill="white"/>
<path fill-rule="evenodd" clip-rule="evenodd" d="M1557.07 683.612L1486.6 770.584L1477.73 763.404L1548.15 676.391L1557.07 683.612Z" fill="white"/>
<path fill-rule="evenodd" clip-rule="evenodd" d="M1621.1 683.889L1550.86 770.589L1542.02 763.427L1612.22 676.691L1621.1 683.889Z" fill="white"/>
<path fill-rule="evenodd" clip-rule="evenodd" d="M1685.14 684.167L1615.12 770.591L1606.31 763.453L1676.28 676.991L1685.14 684.167Z" fill="white"/>
<path fill-rule="evenodd" clip-rule="evenodd" d="M1749.18 684.443L1679.38 770.593L1670.59 763.478L1740.35 677.291L1749.18 684.443Z" fill="white"/>
<path fill-rule="evenodd" clip-rule="evenodd" d="M1813.22 684.72L1743.64 770.595L1734.88 763.504L1804.41 677.591L1813.22 684.72Z" fill="white"/>
<path fill-rule="evenodd" clip-rule="evenodd" d="M1877.26 684.998L1807.9 770.599L1799.17 763.53L1868.48 677.891L1877.26 684.998Z" fill="white"/>
<path fill-rule="evenodd" clip-rule="evenodd" d="M1941.29 685.275L1872.16 770.601L1863.46 763.556L1932.54 678.191L1941.29 685.275Z" fill="white"/>
<path fill-rule="evenodd" clip-rule="evenodd" d="M91.2926 733.581L9.33582 834.733L-0.979492 826.38L80.9214 725.184L91.2926 733.581Z" fill="white"/>
<path fill-rule="evenodd" clip-rule="evenodd" d="M155.33 733.86L73.5958 834.735L63.3083 826.406L144.987 725.483L155.33 733.86Z" fill="white"/>
<path fill-rule="evenodd" clip-rule="evenodd" d="M219.367 734.136L137.855 834.739L127.596 826.431L209.052 725.783L219.367 734.136Z" fill="white"/>
<path fill-rule="evenodd" clip-rule="evenodd" d="M283.406 734.413L202.115 834.741L191.884 826.455L273.118 726.083L283.406 734.413Z" fill="white"/>
<path fill-rule="evenodd" clip-rule="evenodd" d="M347.445 734.691L266.378 834.744L256.174 826.481L337.187 726.384L347.445 734.691Z" fill="white"/>
<path fill-rule="evenodd" clip-rule="evenodd" d="M411.482 734.968L330.638 834.746L320.462 826.506L401.252 726.684L411.482 734.968Z" fill="white"/>
<path fill-rule="evenodd" clip-rule="evenodd" d="M475.521 735.246L394.898 834.75L384.751 826.532L465.319 726.984L475.521 735.246Z" fill="white"/>
<path fill-rule="evenodd" clip-rule="evenodd" d="M539.558 735.523L459.158 834.752L449.039 826.558L529.384 727.283L539.558 735.523Z" fill="white"/>
<path fill-rule="evenodd" clip-rule="evenodd" d="M603.595 735.799L523.418 834.754L513.327 826.584L593.451 727.584L603.595 735.799Z" fill="white"/>
<path fill-rule="evenodd" clip-rule="evenodd" d="M667.634 736.078L587.68 834.756L577.615 826.607L657.516 727.884L667.634 736.078Z" fill="white"/>
<path fill-rule="evenodd" clip-rule="evenodd" d="M731.671 736.354L651.94 834.761L641.905 826.633L721.583 728.184L731.671 736.354Z" fill="white"/>
<path fill-rule="evenodd" clip-rule="evenodd" d="M795.708 736.63L716.2 834.763L706.193 826.658L785.648 728.483L795.708 736.63Z" fill="white"/>
<path fill-rule="evenodd" clip-rule="evenodd" d="M859.748 736.909L780.46 834.765L770.48 826.684L849.715 728.784L859.748 736.909Z" fill="white"/>
<path fill-rule="evenodd" clip-rule="evenodd" d="M923.785 737.186L844.72 834.767L834.768 826.71L913.78 729.083L923.785 737.186Z" fill="white"/>
<path fill-rule="evenodd" clip-rule="evenodd" d="M987.822 737.464L908.98 834.771L899.058 826.736L977.847 729.384L987.822 737.464Z" fill="white"/>
<path fill-rule="evenodd" clip-rule="evenodd" d="M1051.86 737.741L973.242 834.774L963.346 826.759L1041.91 729.684L1051.86 737.741Z" fill="white"/>
<path fill-rule="evenodd" clip-rule="evenodd" d="M1115.9 738.017L1037.5 834.776L1027.63 826.785L1105.98 729.983L1115.9 738.017Z" fill="white"/>
<path fill-rule="evenodd" clip-rule="evenodd" d="M1179.94 738.296L1101.76 834.778L1091.92 826.811L1170.04 730.284L1179.94 738.296Z" fill="white"/>
<path fill-rule="evenodd" clip-rule="evenodd" d="M1243.97 738.572L1166.02 834.782L1156.21 826.836L1234.11 730.583L1243.97 738.572Z" fill="white"/>
<path fill-rule="evenodd" clip-rule="evenodd" d="M1308.01 738.849L1230.28 834.784L1220.5 826.862L1298.18 730.884L1308.01 738.849Z" fill="white"/>
<path fill-rule="evenodd" clip-rule="evenodd" d="M1372.05 739.127L1294.54 834.786L1284.79 826.886L1362.24 731.184L1372.05 739.127Z" fill="white"/>
<path fill-rule="evenodd" clip-rule="evenodd" d="M1436.09 739.404L1358.8 834.789L1349.07 826.911L1426.31 731.484L1436.09 739.404Z" fill="white"/>
<path fill-rule="evenodd" clip-rule="evenodd" d="M1500.12 739.682L1423.06 834.793L1413.36 826.937L1490.37 731.784L1500.12 739.682Z" fill="white"/>
<path fill-rule="evenodd" clip-rule="evenodd" d="M1564.16 739.959L1487.32 834.795L1477.65 826.963L1554.44 732.084L1564.16 739.959Z" fill="white"/>
<path fill-rule="evenodd" clip-rule="evenodd" d="M1628.2 740.235L1551.58 834.797L1541.94 826.989L1618.5 732.384L1628.2 740.235Z" fill="white"/>
<path fill-rule="evenodd" clip-rule="evenodd" d="M1692.24 740.514L1615.84 834.799L1606.23 827.014L1682.57 732.686L1692.24 740.514Z" fill="white"/>
<path fill-rule="evenodd" clip-rule="evenodd" d="M1756.28 740.79L1680.11 834.802L1670.52 827.038L1746.64 732.986L1756.28 740.79Z" fill="white"/>
<path fill-rule="evenodd" clip-rule="evenodd" d="M1820.31 741.068L1744.37 834.806L1734.81 827.063L1810.7 733.286L1820.31 741.068Z" fill="white"/>
<path fill-rule="evenodd" clip-rule="evenodd" d="M1884.35 741.345L1808.63 834.808L1799.09 827.089L1874.77 733.586L1884.35 741.345Z" fill="white"/>
<path fill-rule="evenodd" clip-rule="evenodd" d="M1948.39 741.621L1872.89 834.81L1863.38 827.115L1938.84 733.886L1948.39 741.621Z" fill="white"/>
<path fill-rule="evenodd" clip-rule="evenodd" d="M98.388 789.928L10.0603 898.943L-1.05688 889.939L87.2107 780.876L98.388 789.928Z" fill="white"/>
<path fill-rule="evenodd" clip-rule="evenodd" d="M162.425 790.206L74.3202 898.946L63.231 889.965L151.276 781.177L162.425 790.206Z" fill="white"/>
<path fill-rule="evenodd" clip-rule="evenodd" d="M226.465 790.483L138.582 898.948L127.521 889.991L215.343 781.476L226.465 790.483Z" fill="white"/>
<path fill-rule="evenodd" clip-rule="evenodd" d="M290.502 790.759L202.842 898.95L191.809 890.016L279.41 781.779L290.502 790.759Z" fill="white"/>
<path fill-rule="evenodd" clip-rule="evenodd" d="M354.541 791.038L267.102 898.954L256.099 890.042L343.476 782.079L354.541 791.038Z" fill="white"/>
<path fill-rule="evenodd" clip-rule="evenodd" d="M418.578 791.314L331.362 898.956L320.386 890.068L407.543 782.378L418.578 791.314Z" fill="white"/>
<path fill-rule="evenodd" clip-rule="evenodd" d="M482.615 791.593L395.624 898.959L384.674 890.092L471.608 782.679L482.615 791.593Z" fill="white"/>
<path fill-rule="evenodd" clip-rule="evenodd" d="M546.655 791.869L459.884 898.961L448.962 890.117L535.675 782.979L546.655 791.869Z" fill="white"/>
<path fill-rule="evenodd" clip-rule="evenodd" d="M610.692 792.146L524.144 898.965L513.252 890.143L599.74 783.279L610.692 792.146Z" fill="white"/>
<path fill-rule="evenodd" clip-rule="evenodd" d="M674.729 792.424L588.404 898.967L577.54 890.169L663.807 783.579L674.729 792.424Z" fill="white"/>
<path fill-rule="evenodd" clip-rule="evenodd" d="M738.768 792.701L652.664 898.969L641.827 890.194L727.872 783.879L738.768 792.701Z" fill="white"/>
<path fill-rule="evenodd" clip-rule="evenodd" d="M802.805 792.977L716.926 898.971L706.115 890.218L791.939 784.178L802.805 792.977Z" fill="white"/>
<path fill-rule="evenodd" clip-rule="evenodd" d="M866.842 793.256L781.186 898.974L770.405 890.244L856.004 784.479L866.842 793.256Z" fill="white"/>
<path fill-rule="evenodd" clip-rule="evenodd" d="M930.881 793.532L845.446 898.978L834.693 890.269L920.071 784.779L930.881 793.532Z" fill="white"/>
<path fill-rule="evenodd" clip-rule="evenodd" d="M994.919 793.811L909.706 898.98L898.981 890.295L984.136 785.079L994.919 793.811Z" fill="white"/>
<path fill-rule="evenodd" clip-rule="evenodd" d="M1058.96 794.087L973.966 898.982L963.269 890.321L1048.2 785.379L1058.96 794.087Z" fill="white"/>
<path fill-rule="evenodd" clip-rule="evenodd" d="M1123 794.364L1038.23 898.984L1027.56 890.347L1112.27 785.679L1123 794.364Z" fill="white"/>
<path fill-rule="evenodd" clip-rule="evenodd" d="M1187.03 794.642L1102.49 898.989L1091.85 890.37L1176.33 785.979L1187.03 794.642Z" fill="white"/>
<path fill-rule="evenodd" clip-rule="evenodd" d="M1251.07 794.918L1166.75 898.99L1156.13 890.395L1240.4 786.278L1251.07 794.918Z" fill="white"/>
<path fill-rule="evenodd" clip-rule="evenodd" d="M1315.11 795.197L1231.01 898.993L1220.42 890.421L1304.46 786.579L1315.11 795.197Z" fill="white"/>
<path fill-rule="evenodd" clip-rule="evenodd" d="M1379.15 795.473L1295.27 898.995L1284.71 890.447L1368.53 786.878L1379.15 795.473Z" fill="white"/>
<path fill-rule="evenodd" clip-rule="evenodd" d="M1443.18 795.75L1359.53 898.999L1349 890.473L1432.6 787.178L1443.18 795.75Z" fill="white"/>
<path fill-rule="evenodd" clip-rule="evenodd" d="M1507.22 796.029L1423.79 899.001L1413.29 890.499L1496.66 787.479L1507.22 796.029Z" fill="white"/>
<path fill-rule="evenodd" clip-rule="evenodd" d="M1571.26 796.305L1488.05 899.004L1477.58 890.522L1560.73 787.779L1571.26 796.305Z" fill="white"/>
<path fill-rule="evenodd" clip-rule="evenodd" d="M1635.3 796.582L1552.31 899.006L1541.86 890.548L1624.8 788.079L1635.3 796.582Z" fill="white"/>
<path fill-rule="evenodd" clip-rule="evenodd" d="M1699.33 796.86L1616.57 899.01L1606.15 890.574L1688.86 788.379L1699.33 796.86Z" fill="white"/>
<path fill-rule="evenodd" clip-rule="evenodd" d="M1763.37 797.137L1680.83 899.012L1670.44 890.599L1752.93 788.679L1763.37 797.137Z" fill="white"/>
<path fill-rule="evenodd" clip-rule="evenodd" d="M1827.41 797.415L1745.09 899.014L1734.73 890.625L1816.99 788.979L1827.41 797.415Z" fill="white"/>
<path fill-rule="evenodd" clip-rule="evenodd" d="M1891.45 797.691L1809.35 899.016L1799.02 890.649L1881.06 789.279L1891.45 797.691Z" fill="white"/>
<path fill-rule="evenodd" clip-rule="evenodd" d="M1955.49 797.968L1873.61 899.021L1863.31 890.674L1945.12 789.579L1955.49 797.968Z" fill="white"/>
<path fill-rule="evenodd" clip-rule="evenodd" d="M105.485 846.274L10.7868 963.152L-1.1322 953.501L93.5018 836.572L105.485 846.274Z" fill="white"/>
<path fill-rule="evenodd" clip-rule="evenodd" d="M169.523 846.553L75.0467 963.154L63.1555 953.527L157.567 836.872L169.523 846.553Z" fill="white"/>
<path fill-rule="evenodd" clip-rule="evenodd" d="M233.561 846.829L139.306 963.156L127.443 953.55L221.634 837.171L233.561 846.829Z" fill="white"/>
<path fill-rule="evenodd" clip-rule="evenodd" d="M297.6 847.108L203.568 963.161L191.733 953.576L285.7 837.472L297.6 847.108Z" fill="white"/>
<path fill-rule="evenodd" clip-rule="evenodd" d="M361.636 847.384L267.828 963.163L256.021 953.602L349.765 837.771L361.636 847.384Z" fill="white"/>
<path fill-rule="evenodd" clip-rule="evenodd" d="M425.675 847.661L332.088 963.165L320.309 953.627L413.832 838.071L425.675 847.661Z" fill="white"/>
<path fill-rule="evenodd" clip-rule="evenodd" d="M489.712 847.939L396.348 963.167L384.597 953.653L477.897 838.371L489.712 847.939Z" fill="white"/>
<path fill-rule="evenodd" clip-rule="evenodd" d="M553.75 848.216L460.608 963.171L448.887 953.678L541.964 838.671L553.75 848.216Z" fill="white"/>
<path fill-rule="evenodd" clip-rule="evenodd" d="M617.789 848.492L524.87 963.174L513.174 953.702L606.029 838.971L617.789 848.492Z" fill="white"/>
<path fill-rule="evenodd" clip-rule="evenodd" d="M681.826 848.771L589.13 963.176L577.462 953.728L670.096 839.271L681.826 848.771Z" fill="white"/>
<path fill-rule="evenodd" clip-rule="evenodd" d="M745.863 849.047L653.39 963.178L641.75 953.754L734.161 839.572L745.863 849.047Z" fill="white"/>
<path fill-rule="evenodd" clip-rule="evenodd" d="M809.902 849.326L717.65 963.182L706.04 953.779L798.228 839.871L809.902 849.326Z" fill="white"/>
<path fill-rule="evenodd" clip-rule="evenodd" d="M873.939 849.602L781.91 963.184L770.328 953.805L862.293 840.171L873.939 849.602Z" fill="white"/>
<path fill-rule="evenodd" clip-rule="evenodd" d="M937.976 849.879L846.172 963.186L834.615 953.831L926.36 840.471L937.976 849.879Z" fill="white"/>
<path fill-rule="evenodd" clip-rule="evenodd" d="M1002.02 850.157L910.432 963.189L898.903 953.854L990.425 840.771L1002.02 850.157Z" fill="white"/>
<path fill-rule="evenodd" clip-rule="evenodd" d="M1066.05 850.433L974.692 963.193L963.193 953.88L1054.49 841.071L1066.05 850.433Z" fill="white"/>
<path fill-rule="evenodd" clip-rule="evenodd" d="M1130.09 850.71L1038.95 963.195L1027.48 953.906L1118.56 841.372L1130.09 850.71Z" fill="white"/>
<path fill-rule="evenodd" clip-rule="evenodd" d="M1194.13 850.989L1103.21 963.197L1091.77 953.931L1182.62 841.671L1194.13 850.989Z" fill="white"/>
<path fill-rule="evenodd" clip-rule="evenodd" d="M1258.17 851.265L1167.47 963.199L1156.06 953.957L1246.69 841.971L1258.17 851.265Z" fill="white"/>
<path fill-rule="evenodd" clip-rule="evenodd" d="M1322.21 851.544L1231.73 963.204L1220.35 953.981L1310.76 842.271L1322.21 851.544Z" fill="white"/>
<path fill-rule="evenodd" clip-rule="evenodd" d="M1386.24 851.82L1295.99 963.206L1284.63 954.006L1374.82 842.571L1386.24 851.82Z" fill="white"/>
<path fill-rule="evenodd" clip-rule="evenodd" d="M1450.28 852.096L1360.25 963.208L1348.92 954.032L1438.89 842.871L1450.28 852.096Z" fill="white"/>
<path fill-rule="evenodd" clip-rule="evenodd" d="M1514.32 852.375L1424.51 963.21L1413.21 954.058L1502.95 843.171L1514.32 852.375Z" fill="white"/>
<path fill-rule="evenodd" clip-rule="evenodd" d="M1578.36 852.651L1488.77 963.214L1477.5 954.084L1567.02 843.471L1578.36 852.651Z" fill="white"/>
<path fill-rule="evenodd" clip-rule="evenodd" d="M1642.39 852.93L1553.03 963.216L1541.79 954.109L1631.08 843.771L1642.39 852.93Z" fill="white"/>
<path fill-rule="evenodd" clip-rule="evenodd" d="M1706.43 853.207L1617.3 963.219L1606.08 954.133L1695.15 844.072L1706.43 853.207Z" fill="white"/>
<path fill-rule="evenodd" clip-rule="evenodd" d="M1770.47 853.483L1681.56 963.221L1670.37 954.159L1759.22 844.372L1770.47 853.483Z" fill="white"/>
<path fill-rule="evenodd" clip-rule="evenodd" d="M1834.51 853.761L1745.82 963.225L1734.65 954.184L1823.29 844.671L1834.51 853.761Z" fill="white"/>
<path fill-rule="evenodd" clip-rule="evenodd" d="M1898.55 854.038L1810.08 963.227L1798.94 954.21L1887.35 844.972L1898.55 854.038Z" fill="white"/>
<path fill-rule="evenodd" clip-rule="evenodd" d="M1962.58 854.314L1874.34 963.229L1863.23 954.236L1951.42 845.271L1962.58 854.314Z" fill="white"/>
<path fill-rule="evenodd" clip-rule="evenodd" d="M107.967 907.785L11.04 1027.41L-1.15942 1017.53L95.7013 897.853L107.967 907.785Z" fill="white"/>
<path fill-rule="evenodd" clip-rule="evenodd" d="M172.252 907.785L75.3257 1027.41L63.1262 1017.53L159.987 897.853L172.252 907.785Z" fill="white"/>
<path fill-rule="evenodd" clip-rule="evenodd" d="M236.538 907.785L139.612 1027.41L127.412 1017.53L224.272 897.853L236.538 907.785Z" fill="white"/>
<path fill-rule="evenodd" clip-rule="evenodd" d="M300.824 907.785L203.897 1027.41L191.698 1017.53L288.558 897.853L300.824 907.785Z" fill="white"/>
<path fill-rule="evenodd" clip-rule="evenodd" d="M365.108 907.785L268.183 1027.41L255.983 1017.53L352.843 897.853L365.108 907.785Z" fill="white"/>
<path fill-rule="evenodd" clip-rule="evenodd" d="M429.394 907.785L332.468 1027.41L320.269 1017.53L417.128 897.853L429.394 907.785Z" fill="white"/>
<path fill-rule="evenodd" clip-rule="evenodd" d="M493.68 907.785L396.754 1027.41L384.555 1017.53L481.414 897.853L493.68 907.785Z" fill="white"/>
<path fill-rule="evenodd" clip-rule="evenodd" d="M557.966 907.785L461.04 1027.41L448.841 1017.53L545.7 897.853L557.966 907.785Z" fill="white"/>
<path fill-rule="evenodd" clip-rule="evenodd" d="M622.251 907.785L525.325 1027.41L513.126 1017.53L609.986 897.853L622.251 907.785Z" fill="white"/>
<path fill-rule="evenodd" clip-rule="evenodd" d="M686.537 907.785L589.611 1027.41L577.412 1017.53L674.271 897.853L686.537 907.785Z" fill="white"/>
<path fill-rule="evenodd" clip-rule="evenodd" d="M750.823 907.785L653.897 1027.41L641.698 1017.53L738.557 897.853L750.823 907.785Z" fill="white"/>
<path fill-rule="evenodd" clip-rule="evenodd" d="M815.108 907.785L718.183 1027.41L705.983 1017.53L802.843 897.853L815.108 907.785Z" fill="white"/>
<path fill-rule="evenodd" clip-rule="evenodd" d="M879.394 907.785L782.468 1027.41L770.269 1017.53L867.128 897.853L879.394 907.785Z" fill="white"/>
<path fill-rule="evenodd" clip-rule="evenodd" d="M943.68 907.785L846.754 1027.41L834.555 1017.53L931.414 897.853L943.68 907.785Z" fill="white"/>
<path fill-rule="evenodd" clip-rule="evenodd" d="M1007.97 907.785L911.04 1027.41L898.841 1017.53L995.7 897.853L1007.97 907.785Z" fill="white"/>
<path fill-rule="evenodd" clip-rule="evenodd" d="M1072.25 907.785L975.325 1027.41L963.126 1017.53L1059.99 897.853L1072.25 907.785Z" fill="white"/>
<path fill-rule="evenodd" clip-rule="evenodd" d="M1136.54 907.785L1039.61 1027.41L1027.41 1017.53L1124.27 897.853L1136.54 907.785Z" fill="white"/>
<path fill-rule="evenodd" clip-rule="evenodd" d="M1200.82 907.785L1103.9 1027.41L1091.7 1017.53L1188.56 897.853L1200.82 907.785Z" fill="white"/>
<path fill-rule="evenodd" clip-rule="evenodd" d="M1265.11 907.785L1168.18 1027.41L1155.98 1017.53L1252.84 897.853L1265.11 907.785Z" fill="white"/>
<path fill-rule="evenodd" clip-rule="evenodd" d="M1329.3 907.89L1232.46 1027.41L1220.27 1017.54L1317.04 897.967L1329.3 907.89Z" fill="white"/>
<path fill-rule="evenodd" clip-rule="evenodd" d="M1393.34 908.167L1296.72 1027.41L1284.56 1017.57L1381.11 898.267L1393.34 908.167Z" fill="white"/>
<path fill-rule="evenodd" clip-rule="evenodd" d="M1457.38 908.443L1360.98 1027.42L1348.84 1017.59L1445.18 898.566L1457.38 908.443Z" fill="white"/>
<path fill-rule="evenodd" clip-rule="evenodd" d="M1521.42 908.721L1425.24 1027.42L1413.14 1017.62L1509.25 898.866L1521.42 908.721Z" fill="white"/>
<path fill-rule="evenodd" clip-rule="evenodd" d="M1585.45 908.998L1489.5 1027.42L1477.42 1017.64L1573.31 899.166L1585.45 908.998Z" fill="white"/>
<path fill-rule="evenodd" clip-rule="evenodd" d="M1649.49 909.276L1553.76 1027.42L1541.71 1017.67L1637.38 899.466L1649.49 909.276Z" fill="white"/>
<path fill-rule="evenodd" clip-rule="evenodd" d="M1713.53 909.553L1618.02 1027.43L1606 1017.69L1701.44 899.766L1713.53 909.553Z" fill="white"/>
<path fill-rule="evenodd" clip-rule="evenodd" d="M1777.57 909.829L1682.28 1027.43L1670.29 1017.72L1765.51 900.066L1777.57 909.829Z" fill="white"/>
<path fill-rule="evenodd" clip-rule="evenodd" d="M1841.6 910.108L1746.54 1027.43L1734.58 1017.74L1829.58 900.366L1841.6 910.108Z" fill="white"/>
<path fill-rule="evenodd" clip-rule="evenodd" d="M1905.64 910.384L1810.8 1027.44L1798.87 1017.77L1893.64 900.667L1905.64 910.384Z" fill="white"/>
<path fill-rule="evenodd" clip-rule="evenodd" d="M1969.68 910.661L1875.06 1027.44L1863.15 1017.79L1957.71 900.966L1969.68 910.661Z" fill="white"/>
</g>
<defs>
<clipPath id="clip0_1_15151">
<rect width="1920" height="1080" fill="white"/>
</clipPath>
</defs>
</svg>
