<svg width="1920" height="1080" viewBox="0 0 1920 1080" fill="none" xmlns="http://www.w3.org/2000/svg">
<g clip-path="url(#clip0_1_10798)">
<path d="M1920 0H0V1080H1920V0Z" fill="black"/>
<path fill-rule="evenodd" clip-rule="evenodd" d="M44.2112 -0.456665L53.1182 -0.454211V0.453919L44.2112 0.456372V-0.456665Z" fill="white"/>
<path fill-rule="evenodd" clip-rule="evenodd" d="M97.6821 -0.461426L106.684 -0.458942V0.458884L97.6821 0.461361V-0.461426Z" fill="white"/>
<path fill-rule="evenodd" clip-rule="evenodd" d="M151.145 -0.466675L160.251 -0.464161V0.464268L151.145 0.466773V-0.466675Z" fill="white"/>
<path fill-rule="evenodd" clip-rule="evenodd" d="M204.595 -0.472412L213.815 -0.469875V0.470184L204.595 0.472719V-0.472412Z" fill="white"/>
<path fill-rule="evenodd" clip-rule="evenodd" d="M258.034 -0.479248L267.382 -0.476668V0.47617L258.034 0.478733V-0.479248Z" fill="white"/>
<path fill-rule="evenodd" clip-rule="evenodd" d="M311.461 -0.485962L320.944 -0.483345V0.483557L311.461 0.486167V-0.485962Z" fill="white"/>
<path fill-rule="evenodd" clip-rule="evenodd" d="M364.874 -0.493896L374.51 -0.49125V0.491153L364.874 0.493821V-0.493896Z" fill="white"/>
<path fill-rule="evenodd" clip-rule="evenodd" d="M418.269 -0.502686L428.073 -0.49999V0.499554L418.269 0.502242V-0.502686Z" fill="white"/>
<path fill-rule="evenodd" clip-rule="evenodd" d="M471.644 -0.512207L481.632 -0.509449V0.509006L471.644 0.511751V-0.512207Z" fill="white"/>
<path fill-rule="evenodd" clip-rule="evenodd" d="M525 -0.522583L535.194 -0.519774V0.51954L525 0.522336V-0.522583Z" fill="white"/>
<path fill-rule="evenodd" clip-rule="evenodd" d="M578.335 -0.53418L588.754 -0.531317V0.530949L578.335 0.533822V-0.53418Z" fill="white"/>
<path fill-rule="evenodd" clip-rule="evenodd" d="M631.647 -0.546631L642.312 -0.543702V0.543783L631.647 0.546704V-0.546631Z" fill="white"/>
<path fill-rule="evenodd" clip-rule="evenodd" d="M684.936 -0.560303L695.871 -0.557301V0.557651L684.936 0.560666V-0.560303Z" fill="white"/>
<path fill-rule="evenodd" clip-rule="evenodd" d="M738.202 -0.575439L749.428 -0.57236V0.572279L738.202 0.575346V-0.575439Z" fill="white"/>
<path fill-rule="evenodd" clip-rule="evenodd" d="M791.445 -0.591187L802.982 -0.588017V0.588351L791.445 0.591506V-0.591187Z" fill="white"/>
<path fill-rule="evenodd" clip-rule="evenodd" d="M844.671 -0.608398L856.538 -0.60512V0.604718L844.671 0.607992V-0.608398Z" fill="white"/>
<path fill-rule="evenodd" clip-rule="evenodd" d="M897.884 -0.625732L910.092 -0.622347V0.622178L897.884 0.625531V-0.625732Z" fill="white"/>
<path fill-rule="evenodd" clip-rule="evenodd" d="M951.092 -0.643433L963.645 -0.639972V0.639875L951.092 0.64334V-0.643433Z" fill="white"/>
<path fill-rule="evenodd" clip-rule="evenodd" d="M1004.3 -0.661255L1017.2 -0.657711V0.657386L1004.3 0.660959V-0.661255Z" fill="white"/>
<path fill-rule="evenodd" clip-rule="evenodd" d="M1057.52 -0.678467L1070.75 -0.674811V0.674801L1057.52 0.678444V-0.678467Z" fill="white"/>
<path fill-rule="evenodd" clip-rule="evenodd" d="M1110.75 -0.695312L1124.31 -0.691601V0.691217L1110.75 0.694941V-0.695312Z" fill="white"/>
<path fill-rule="evenodd" clip-rule="evenodd" d="M1163.99 -0.710938L1177.86 -0.70713V0.707126L1163.99 0.71093V-0.710938Z" fill="white"/>
<path fill-rule="evenodd" clip-rule="evenodd" d="M1217.26 -0.725586L1231.42 -0.72165V0.721981L1217.26 0.725831V-0.725586Z" fill="white"/>
<path fill-rule="evenodd" clip-rule="evenodd" d="M1270.55 -0.739258L1284.98 -0.735274V0.735409L1270.55 0.739378V-0.739258Z" fill="white"/>
<path fill-rule="evenodd" clip-rule="evenodd" d="M1323.87 -0.751709L1338.54 -0.747627V0.747959L1323.87 0.751987V-0.751709Z" fill="white"/>
<path fill-rule="evenodd" clip-rule="evenodd" d="M1377.21 -0.763306L1392.1 -0.759226V0.758952L1377.21 0.763045V-0.763306Z" fill="white"/>
<path fill-rule="evenodd" clip-rule="evenodd" d="M1430.57 -0.773682L1445.66 -0.769565V0.769148L1430.57 0.77326V-0.773682Z" fill="white"/>
<path fill-rule="evenodd" clip-rule="evenodd" d="M1483.95 -0.783203L1499.22 -0.77898V0.778378L1483.95 0.782527V-0.783203Z" fill="white"/>
<path fill-rule="evenodd" clip-rule="evenodd" d="M1537.34 -0.791504L1552.78 -0.78728V0.786923L1537.34 0.791116V-0.791504Z" fill="white"/>
<path fill-rule="evenodd" clip-rule="evenodd" d="M1590.76 -0.798828L1606.35 -0.794515V0.794907L1590.76 0.799235V-0.798828Z" fill="white"/>
<path fill-rule="evenodd" clip-rule="evenodd" d="M1644.19 -0.806152L1659.91 -0.801777V0.801507L1644.19 0.805812V-0.806152Z" fill="white"/>
<path fill-rule="evenodd" clip-rule="evenodd" d="M1697.63 -0.8125L1713.48 -0.808171V0.807693L1697.63 0.812079V-0.8125Z" fill="white"/>
<path fill-rule="evenodd" clip-rule="evenodd" d="M1751.08 -0.818237L1767.04 -0.813851V0.813473L1751.08 0.817924V-0.818237Z" fill="white"/>
<path fill-rule="evenodd" clip-rule="evenodd" d="M1804.55 -0.823486L1820.61 -0.819061V0.818761L1804.55 0.823111V-0.823486Z" fill="white"/>
<path fill-rule="evenodd" clip-rule="evenodd" d="M1858.02 -0.828125L1874.18 -0.823696V0.823623L1858.02 0.828087V-0.828125Z" fill="white"/>
<path fill-rule="evenodd" clip-rule="evenodd" d="M44.3743 53.123L53.1246 53.1254V54.0177L44.3743 54.02V53.123Z" fill="white"/>
<path fill-rule="evenodd" clip-rule="evenodd" d="M97.8516 53.1184L106.692 53.121V54.0223L97.8516 54.0248V53.1184Z" fill="white"/>
<path fill-rule="evenodd" clip-rule="evenodd" d="M151.318 53.1132L160.258 53.1155V54.0271L151.318 54.0294V53.1132Z" fill="white"/>
<path fill-rule="evenodd" clip-rule="evenodd" d="M204.775 53.1074L213.824 53.11V54.0327L204.775 54.0353V53.1074Z" fill="white"/>
<path fill-rule="evenodd" clip-rule="evenodd" d="M258.219 53.1017L267.39 53.104V54.0392L258.219 54.0418V53.1017Z" fill="white"/>
<path fill-rule="evenodd" clip-rule="evenodd" d="M311.648 53.0944L320.954 53.0969V54.0458L311.648 54.0484V53.0944Z" fill="white"/>
<path fill-rule="evenodd" clip-rule="evenodd" d="M365.064 53.087L374.518 53.0896V54.0535L365.064 54.056V53.087Z" fill="white"/>
<path fill-rule="evenodd" clip-rule="evenodd" d="M418.46 53.0781L428.081 53.0807V54.0617L418.46 54.0643V53.0781Z" fill="white"/>
<path fill-rule="evenodd" clip-rule="evenodd" d="M471.837 53.0687L481.645 53.0715V54.0714L471.837 54.0742V53.0687Z" fill="white"/>
<path fill-rule="evenodd" clip-rule="evenodd" d="M525.19 53.0582L535.204 53.061V54.0819L525.19 54.0847V53.0582Z" fill="white"/>
<path fill-rule="evenodd" clip-rule="evenodd" d="M578.517 53.0461L588.762 53.0491V54.0936L578.517 54.0966V53.0461Z" fill="white"/>
<path fill-rule="evenodd" clip-rule="evenodd" d="M631.818 53.0331L642.321 53.0359V54.1067L631.818 54.1097V53.0331Z" fill="white"/>
<path fill-rule="evenodd" clip-rule="evenodd" d="M685.093 53.0184L695.878 53.0214V54.1211L685.093 54.1241V53.0184Z" fill="white"/>
<path fill-rule="evenodd" clip-rule="evenodd" d="M738.336 53.0028L749.434 53.0058V54.1372L738.336 54.1404V53.0028Z" fill="white"/>
<path fill-rule="evenodd" clip-rule="evenodd" d="M791.551 52.9855L802.988 52.9885V54.1544L791.551 54.1576V52.9855Z" fill="white"/>
<path fill-rule="evenodd" clip-rule="evenodd" d="M844.746 52.9667L856.54 52.9699V54.1725L844.746 54.1757V52.9667Z" fill="white"/>
<path fill-rule="evenodd" clip-rule="evenodd" d="M897.922 52.9479L910.093 52.9511V54.192L897.922 54.1954V52.9479Z" fill="white"/>
<path fill-rule="evenodd" clip-rule="evenodd" d="M951.09 52.928L963.645 52.9314V54.2116L951.09 54.215V52.928Z" fill="white"/>
<path fill-rule="evenodd" clip-rule="evenodd" d="M1004.26 52.9081L1017.2 52.9117V54.2309L1004.26 54.2345V52.9081Z" fill="white"/>
<path fill-rule="evenodd" clip-rule="evenodd" d="M1057.44 52.8893L1070.75 52.8929V54.2502L1057.44 54.2539V52.8893Z" fill="white"/>
<path fill-rule="evenodd" clip-rule="evenodd" d="M1110.63 52.8704L1124.3 52.8742V54.2679L1110.63 54.2716V52.8704Z" fill="white"/>
<path fill-rule="evenodd" clip-rule="evenodd" d="M1163.85 52.8536L1177.86 52.8575V54.2851L1163.85 54.2889V52.8536Z" fill="white"/>
<path fill-rule="evenodd" clip-rule="evenodd" d="M1217.1 52.838L1231.41 52.8421L1231.42 54.3009L1217.1 54.305V52.838Z" fill="white"/>
<path fill-rule="evenodd" clip-rule="evenodd" d="M1270.38 52.8234L1284.97 52.8274V54.315L1270.38 54.3191V52.8234Z" fill="white"/>
<path fill-rule="evenodd" clip-rule="evenodd" d="M1323.69 52.8108L1338.53 52.8149V54.3281L1323.69 54.3322V52.8108Z" fill="white"/>
<path fill-rule="evenodd" clip-rule="evenodd" d="M1377.02 52.7987L1392.09 52.803V54.3394L1377.02 54.3437V52.7987Z" fill="white"/>
<path fill-rule="evenodd" clip-rule="evenodd" d="M1430.38 52.7888L1445.65 52.7929V54.3503L1430.38 54.3544V52.7888Z" fill="white"/>
<path fill-rule="evenodd" clip-rule="evenodd" d="M1483.75 52.7794L1499.21 52.7837V54.3596L1483.75 54.3638V52.7794Z" fill="white"/>
<path fill-rule="evenodd" clip-rule="evenodd" d="M1537.15 52.771L1552.77 52.7753V54.3679L1537.15 54.3721V52.771Z" fill="white"/>
<path fill-rule="evenodd" clip-rule="evenodd" d="M1590.57 52.7632L1606.34 52.7675V54.375L1590.57 54.3793V52.7632Z" fill="white"/>
<path fill-rule="evenodd" clip-rule="evenodd" d="M1644 52.7563L1659.9 52.7608V54.3817L1644 54.3862V52.7563Z" fill="white"/>
<path fill-rule="evenodd" clip-rule="evenodd" d="M1697.45 52.7506L1713.47 52.7549V54.3882L1697.45 54.3927V52.7506Z" fill="white"/>
<path fill-rule="evenodd" clip-rule="evenodd" d="M1750.91 52.7449L1767.03 52.7494V54.3934L1750.91 54.3979V52.7449Z" fill="white"/>
<path fill-rule="evenodd" clip-rule="evenodd" d="M1804.38 52.7396L1820.6 52.7441V54.3984L1804.38 54.4029V52.7396Z" fill="white"/>
<path fill-rule="evenodd" clip-rule="evenodd" d="M1857.85 52.7355L1874.17 52.74V54.4033L1857.85 54.4078V52.7355Z" fill="white"/>
<path fill-rule="evenodd" clip-rule="evenodd" d="M44.5481 106.703L53.1339 106.705V107.581L44.5481 107.583V106.703Z" fill="white"/>
<path fill-rule="evenodd" clip-rule="evenodd" d="M98.0315 106.698L106.702 106.701V107.585L98.0315 107.587V106.698Z" fill="white"/>
<path fill-rule="evenodd" clip-rule="evenodd" d="M151.505 106.693L160.268 106.696V107.589L151.505 107.592V106.693Z" fill="white"/>
<path fill-rule="evenodd" clip-rule="evenodd" d="M204.967 106.688L213.834 106.691V107.595L204.967 107.597V106.688Z" fill="white"/>
<path fill-rule="evenodd" clip-rule="evenodd" d="M258.415 106.682L267.398 106.685V107.601L258.415 107.603V106.682Z" fill="white"/>
<path fill-rule="evenodd" clip-rule="evenodd" d="M311.853 106.676L320.964 106.678V107.607L311.853 107.61V106.676Z" fill="white"/>
<path fill-rule="evenodd" clip-rule="evenodd" d="M365.271 106.668L374.528 106.671V107.615L365.271 107.617V106.668Z" fill="white"/>
<path fill-rule="evenodd" clip-rule="evenodd" d="M418.671 106.66L428.091 106.663V107.623L418.671 107.626V106.66Z" fill="white"/>
<path fill-rule="evenodd" clip-rule="evenodd" d="M472.05 106.651L481.654 106.653V107.632L472.05 107.635V106.651Z" fill="white"/>
<path fill-rule="evenodd" clip-rule="evenodd" d="M525.404 106.64L535.216 106.643V107.643L525.404 107.646V106.64Z" fill="white"/>
<path fill-rule="evenodd" clip-rule="evenodd" d="M578.729 106.628L588.774 106.631V107.655L578.729 107.658V106.628Z" fill="white"/>
<path fill-rule="evenodd" clip-rule="evenodd" d="M632.021 106.615L642.333 106.617V107.669L632.021 107.671V106.615Z" fill="white"/>
<path fill-rule="evenodd" clip-rule="evenodd" d="M685.277 106.599L695.888 106.602V107.683L685.277 107.686V106.599Z" fill="white"/>
<path fill-rule="evenodd" clip-rule="evenodd" d="M738.499 106.582L749.443 106.585V107.701L738.499 107.704V106.582Z" fill="white"/>
<path fill-rule="evenodd" clip-rule="evenodd" d="M791.683 106.563L802.995 106.566V107.72L791.683 107.723V106.563Z" fill="white"/>
<path fill-rule="evenodd" clip-rule="evenodd" d="M844.838 106.543L856.545 106.546V107.74L844.838 107.743V106.543Z" fill="white"/>
<path fill-rule="evenodd" clip-rule="evenodd" d="M897.968 106.521L910.094 106.525V107.761L897.968 107.765V106.521Z" fill="white"/>
<path fill-rule="evenodd" clip-rule="evenodd" d="M951.085 106.499L963.645 106.502V107.783L951.085 107.786V106.499Z" fill="white"/>
<path fill-rule="evenodd" clip-rule="evenodd" d="M1004.2 106.477L1017.19 106.481V107.805L1004.2 107.808V106.477Z" fill="white"/>
<path fill-rule="evenodd" clip-rule="evenodd" d="M1057.34 106.455L1070.74 106.459V107.826L1057.34 107.83V106.455Z" fill="white"/>
<path fill-rule="evenodd" clip-rule="evenodd" d="M1110.5 106.436L1124.3 106.439V107.846L1110.5 107.85V106.436Z" fill="white"/>
<path fill-rule="evenodd" clip-rule="evenodd" d="M1163.69 106.417L1177.85 106.421V107.865L1163.69 107.869V106.417Z" fill="white"/>
<path fill-rule="evenodd" clip-rule="evenodd" d="M1216.91 106.4L1231.4 106.404V107.881L1216.91 107.885V106.4Z" fill="white"/>
<path fill-rule="evenodd" clip-rule="evenodd" d="M1270.18 106.385L1284.96 106.389V107.897L1270.18 107.901V106.385Z" fill="white"/>
<path fill-rule="evenodd" clip-rule="evenodd" d="M1323.48 106.372L1338.52 106.376V107.91L1323.48 107.914V106.372Z" fill="white"/>
<path fill-rule="evenodd" clip-rule="evenodd" d="M1376.8 106.36L1392.08 106.364V107.922L1376.8 107.926V106.36Z" fill="white"/>
<path fill-rule="evenodd" clip-rule="evenodd" d="M1430.16 106.35L1445.64 106.354V107.932L1430.16 107.936V106.35Z" fill="white"/>
<path fill-rule="evenodd" clip-rule="evenodd" d="M1483.54 106.34L1499.2 106.345V107.941L1483.54 107.945V106.34Z" fill="white"/>
<path fill-rule="evenodd" clip-rule="evenodd" d="M1536.95 106.332L1552.77 106.336V107.949L1536.95 107.953V106.332Z" fill="white"/>
<path fill-rule="evenodd" clip-rule="evenodd" d="M1590.37 106.325L1606.33 106.329V107.956L1590.37 107.961V106.325Z" fill="white"/>
<path fill-rule="evenodd" clip-rule="evenodd" d="M1643.81 106.318L1659.89 106.323V107.963L1643.81 107.968V106.318Z" fill="white"/>
<path fill-rule="evenodd" clip-rule="evenodd" d="M1697.26 106.313L1713.46 106.317V107.969L1697.26 107.973V106.313Z" fill="white"/>
<path fill-rule="evenodd" clip-rule="evenodd" d="M1750.72 106.307L1767.03 106.312V107.974L1750.72 107.978V106.307Z" fill="white"/>
<path fill-rule="evenodd" clip-rule="evenodd" d="M1804.2 106.303L1820.59 106.307V107.979L1804.2 107.983V106.303Z" fill="white"/>
<path fill-rule="evenodd" clip-rule="evenodd" d="M1857.68 106.298L1874.16 106.303V107.983L1857.68 107.987V106.298Z" fill="white"/>
<path fill-rule="evenodd" clip-rule="evenodd" d="M44.728 160.283L53.1415 160.285V161.143L44.728 161.145V160.283Z" fill="white"/>
<path fill-rule="evenodd" clip-rule="evenodd" d="M98.22 160.279L106.711 160.281V161.147L98.22 161.149V160.279Z" fill="white"/>
<path fill-rule="evenodd" clip-rule="evenodd" d="M151.699 160.274L160.276 160.277V161.151L151.699 161.154V160.274Z" fill="white"/>
<path fill-rule="evenodd" clip-rule="evenodd" d="M205.17 160.27L213.844 160.272V161.156L205.17 161.159V160.27Z" fill="white"/>
<path fill-rule="evenodd" clip-rule="evenodd" d="M258.629 160.264L267.41 160.267V161.162L258.629 161.164V160.264Z" fill="white"/>
<path fill-rule="evenodd" clip-rule="evenodd" d="M312.073 160.258L320.974 160.26V161.168L312.073 161.17V160.258Z" fill="white"/>
<path fill-rule="evenodd" clip-rule="evenodd" d="M365.5 160.251L374.54 160.253V161.175L365.5 161.177V160.251Z" fill="white"/>
<path fill-rule="evenodd" clip-rule="evenodd" d="M418.908 160.243L428.103 160.245V161.183L418.908 161.186V160.243Z" fill="white"/>
<path fill-rule="evenodd" clip-rule="evenodd" d="M472.291 160.234L481.666 160.237V161.192L472.291 161.195V160.234Z" fill="white"/>
<path fill-rule="evenodd" clip-rule="evenodd" d="M525.646 160.224L535.225 160.226V161.203L525.646 161.206V160.224Z" fill="white"/>
<path fill-rule="evenodd" clip-rule="evenodd" d="M578.969 160.211L588.783 160.214V161.215L578.969 161.217V160.211Z" fill="white"/>
<path fill-rule="evenodd" clip-rule="evenodd" d="M632.256 160.197L642.342 160.2V161.229L632.256 161.232V160.197Z" fill="white"/>
<path fill-rule="evenodd" clip-rule="evenodd" d="M685.501 160.181L695.9 160.184V161.244L685.501 161.247V160.181Z" fill="white"/>
<path fill-rule="evenodd" clip-rule="evenodd" d="M738.696 160.163L749.451 160.166V161.262L738.696 161.265V160.163Z" fill="white"/>
<path fill-rule="evenodd" clip-rule="evenodd" d="M791.849 160.142L803.004 160.145V161.283L791.849 161.286V160.142Z" fill="white"/>
<path fill-rule="evenodd" clip-rule="evenodd" d="M844.955 160.12L856.552 160.123V161.306L844.955 161.309V160.12Z" fill="white"/>
<path fill-rule="evenodd" clip-rule="evenodd" d="M898.027 160.095L910.099 160.099V161.33L898.027 161.333V160.095Z" fill="white"/>
<path fill-rule="evenodd" clip-rule="evenodd" d="M951.081 160.07L963.645 160.074V161.355L951.081 161.358V160.07Z" fill="white"/>
<path fill-rule="evenodd" clip-rule="evenodd" d="M1004.14 160.045L1017.19 160.049V161.38L1004.14 161.384V160.045Z" fill="white"/>
<path fill-rule="evenodd" clip-rule="evenodd" d="M1057.21 160.021L1070.74 160.025V161.404L1057.21 161.408V160.021Z" fill="white"/>
<path fill-rule="evenodd" clip-rule="evenodd" d="M1110.33 159.999L1124.29 160.003V161.426L1110.33 161.43V159.999Z" fill="white"/>
<path fill-rule="evenodd" clip-rule="evenodd" d="M1163.48 159.978L1177.84 159.982V161.446L1163.48 161.45V159.978Z" fill="white"/>
<path fill-rule="evenodd" clip-rule="evenodd" d="M1216.69 159.96L1231.39 159.965V161.464L1216.69 161.468V159.96Z" fill="white"/>
<path fill-rule="evenodd" clip-rule="evenodd" d="M1269.94 159.945L1284.95 159.949V161.479L1269.94 161.483V159.945Z" fill="white"/>
<path fill-rule="evenodd" clip-rule="evenodd" d="M1323.23 159.932L1338.51 159.936V161.493L1323.23 161.497V159.932Z" fill="white"/>
<path fill-rule="evenodd" clip-rule="evenodd" d="M1376.56 159.92L1392.07 159.924V161.505L1376.56 161.509V159.92Z" fill="white"/>
<path fill-rule="evenodd" clip-rule="evenodd" d="M1429.92 159.909L1445.63 159.913V161.515L1429.92 161.519V159.909Z" fill="white"/>
<path fill-rule="evenodd" clip-rule="evenodd" d="M1483.31 159.9L1499.19 159.905V161.524L1483.31 161.528V159.9Z" fill="white"/>
<path fill-rule="evenodd" clip-rule="evenodd" d="M1536.72 159.892L1552.75 159.897V161.532L1536.72 161.536V159.892Z" fill="white"/>
<path fill-rule="evenodd" clip-rule="evenodd" d="M1590.15 159.886L1606.32 159.89V161.538L1590.15 161.543V159.886Z" fill="white"/>
<path fill-rule="evenodd" clip-rule="evenodd" d="M1643.6 159.879L1659.88 159.884V161.545L1643.6 161.549V159.879Z" fill="white"/>
<path fill-rule="evenodd" clip-rule="evenodd" d="M1697.06 159.874L1713.45 159.879V161.55L1697.06 161.555V159.874Z" fill="white"/>
<path fill-rule="evenodd" clip-rule="evenodd" d="M1750.53 159.869L1767.02 159.874V161.554L1750.53 161.559V159.869Z" fill="white"/>
<path fill-rule="evenodd" clip-rule="evenodd" d="M1804.01 159.865L1820.58 159.869V161.559L1804.01 161.564V159.865Z" fill="white"/>
<path fill-rule="evenodd" clip-rule="evenodd" d="M1857.5 159.861L1874.15 159.866V161.563L1857.5 161.568V159.861Z" fill="white"/>
<path fill-rule="evenodd" clip-rule="evenodd" d="M44.9185 213.864L53.1522 213.866V214.705L44.9185 214.708V213.864Z" fill="white"/>
<path fill-rule="evenodd" clip-rule="evenodd" d="M98.4165 213.86L106.72 213.862V214.71L98.4165 214.712V213.86Z" fill="white"/>
<path fill-rule="evenodd" clip-rule="evenodd" d="M151.906 213.856L160.287 213.859V214.712L151.906 214.714V213.856Z" fill="white"/>
<path fill-rule="evenodd" clip-rule="evenodd" d="M205.386 213.852L213.854 213.854V214.716L205.386 214.72V213.852Z" fill="white"/>
<path fill-rule="evenodd" clip-rule="evenodd" d="M258.855 213.847L267.42 213.849V214.723L258.855 214.725V213.847Z" fill="white"/>
<path fill-rule="evenodd" clip-rule="evenodd" d="M312.309 213.841L320.987 213.844V214.727L312.309 214.732V213.841Z" fill="white"/>
<path fill-rule="evenodd" clip-rule="evenodd" d="M365.746 213.834L374.551 213.837V214.733L365.746 214.738V213.834Z" fill="white"/>
<path fill-rule="evenodd" clip-rule="evenodd" d="M419.165 213.827L428.116 213.829V214.742L419.165 214.744V213.827Z" fill="white"/>
<path fill-rule="evenodd" clip-rule="evenodd" d="M472.559 213.819L481.679 213.821V214.751L472.559 214.753V213.819Z" fill="white"/>
<path fill-rule="evenodd" clip-rule="evenodd" d="M525.921 213.808L535.238 213.811V214.761L525.921 214.764V213.808Z" fill="white"/>
<path fill-rule="evenodd" clip-rule="evenodd" d="M579.25 213.796L588.8 213.799V214.772L579.25 214.774V213.796Z" fill="white"/>
<path fill-rule="evenodd" clip-rule="evenodd" d="M632.534 213.782L642.355 213.785V214.787L632.534 214.789V213.782Z" fill="white"/>
<path fill-rule="evenodd" clip-rule="evenodd" d="M685.769 213.766L695.913 213.769V214.802L685.769 214.806V213.766Z" fill="white"/>
<path fill-rule="evenodd" clip-rule="evenodd" d="M738.942 213.746L749.464 213.749V214.821L738.942 214.825V213.746Z" fill="white"/>
<path fill-rule="evenodd" clip-rule="evenodd" d="M792.056 213.724L803.012 213.727V214.845L792.056 214.847V213.724Z" fill="white"/>
<path fill-rule="evenodd" clip-rule="evenodd" d="M845.104 213.699L856.558 213.702V214.871L845.104 214.873V213.699Z" fill="white"/>
<path fill-rule="evenodd" clip-rule="evenodd" d="M898.104 213.671L910.102 213.674V214.896L898.104 214.901V213.671Z" fill="white"/>
<path fill-rule="evenodd" clip-rule="evenodd" d="M951.073 213.641L963.645 213.645V214.926L951.073 214.931V213.641Z" fill="white"/>
<path fill-rule="evenodd" clip-rule="evenodd" d="M1004.05 213.612L1017.19 213.616V214.957L1004.05 214.959V213.612Z" fill="white"/>
<path fill-rule="evenodd" clip-rule="evenodd" d="M1057.05 213.585L1070.73 213.589V214.982L1057.05 214.987V213.585Z" fill="white"/>
<path fill-rule="evenodd" clip-rule="evenodd" d="M1110.11 213.56L1124.28 213.563V215.008L1110.11 215.012V213.56Z" fill="white"/>
<path fill-rule="evenodd" clip-rule="evenodd" d="M1163.23 213.538L1177.83 213.541V215.029L1163.23 215.033V213.538Z" fill="white"/>
<path fill-rule="evenodd" clip-rule="evenodd" d="M1216.42 213.519L1231.38 213.523V215.049L1216.42 215.053V213.519Z" fill="white"/>
<path fill-rule="evenodd" clip-rule="evenodd" d="M1269.66 213.503L1284.94 213.507V215.064L1269.66 215.068V213.503Z" fill="white"/>
<path fill-rule="evenodd" clip-rule="evenodd" d="M1322.95 213.489L1338.49 213.493V215.078L1322.95 215.083V213.489Z" fill="white"/>
<path fill-rule="evenodd" clip-rule="evenodd" d="M1376.29 213.477L1392.05 213.482V215.089L1376.29 215.093V213.477Z" fill="white"/>
<path fill-rule="evenodd" clip-rule="evenodd" d="M1429.66 213.468L1445.61 213.472V215.1L1429.66 215.104V213.468Z" fill="white"/>
<path fill-rule="evenodd" clip-rule="evenodd" d="M1483.05 213.459L1499.18 213.464V215.108L1483.05 215.113V213.459Z" fill="white"/>
<path fill-rule="evenodd" clip-rule="evenodd" d="M1536.47 213.452L1552.74 213.456V215.115L1536.47 215.119V213.452Z" fill="white"/>
<path fill-rule="evenodd" clip-rule="evenodd" d="M1589.92 213.446L1606.31 213.45V215.121L1589.92 215.126V213.446Z" fill="white"/>
<path fill-rule="evenodd" clip-rule="evenodd" d="M1643.37 213.44L1659.87 213.445V215.128L1643.37 215.132V213.44Z" fill="white"/>
<path fill-rule="evenodd" clip-rule="evenodd" d="M1696.84 213.435L1713.44 213.44V215.132L1696.84 215.137V213.435Z" fill="white"/>
<path fill-rule="evenodd" clip-rule="evenodd" d="M1750.33 213.431L1767.01 213.435V215.137L1750.33 215.141V213.431Z" fill="white"/>
<path fill-rule="evenodd" clip-rule="evenodd" d="M1803.82 213.427L1820.57 213.431V215.141L1803.82 215.145V213.427Z" fill="white"/>
<path fill-rule="evenodd" clip-rule="evenodd" d="M1857.32 213.423L1874.14 213.428V215.143L1857.32 215.147V213.423Z" fill="white"/>
<path fill-rule="evenodd" clip-rule="evenodd" d="M45.113 267.446L53.1603 267.448V268.266L45.113 268.269V267.446Z" fill="white"/>
<path fill-rule="evenodd" clip-rule="evenodd" d="M98.6216 267.442L106.729 267.444V268.271L98.6216 268.273V267.442Z" fill="white"/>
<path fill-rule="evenodd" clip-rule="evenodd" d="M152.122 267.437L160.297 267.441V268.273L152.122 268.277V267.437Z" fill="white"/>
<path fill-rule="evenodd" clip-rule="evenodd" d="M205.614 267.435L213.865 267.437V268.277L205.614 268.279V267.435Z" fill="white"/>
<path fill-rule="evenodd" clip-rule="evenodd" d="M259.095 267.431L267.433 267.433V268.281L259.095 268.284V267.431Z" fill="white"/>
<path fill-rule="evenodd" clip-rule="evenodd" d="M312.562 267.424L320.998 267.426V268.288L312.562 268.29V267.424Z" fill="white"/>
<path fill-rule="evenodd" clip-rule="evenodd" d="M366.012 267.418L374.564 267.422V268.292L366.012 268.296V267.418Z" fill="white"/>
<path fill-rule="evenodd" clip-rule="evenodd" d="M419.446 267.411L428.128 267.414V268.301L419.446 268.303V267.411Z" fill="white"/>
<path fill-rule="evenodd" clip-rule="evenodd" d="M472.854 267.405L481.693 267.407V268.307L472.854 268.309V267.405Z" fill="white"/>
<path fill-rule="evenodd" clip-rule="evenodd" d="M526.232 267.394L535.254 267.396V268.318L526.232 268.32V267.394Z" fill="white"/>
<path fill-rule="evenodd" clip-rule="evenodd" d="M579.572 267.383L588.814 267.386V268.328L579.572 268.331V267.383Z" fill="white"/>
<path fill-rule="evenodd" clip-rule="evenodd" d="M632.863 267.371L642.373 267.373V268.341L632.863 268.343V267.371Z" fill="white"/>
<path fill-rule="evenodd" clip-rule="evenodd" d="M686.095 267.354L695.927 267.356V268.359L686.095 268.361V267.354Z" fill="white"/>
<path fill-rule="evenodd" clip-rule="evenodd" d="M739.254 267.332L749.48 267.336V268.378L739.254 268.382V267.332Z" fill="white"/>
<path fill-rule="evenodd" clip-rule="evenodd" d="M792.328 267.309L803.025 267.311V268.404L792.328 268.406V267.309Z" fill="white"/>
<path fill-rule="evenodd" clip-rule="evenodd" d="M845.307 267.281L856.568 267.283V268.431L845.307 268.433V267.281Z" fill="white"/>
<path fill-rule="evenodd" clip-rule="evenodd" d="M898.211 267.246L910.108 267.251V268.463L898.211 268.468V267.246Z" fill="white"/>
<path fill-rule="evenodd" clip-rule="evenodd" d="M951.064 267.212L963.645 267.216V268.498L951.064 268.502V267.212Z" fill="white"/>
<path fill-rule="evenodd" clip-rule="evenodd" d="M1003.92 267.178L1017.18 267.182V268.532L1003.92 268.536V267.178Z" fill="white"/>
<path fill-rule="evenodd" clip-rule="evenodd" d="M1056.84 267.146L1070.72 267.15V268.564L1056.84 268.568V267.146Z" fill="white"/>
<path fill-rule="evenodd" clip-rule="evenodd" d="M1109.83 267.118L1124.26 267.122V268.592L1109.83 268.596V267.118Z" fill="white"/>
<path fill-rule="evenodd" clip-rule="evenodd" d="M1162.92 267.094L1177.81 267.098V268.616L1162.92 268.62V267.094Z" fill="white"/>
<path fill-rule="evenodd" clip-rule="evenodd" d="M1216.09 267.075L1231.36 267.079V268.635L1216.09 268.639V267.075Z" fill="white"/>
<path fill-rule="evenodd" clip-rule="evenodd" d="M1269.33 267.058L1284.92 267.062V268.652L1269.33 268.656V267.058Z" fill="white"/>
<path fill-rule="evenodd" clip-rule="evenodd" d="M1322.63 267.045L1338.48 267.049V268.665L1322.63 268.669V267.045Z" fill="white"/>
<path fill-rule="evenodd" clip-rule="evenodd" d="M1375.98 267.034L1392.04 267.038V268.676L1375.98 268.68V267.034Z" fill="white"/>
<path fill-rule="evenodd" clip-rule="evenodd" d="M1429.36 267.026L1445.6 267.03V268.684L1429.36 268.688V267.026Z" fill="white"/>
<path fill-rule="evenodd" clip-rule="evenodd" d="M1482.78 267.017L1499.16 267.021V268.693L1482.78 268.697V267.017Z" fill="white"/>
<path fill-rule="evenodd" clip-rule="evenodd" d="M1536.21 267.011L1552.73 267.015V268.699L1536.21 268.704V267.011Z" fill="white"/>
<path fill-rule="evenodd" clip-rule="evenodd" d="M1589.67 267.004L1606.29 267.008V268.706L1589.67 268.71V267.004Z" fill="white"/>
<path fill-rule="evenodd" clip-rule="evenodd" d="M1643.13 267L1659.86 267.004V268.71L1643.13 268.714V267Z" fill="white"/>
<path fill-rule="evenodd" clip-rule="evenodd" d="M1696.62 266.996L1713.43 267V268.714L1696.62 268.719V266.996Z" fill="white"/>
<path fill-rule="evenodd" clip-rule="evenodd" d="M1750.11 266.991L1767 266.996V268.718L1750.11 268.723V266.991Z" fill="white"/>
<path fill-rule="evenodd" clip-rule="evenodd" d="M1803.61 266.989L1820.56 266.994V268.721L1803.61 268.725V266.989Z" fill="white"/>
<path fill-rule="evenodd" clip-rule="evenodd" d="M1857.12 266.985L1874.13 266.989V268.725L1857.12 268.729V266.985Z" fill="white"/>
<path fill-rule="evenodd" clip-rule="evenodd" d="M45.3159 321.026L53.1703 321.028V321.829L45.3159 321.831V321.026Z" fill="white"/>
<path fill-rule="evenodd" clip-rule="evenodd" d="M98.8352 321.024L106.74 321.026V321.832L98.8352 321.834V321.024Z" fill="white"/>
<path fill-rule="evenodd" clip-rule="evenodd" d="M152.348 321.021L160.308 321.023V321.833L152.348 321.836V321.021Z" fill="white"/>
<path fill-rule="evenodd" clip-rule="evenodd" d="M205.852 321.017L213.877 321.019V321.838L205.852 321.84V321.017Z" fill="white"/>
<path fill-rule="evenodd" clip-rule="evenodd" d="M259.348 321.013L267.444 321.015V321.842L259.348 321.844V321.013Z" fill="white"/>
<path fill-rule="evenodd" clip-rule="evenodd" d="M312.832 321.009L321.011 321.011V321.846L312.832 321.849V321.009Z" fill="white"/>
<path fill-rule="evenodd" clip-rule="evenodd" d="M366.301 321.004L374.579 321.006V321.851L366.301 321.853V321.004Z" fill="white"/>
<path fill-rule="evenodd" clip-rule="evenodd" d="M419.751 320.998L428.142 321V321.857L419.751 321.859V320.998Z" fill="white"/>
<path fill-rule="evenodd" clip-rule="evenodd" d="M473.18 320.991L481.709 320.994V321.864L473.18 321.866V320.991Z" fill="white"/>
<path fill-rule="evenodd" clip-rule="evenodd" d="M526.58 320.983L535.272 320.985V321.872L526.58 321.874V320.983Z" fill="white"/>
<path fill-rule="evenodd" clip-rule="evenodd" d="M579.94 320.972L588.831 320.974V321.883L579.94 321.885V320.972Z" fill="white"/>
<path fill-rule="evenodd" clip-rule="evenodd" d="M633.252 320.959L642.391 320.964V321.894L633.252 321.898V320.959Z" fill="white"/>
<path fill-rule="evenodd" clip-rule="evenodd" d="M686.497 320.944L695.947 320.946V321.911L686.497 321.913V320.944Z" fill="white"/>
<path fill-rule="evenodd" clip-rule="evenodd" d="M739.652 320.925L749.498 320.927V321.93L739.652 321.932V320.925Z" fill="white"/>
<path fill-rule="evenodd" clip-rule="evenodd" d="M792.692 320.897L803.044 320.901V321.956L792.692 321.96V320.897Z" fill="white"/>
<path fill-rule="evenodd" clip-rule="evenodd" d="M845.598 320.865L856.584 320.869V321.988L845.598 321.992V320.865Z" fill="white"/>
<path fill-rule="evenodd" clip-rule="evenodd" d="M898.368 320.826L910.115 320.831V322.026L898.368 322.031V320.826Z" fill="white"/>
<path fill-rule="evenodd" clip-rule="evenodd" d="M951.05 320.784L963.643 320.786V322.071L951.05 322.074V320.784Z" fill="white"/>
<path fill-rule="evenodd" clip-rule="evenodd" d="M1003.74 320.741L1017.17 320.743V322.114L1003.74 322.116V320.741Z" fill="white"/>
<path fill-rule="evenodd" clip-rule="evenodd" d="M1056.53 320.702L1070.71 320.706V322.151L1056.53 322.155V320.702Z" fill="white"/>
<path fill-rule="evenodd" clip-rule="evenodd" d="M1109.46 320.67L1124.25 320.674V322.183L1109.46 322.187V320.67Z" fill="white"/>
<path fill-rule="evenodd" clip-rule="evenodd" d="M1162.52 320.646L1177.79 320.651V322.207L1162.52 322.211V320.646Z" fill="white"/>
<path fill-rule="evenodd" clip-rule="evenodd" d="M1215.69 320.627L1231.35 320.631V322.226L1215.69 322.23V320.627Z" fill="white"/>
<path fill-rule="evenodd" clip-rule="evenodd" d="M1268.95 320.61L1284.9 320.614V322.243L1268.95 322.247V320.61Z" fill="white"/>
<path fill-rule="evenodd" clip-rule="evenodd" d="M1322.27 320.599L1338.46 320.604V322.254L1322.27 322.258V320.599Z" fill="white"/>
<path fill-rule="evenodd" clip-rule="evenodd" d="M1375.63 320.588L1392.02 320.593V322.264L1375.63 322.268V320.588Z" fill="white"/>
<path fill-rule="evenodd" clip-rule="evenodd" d="M1429.04 320.58L1445.58 320.584V322.273L1429.04 322.277V320.58Z" fill="white"/>
<path fill-rule="evenodd" clip-rule="evenodd" d="M1482.47 320.573L1499.15 320.578V322.279L1482.47 322.283V320.573Z" fill="white"/>
<path fill-rule="evenodd" clip-rule="evenodd" d="M1535.93 320.567L1552.72 320.574V322.284L1535.93 322.29V320.567Z" fill="white"/>
<path fill-rule="evenodd" clip-rule="evenodd" d="M1589.4 320.563L1606.28 320.567V322.29L1589.4 322.294V320.563Z" fill="white"/>
<path fill-rule="evenodd" clip-rule="evenodd" d="M1642.88 320.559L1659.85 320.563V322.294L1642.88 322.299V320.559Z" fill="white"/>
<path fill-rule="evenodd" clip-rule="evenodd" d="M1696.38 320.557L1713.42 320.561V322.297L1696.38 322.301V320.557Z" fill="white"/>
<path fill-rule="evenodd" clip-rule="evenodd" d="M1749.89 320.552L1766.99 320.556V322.301L1749.89 322.305V320.552Z" fill="white"/>
<path fill-rule="evenodd" clip-rule="evenodd" d="M1803.4 320.55L1820.55 320.554V322.303L1803.4 322.307V320.55Z" fill="white"/>
<path fill-rule="evenodd" clip-rule="evenodd" d="M1856.92 320.548L1874.12 320.552V322.305L1856.92 322.309V320.548Z" fill="white"/>
<path fill-rule="evenodd" clip-rule="evenodd" d="M45.5251 374.608L53.1818 374.61V375.39L45.5251 375.392V374.608Z" fill="white"/>
<path fill-rule="evenodd" clip-rule="evenodd" d="M99.0549 374.606L106.75 374.608V375.392L99.0549 375.394V374.606Z" fill="white"/>
<path fill-rule="evenodd" clip-rule="evenodd" d="M152.58 374.604L160.319 374.606V375.394L152.58 375.396V374.604Z" fill="white"/>
<path fill-rule="evenodd" clip-rule="evenodd" d="M206.099 374.601L213.888 374.603V375.396L206.099 375.398V374.601Z" fill="white"/>
<path fill-rule="evenodd" clip-rule="evenodd" d="M259.612 374.597L267.457 374.599V375.401L259.612 375.403V374.597Z" fill="white"/>
<path fill-rule="evenodd" clip-rule="evenodd" d="M313.115 374.595L321.026 374.597V375.403L313.115 375.405V374.595Z" fill="white"/>
<path fill-rule="evenodd" clip-rule="evenodd" d="M366.604 374.591L374.593 374.593V375.407L366.604 375.409V374.591Z" fill="white"/>
<path fill-rule="evenodd" clip-rule="evenodd" d="M420.08 374.586L428.16 374.589V375.411L420.08 375.414V374.586Z" fill="white"/>
<path fill-rule="evenodd" clip-rule="evenodd" d="M473.536 374.58L481.726 374.582V375.418L473.536 375.42V374.58Z" fill="white"/>
<path fill-rule="evenodd" clip-rule="evenodd" d="M526.965 374.574L535.29 374.576V375.424L526.965 375.426V374.574Z" fill="white"/>
<path fill-rule="evenodd" clip-rule="evenodd" d="M580.361 374.565L588.853 374.567V375.433L580.361 375.435V374.565Z" fill="white"/>
<path fill-rule="evenodd" clip-rule="evenodd" d="M633.708 374.554L642.414 374.556V375.444L633.708 375.446V374.554Z" fill="white"/>
<path fill-rule="evenodd" clip-rule="evenodd" d="M686.987 374.539L695.969 374.541V375.458L686.987 375.46V374.539Z" fill="white"/>
<path fill-rule="evenodd" clip-rule="evenodd" d="M740.165 374.52L749.522 374.522V375.478L740.165 375.48V374.52Z" fill="white"/>
<path fill-rule="evenodd" clip-rule="evenodd" d="M793.2 374.494L803.068 374.496V375.503L793.2 375.506V374.494Z" fill="white"/>
<path fill-rule="evenodd" clip-rule="evenodd" d="M846.031 374.458L856.604 374.46V375.54L846.031 375.542V374.458Z" fill="white"/>
<path fill-rule="evenodd" clip-rule="evenodd" d="M898.619 374.411L910.128 374.413V375.587L898.619 375.589V374.411Z" fill="white"/>
<path fill-rule="evenodd" clip-rule="evenodd" d="M951.027 374.353L963.644 374.357V375.643L951.027 375.647V374.353Z" fill="white"/>
<path fill-rule="evenodd" clip-rule="evenodd" d="M1003.45 374.297L1017.16 374.301V375.699L1003.45 375.703V374.297Z" fill="white"/>
<path fill-rule="evenodd" clip-rule="evenodd" d="M1056.08 374.252L1070.68 374.256V375.744L1056.08 375.748V374.252Z" fill="white"/>
<path fill-rule="evenodd" clip-rule="evenodd" d="M1108.95 374.218L1124.22 374.222V375.778L1108.95 375.782V374.218Z" fill="white"/>
<path fill-rule="evenodd" clip-rule="evenodd" d="M1162.01 374.192L1177.77 374.196V375.803L1162.01 375.808V374.192Z" fill="white"/>
<path fill-rule="evenodd" clip-rule="evenodd" d="M1215.21 374.175L1231.32 374.179V375.821L1215.21 375.825V374.175Z" fill="white"/>
<path fill-rule="evenodd" clip-rule="evenodd" d="M1268.5 374.16L1284.88 374.164V375.835L1268.5 375.84V374.16Z" fill="white"/>
<path fill-rule="evenodd" clip-rule="evenodd" d="M1321.85 374.149L1338.44 374.154V375.847L1321.85 375.851V374.149Z" fill="white"/>
<path fill-rule="evenodd" clip-rule="evenodd" d="M1375.25 374.141L1392 374.147L1392 375.853L1375.25 375.859V374.141Z" fill="white"/>
<path fill-rule="evenodd" clip-rule="evenodd" d="M1428.69 374.134L1445.57 374.138V375.861L1428.69 375.866V374.134Z" fill="white"/>
<path fill-rule="evenodd" clip-rule="evenodd" d="M1482.15 374.13L1499.13 374.134V375.866L1482.15 375.87V374.13Z" fill="white"/>
<path fill-rule="evenodd" clip-rule="evenodd" d="M1535.63 374.125L1552.7 374.13V375.87L1535.63 375.874V374.125Z" fill="white"/>
<path fill-rule="evenodd" clip-rule="evenodd" d="M1589.12 374.121L1606.27 374.126V375.874L1589.12 375.878V374.121Z" fill="white"/>
<path fill-rule="evenodd" clip-rule="evenodd" d="M1642.62 374.117L1659.83 374.121V375.879L1642.62 375.883V374.117Z" fill="white"/>
<path fill-rule="evenodd" clip-rule="evenodd" d="M1696.14 374.115L1713.41 374.119V375.881L1696.14 375.885V374.115Z" fill="white"/>
<path fill-rule="evenodd" clip-rule="evenodd" d="M1749.66 374.113L1766.97 374.117V375.883L1749.66 375.887V374.113Z" fill="white"/>
<path fill-rule="evenodd" clip-rule="evenodd" d="M1803.18 374.111L1820.54 374.115V375.885L1803.18 375.889V374.111Z" fill="white"/>
<path fill-rule="evenodd" clip-rule="evenodd" d="M1856.71 374.109L1874.11 374.113V375.887L1856.71 375.891V374.109Z" fill="white"/>
<path fill-rule="evenodd" clip-rule="evenodd" d="M45.7368 428.19L53.1911 428.192V428.951L45.7366 428.953L45.7368 428.19Z" fill="white"/>
<path fill-rule="evenodd" clip-rule="evenodd" d="M99.2808 428.188L106.762 428.19V428.953L99.2808 428.955V428.188Z" fill="white"/>
<path fill-rule="evenodd" clip-rule="evenodd" d="M152.821 428.186L160.332 428.188V428.955L152.821 428.957V428.186Z" fill="white"/>
<path fill-rule="evenodd" clip-rule="evenodd" d="M206.355 428.186H213.9V428.957H206.355V428.186Z" fill="white"/>
<path fill-rule="evenodd" clip-rule="evenodd" d="M259.886 428.184L267.472 428.186V428.957L259.886 428.959V428.184Z" fill="white"/>
<path fill-rule="evenodd" clip-rule="evenodd" d="M313.407 428.179L321.038 428.181V428.961L313.407 428.964V428.179Z" fill="white"/>
<path fill-rule="evenodd" clip-rule="evenodd" d="M366.925 428.177L374.609 428.179V428.963L366.925 428.966V428.177Z" fill="white"/>
<path fill-rule="evenodd" clip-rule="evenodd" d="M420.427 428.175L428.178 428.177V428.966L420.427 428.968V428.175Z" fill="white"/>
<path fill-rule="evenodd" clip-rule="evenodd" d="M473.917 428.171L481.745 428.173V428.97L473.917 428.972V428.171Z" fill="white"/>
<path fill-rule="evenodd" clip-rule="evenodd" d="M527.386 428.164L535.31 428.166V428.976L527.386 428.978V428.164Z" fill="white"/>
<path fill-rule="evenodd" clip-rule="evenodd" d="M580.827 428.16L588.874 428.162V428.981L580.827 428.985V428.16Z" fill="white"/>
<path fill-rule="evenodd" clip-rule="evenodd" d="M634.229 428.151L642.439 428.153V428.989L634.229 428.991V428.151Z" fill="white"/>
<path fill-rule="evenodd" clip-rule="evenodd" d="M687.573 428.139L695.998 428.143V429L687.573 429.004V428.139Z" fill="white"/>
<path fill-rule="evenodd" clip-rule="evenodd" d="M740.82 428.124L749.554 428.126V429.017L740.82 429.019V428.124Z" fill="white"/>
<path fill-rule="evenodd" clip-rule="evenodd" d="M793.91 428.1L803.103 428.102V429.041L793.91 429.043V428.1Z" fill="white"/>
<path fill-rule="evenodd" clip-rule="evenodd" d="M846.722 428.063L856.637 428.066V429.077L846.722 429.079V428.063Z" fill="white"/>
<path fill-rule="evenodd" clip-rule="evenodd" d="M899.083 428.004L910.151 428.008V429.135L899.083 429.139V428.004Z" fill="white"/>
<path fill-rule="evenodd" clip-rule="evenodd" d="M950.981 427.922L963.641 427.927V429.217L950.981 429.221V427.922Z" fill="white"/>
<path fill-rule="evenodd" clip-rule="evenodd" d="M1002.93 427.843L1017.13 427.847V429.295L1002.93 429.3V427.843Z" fill="white"/>
<path fill-rule="evenodd" clip-rule="evenodd" d="M1055.38 427.789L1070.65 427.794V429.349L1055.38 429.354V427.789Z" fill="white"/>
<path fill-rule="evenodd" clip-rule="evenodd" d="M1108.24 427.755L1124.19 427.759V429.384L1108.24 429.388V427.755Z" fill="white"/>
<path fill-rule="evenodd" clip-rule="evenodd" d="M1161.36 427.731L1177.74 427.735V429.407L1161.36 429.411V427.731Z" fill="white"/>
<path fill-rule="evenodd" clip-rule="evenodd" d="M1214.63 427.716L1231.29 427.723V429.42L1214.63 429.426V427.716Z" fill="white"/>
<path fill-rule="evenodd" clip-rule="evenodd" d="M1267.98 427.708L1284.85 427.712V429.431L1267.98 429.435V427.708Z" fill="white"/>
<path fill-rule="evenodd" clip-rule="evenodd" d="M1321.4 427.699L1338.42 427.704V429.439L1321.4 429.444V427.699Z" fill="white"/>
<path fill-rule="evenodd" clip-rule="evenodd" d="M1374.84 427.693L1391.98 427.697V429.446L1374.84 429.45V427.693Z" fill="white"/>
<path fill-rule="evenodd" clip-rule="evenodd" d="M1428.31 427.689L1445.55 427.693V429.45L1428.31 429.454V427.689Z" fill="white"/>
<path fill-rule="evenodd" clip-rule="evenodd" d="M1481.8 427.684L1499.12 427.688V429.454L1481.8 429.458V427.684Z" fill="white"/>
<path fill-rule="evenodd" clip-rule="evenodd" d="M1535.31 427.68L1552.69 427.686V429.456L1535.31 429.463V427.68Z" fill="white"/>
<path fill-rule="evenodd" clip-rule="evenodd" d="M1588.83 427.678L1606.25 427.682V429.461L1588.83 429.465V427.678Z" fill="white"/>
<path fill-rule="evenodd" clip-rule="evenodd" d="M1642.35 427.676L1659.82 427.68V429.463L1642.35 429.467V427.676Z" fill="white"/>
<path fill-rule="evenodd" clip-rule="evenodd" d="M1695.88 427.673L1713.39 427.678V429.465L1695.88 429.469V427.673Z" fill="white"/>
<path fill-rule="evenodd" clip-rule="evenodd" d="M1749.42 427.671L1766.96 427.678V429.465L1749.42 429.471V427.671Z" fill="white"/>
<path fill-rule="evenodd" clip-rule="evenodd" d="M1802.96 427.671L1820.53 427.676V429.467L1802.96 429.471V427.671Z" fill="white"/>
<path fill-rule="evenodd" clip-rule="evenodd" d="M1856.5 427.669L1874.1 427.673V429.469L1856.5 429.473V427.669Z" fill="white"/>
<path fill-rule="evenodd" clip-rule="evenodd" d="M45.9521 481.772L53.2014 481.774V482.511L45.9521 482.513V481.772Z" fill="white"/>
<path fill-rule="evenodd" clip-rule="evenodd" d="M99.509 481.77L106.772 481.772V482.513L99.509 482.516V481.77Z" fill="white"/>
<path fill-rule="evenodd" clip-rule="evenodd" d="M153.064 481.77L160.343 481.772V482.513L153.064 482.516V481.77Z" fill="white"/>
<path fill-rule="evenodd" clip-rule="evenodd" d="M206.616 481.768L213.914 481.77V482.516L206.616 482.518V481.768Z" fill="white"/>
<path fill-rule="evenodd" clip-rule="evenodd" d="M260.167 481.768L267.485 481.77V482.516L260.167 482.518V481.768Z" fill="white"/>
<path fill-rule="evenodd" clip-rule="evenodd" d="M313.713 481.766L321.055 481.768V482.518L313.713 482.52V481.766Z" fill="white"/>
<path fill-rule="evenodd" clip-rule="evenodd" d="M367.253 481.766L374.625 481.768V482.518L367.253 482.52V481.766Z" fill="white"/>
<path fill-rule="evenodd" clip-rule="evenodd" d="M420.789 481.764L428.195 481.766V482.52L420.789 482.522V481.764Z" fill="white"/>
<path fill-rule="evenodd" clip-rule="evenodd" d="M474.314 481.761L481.763 481.764V482.522L474.314 482.524V481.761Z" fill="white"/>
<path fill-rule="evenodd" clip-rule="evenodd" d="M527.831 481.759L535.333 481.761V482.524L527.831 482.526V481.759Z" fill="white"/>
<path fill-rule="evenodd" clip-rule="evenodd" d="M581.332 481.755L588.9 481.757V482.528L581.332 482.531V481.755Z" fill="white"/>
<path fill-rule="evenodd" clip-rule="evenodd" d="M634.809 481.751L642.467 481.753V482.533L634.809 482.535V481.751Z" fill="white"/>
<path fill-rule="evenodd" clip-rule="evenodd" d="M688.249 481.744L696.031 481.746V482.539L688.249 482.541V481.744Z" fill="white"/>
<path fill-rule="evenodd" clip-rule="evenodd" d="M741.625 481.734L749.592 481.736V482.55L741.625 482.552V481.734Z" fill="white"/>
<path fill-rule="evenodd" clip-rule="evenodd" d="M794.885 481.719L803.15 481.721V482.565L794.885 482.567V481.719Z" fill="white"/>
<path fill-rule="evenodd" clip-rule="evenodd" d="M847.873 481.691L856.693 481.693V482.593L847.873 482.595V481.691Z" fill="white"/>
<path fill-rule="evenodd" clip-rule="evenodd" d="M900.146 481.626L910.203 481.631V482.655L900.146 482.659V481.626Z" fill="white"/>
<path fill-rule="evenodd" clip-rule="evenodd" d="M950.851 481.487L963.635 481.491V482.794L950.851 482.798V481.487Z" fill="white"/>
<path fill-rule="evenodd" clip-rule="evenodd" d="M1001.8 481.361L1017.08 481.365V482.921L1001.8 482.925V481.361Z" fill="white"/>
<path fill-rule="evenodd" clip-rule="evenodd" d="M1054.25 481.305L1070.6 481.309V482.977L1054.25 482.981V481.305Z" fill="white"/>
<path fill-rule="evenodd" clip-rule="evenodd" d="M1107.3 481.279L1124.14 481.283V483.002L1107.3 483.006V481.279Z" fill="white"/>
<path fill-rule="evenodd" clip-rule="evenodd" d="M1160.58 481.266L1177.7 481.271V483.015L1160.58 483.019V481.266Z" fill="white"/>
<path fill-rule="evenodd" clip-rule="evenodd" d="M1213.97 481.256L1231.26 481.262V483.023L1213.97 483.03V481.256Z" fill="white"/>
<path fill-rule="evenodd" clip-rule="evenodd" d="M1267.42 481.251L1284.83 481.256V483.03L1267.42 483.034V481.251Z" fill="white"/>
<path fill-rule="evenodd" clip-rule="evenodd" d="M1320.9 481.247L1338.39 481.251V483.034L1320.9 483.039V481.247Z" fill="white"/>
<path fill-rule="evenodd" clip-rule="evenodd" d="M1374.4 481.243L1391.96 481.247V483.039L1374.4 483.043V481.243Z" fill="white"/>
<path fill-rule="evenodd" clip-rule="evenodd" d="M1427.92 481.241L1445.53 481.245V483.041L1427.92 483.045V481.241Z" fill="white"/>
<path fill-rule="evenodd" clip-rule="evenodd" d="M1481.45 481.239L1499.1 481.243V483.043L1481.45 483.047V481.239Z" fill="white"/>
<path fill-rule="evenodd" clip-rule="evenodd" d="M1534.99 481.236L1552.67 481.24V483.045L1534.99 483.049V481.236Z" fill="white"/>
<path fill-rule="evenodd" clip-rule="evenodd" d="M1588.53 481.234L1606.24 481.241V483.045L1588.53 483.051V481.234Z" fill="white"/>
<path fill-rule="evenodd" clip-rule="evenodd" d="M1642.08 481.234L1659.81 481.238V483.047L1642.08 483.051V481.234Z" fill="white"/>
<path fill-rule="evenodd" clip-rule="evenodd" d="M1695.63 481.232L1713.38 481.238V483.047L1695.63 483.053V481.232Z" fill="white"/>
<path fill-rule="evenodd" clip-rule="evenodd" d="M1749.18 481.232L1766.95 481.236V483.049L1749.18 483.053V481.232Z" fill="white"/>
<path fill-rule="evenodd" clip-rule="evenodd" d="M1802.73 481.232L1820.52 481.236V483.049L1802.73 483.053V481.232Z" fill="white"/>
<path fill-rule="evenodd" clip-rule="evenodd" d="M1856.29 481.23L1874.09 481.234V483.051L1856.29 483.056V481.23Z" fill="white"/>
<path fill-rule="evenodd" clip-rule="evenodd" d="M46.1697 535.354H53.2126V536.074H46.1697V535.354Z" fill="white"/>
<path fill-rule="evenodd" clip-rule="evenodd" d="M99.739 535.354H106.783V536.074H99.739V535.354Z" fill="white"/>
<path fill-rule="evenodd" clip-rule="evenodd" d="M153.311 535.352L160.356 535.354V536.074L153.311 536.076L153.311 535.352Z" fill="white"/>
<path fill-rule="evenodd" clip-rule="evenodd" d="M206.88 535.352L213.926 535.354V536.074L206.88 536.076V535.352Z" fill="white"/>
<path fill-rule="evenodd" clip-rule="evenodd" d="M260.449 535.352L267.497 535.354V536.074L260.449 536.076V535.352Z" fill="white"/>
<path fill-rule="evenodd" clip-rule="evenodd" d="M314.019 535.352L321.069 535.354V536.074L314.019 536.076V535.352Z" fill="white"/>
<path fill-rule="evenodd" clip-rule="evenodd" d="M367.588 535.352L374.64 535.354V536.074L367.588 536.076V535.352Z" fill="white"/>
<path fill-rule="evenodd" clip-rule="evenodd" d="M421.157 535.352L428.212 535.354V536.074L421.157 536.076V535.352Z" fill="white"/>
<path fill-rule="evenodd" clip-rule="evenodd" d="M474.727 535.352L481.783 535.354V536.074L474.727 536.076V535.352Z" fill="white"/>
<path fill-rule="evenodd" clip-rule="evenodd" d="M528.294 535.352L535.355 535.354V536.074L528.294 536.076V535.352Z" fill="white"/>
<path fill-rule="evenodd" clip-rule="evenodd" d="M581.859 535.352L588.926 535.354V536.074L581.859 536.076V535.352Z" fill="white"/>
<path fill-rule="evenodd" clip-rule="evenodd" d="M635.424 535.352L642.498 535.354V536.074L635.424 536.076V535.352Z" fill="white"/>
<path fill-rule="evenodd" clip-rule="evenodd" d="M688.985 535.352H696.067V536.076H688.985V535.352Z" fill="white"/>
<path fill-rule="evenodd" clip-rule="evenodd" d="M742.54 535.35L749.637 535.352V536.076L742.54 536.078V535.35Z" fill="white"/>
<path fill-rule="evenodd" clip-rule="evenodd" d="M796.086 535.35L803.209 535.352L803.207 536.076L796.086 536.078V535.35Z" fill="white"/>
<path fill-rule="evenodd" clip-rule="evenodd" d="M849.605 535.346L856.777 535.348V536.081L849.605 536.083V535.346Z" fill="white"/>
<path fill-rule="evenodd" clip-rule="evenodd" d="M903.011 535.339L910.342 535.341V536.087L903.011 536.089V535.339Z" fill="white"/>
<path fill-rule="evenodd" clip-rule="evenodd" d="M948.233 534.932L963.507 534.936V536.492L948.233 536.496V534.932Z" fill="white"/>
<path fill-rule="evenodd" clip-rule="evenodd" d="M999.187 534.803L1016.95 534.808V536.621L999.187 536.625V534.803Z" fill="white"/>
<path fill-rule="evenodd" clip-rule="evenodd" d="M1052.63 534.797L1070.51 534.801V536.627L1052.63 536.631V534.797Z" fill="white"/>
<path fill-rule="evenodd" clip-rule="evenodd" d="M1106.15 534.795L1124.09 534.799V536.629L1106.15 536.633V534.795Z" fill="white"/>
<path fill-rule="evenodd" clip-rule="evenodd" d="M1159.7 534.795L1177.66 534.799V536.629L1159.7 536.633V534.795Z" fill="white"/>
<path fill-rule="evenodd" clip-rule="evenodd" d="M1213.26 534.793L1231.23 534.799V536.629L1213.26 536.636V534.793Z" fill="white"/>
<path fill-rule="evenodd" clip-rule="evenodd" d="M1266.82 534.793L1284.8 534.797V536.631L1266.82 536.636V534.793Z" fill="white"/>
<path fill-rule="evenodd" clip-rule="evenodd" d="M1320.38 534.793L1338.37 534.797V536.631L1320.38 536.636V534.793Z" fill="white"/>
<path fill-rule="evenodd" clip-rule="evenodd" d="M1373.95 534.793L1391.94 534.797V536.631L1373.95 536.636V534.793Z" fill="white"/>
<path fill-rule="evenodd" clip-rule="evenodd" d="M1427.52 534.793L1445.51 534.797V536.631L1427.52 536.636V534.793Z" fill="white"/>
<path fill-rule="evenodd" clip-rule="evenodd" d="M1481.09 534.793L1499.08 534.797V536.631L1481.09 536.636V534.793Z" fill="white"/>
<path fill-rule="evenodd" clip-rule="evenodd" d="M1534.65 534.793L1552.65 534.797V536.631L1534.65 536.638V534.793Z" fill="white"/>
<path fill-rule="evenodd" clip-rule="evenodd" d="M1588.22 534.791L1606.23 534.797V536.631L1588.22 536.638V534.791Z" fill="white"/>
<path fill-rule="evenodd" clip-rule="evenodd" d="M1641.79 534.791L1659.8 534.797V536.631L1641.79 536.638V534.791Z" fill="white"/>
<path fill-rule="evenodd" clip-rule="evenodd" d="M1695.36 534.791L1713.37 534.797V536.631L1695.36 536.638V534.791Z" fill="white"/>
<path fill-rule="evenodd" clip-rule="evenodd" d="M1748.93 534.791L1766.94 534.797V536.631L1748.93 536.638V534.791Z" fill="white"/>
<path fill-rule="evenodd" clip-rule="evenodd" d="M1802.5 534.791L1820.51 534.797V536.631L1802.5 536.638V534.791Z" fill="white"/>
<path fill-rule="evenodd" clip-rule="evenodd" d="M1856.07 534.791L1874.08 534.797V536.631L1856.07 536.638V534.791Z" fill="white"/>
<path fill-rule="evenodd" clip-rule="evenodd" d="M46.3875 588.934L53.2236 588.936V589.635L46.3875 589.637V588.934Z" fill="white"/>
<path fill-rule="evenodd" clip-rule="evenodd" d="M99.9714 588.936L106.796 588.938V589.633L99.9714 589.635V588.936Z" fill="white"/>
<path fill-rule="evenodd" clip-rule="evenodd" d="M153.557 588.936L160.368 588.938V589.633L153.557 589.635V588.936Z" fill="white"/>
<path fill-rule="evenodd" clip-rule="evenodd" d="M207.144 588.936L213.939 588.938L213.939 589.633L207.144 589.635V588.936Z" fill="white"/>
<path fill-rule="evenodd" clip-rule="evenodd" d="M260.734 588.939L267.512 588.941V589.631L260.734 589.633V588.939Z" fill="white"/>
<path fill-rule="evenodd" clip-rule="evenodd" d="M314.326 588.939L321.083 588.941V589.631L314.326 589.633V588.939Z" fill="white"/>
<path fill-rule="evenodd" clip-rule="evenodd" d="M367.925 588.941L374.658 588.943V589.629L367.925 589.631V588.941Z" fill="white"/>
<path fill-rule="evenodd" clip-rule="evenodd" d="M421.528 588.943L428.23 588.945V589.626L421.528 589.629V588.943Z" fill="white"/>
<path fill-rule="evenodd" clip-rule="evenodd" d="M475.137 588.945H481.803V589.626H475.137V588.945Z" fill="white"/>
<path fill-rule="evenodd" clip-rule="evenodd" d="M528.754 588.947H535.376V589.624H528.756L528.754 588.947Z" fill="white"/>
<path fill-rule="evenodd" clip-rule="evenodd" d="M582.388 588.949L588.952 588.951V589.62L582.388 589.622V588.949Z" fill="white"/>
<path fill-rule="evenodd" clip-rule="evenodd" d="M636.042 588.954L642.528 588.956V589.616L636.042 589.618V588.954Z" fill="white"/>
<path fill-rule="evenodd" clip-rule="evenodd" d="M689.724 588.958L696.103 588.96V589.611L689.724 589.614V588.958Z" fill="white"/>
<path fill-rule="evenodd" clip-rule="evenodd" d="M743.465 588.966L749.683 588.968V589.603L743.465 589.605V588.966Z" fill="white"/>
<path fill-rule="evenodd" clip-rule="evenodd" d="M797.31 588.981H803.267V589.59H797.31V588.981Z" fill="white"/>
<path fill-rule="evenodd" clip-rule="evenodd" d="M851.403 589.005L856.865 589.007V589.564L851.403 589.566V589.005Z" fill="white"/>
<path fill-rule="evenodd" clip-rule="evenodd" d="M906.219 589.067H910.496V589.504H906.219V589.067Z" fill="white"/>
<path fill-rule="evenodd" clip-rule="evenodd" d="M939.884 588.096L963.104 588.103V590.468L939.884 590.475V588.096Z" fill="white"/>
<path fill-rule="evenodd" clip-rule="evenodd" d="M996.32 588.236L1016.81 588.24V590.332L996.32 590.336V588.236Z" fill="white"/>
<path fill-rule="evenodd" clip-rule="evenodd" d="M1050.95 588.287L1070.43 588.294V590.278L1050.95 590.284V588.287Z" fill="white"/>
<path fill-rule="evenodd" clip-rule="evenodd" d="M1104.99 588.311L1124.03 588.315V590.256L1104.99 590.26V588.311Z" fill="white"/>
<path fill-rule="evenodd" clip-rule="evenodd" d="M1158.81 588.321L1177.61 588.328V590.243L1158.81 590.25V588.321Z" fill="white"/>
<path fill-rule="evenodd" clip-rule="evenodd" d="M1212.54 588.33L1231.19 588.334V590.237L1212.54 590.241L1212.54 588.33Z" fill="white"/>
<path fill-rule="evenodd" clip-rule="evenodd" d="M1266.22 588.334L1284.77 588.341V590.231L1266.22 590.237V588.334Z" fill="white"/>
<path fill-rule="evenodd" clip-rule="evenodd" d="M1319.87 588.339L1338.34 588.343V590.229L1319.87 590.233V588.339Z" fill="white"/>
<path fill-rule="evenodd" clip-rule="evenodd" d="M1373.5 588.341L1391.92 588.347V590.224L1373.5 590.231V588.341Z" fill="white"/>
<path fill-rule="evenodd" clip-rule="evenodd" d="M1427.12 588.343L1445.49 588.349V590.222L1427.12 590.228V588.343Z" fill="white"/>
<path fill-rule="evenodd" clip-rule="evenodd" d="M1480.72 588.345L1499.07 588.352V590.22L1480.72 590.227V588.345Z" fill="white"/>
<path fill-rule="evenodd" clip-rule="evenodd" d="M1534.32 588.347L1552.64 588.351V590.22L1534.32 590.224V588.347Z" fill="white"/>
<path fill-rule="evenodd" clip-rule="evenodd" d="M1587.92 588.349L1606.21 588.354V590.218L1587.92 590.222V588.349Z" fill="white"/>
<path fill-rule="evenodd" clip-rule="evenodd" d="M1641.51 588.349L1659.78 588.354V590.218L1641.51 590.222V588.349Z" fill="white"/>
<path fill-rule="evenodd" clip-rule="evenodd" d="M1695.1 588.349L1713.36 588.356V590.216L1695.1 590.222V588.349Z" fill="white"/>
<path fill-rule="evenodd" clip-rule="evenodd" d="M1748.69 588.351L1766.93 588.356V590.216L1748.69 590.22V588.351Z" fill="white"/>
<path fill-rule="evenodd" clip-rule="evenodd" d="M1802.28 588.351L1820.5 588.356V590.216L1802.28 590.22V588.351Z" fill="white"/>
<path fill-rule="evenodd" clip-rule="evenodd" d="M1855.86 588.351L1874.07 588.358V590.214L1855.86 590.22V588.351Z" fill="white"/>
<path fill-rule="evenodd" clip-rule="evenodd" d="M46.6032 642.516L53.2339 642.519V643.196L46.603 643.198L46.6032 642.516Z" fill="white"/>
<path fill-rule="evenodd" clip-rule="evenodd" d="M100.199 642.519L106.805 642.521V643.194L100.199 643.196V642.519Z" fill="white"/>
<path fill-rule="evenodd" clip-rule="evenodd" d="M153.8 642.521L160.378 642.523V643.192L153.8 643.194V642.521Z" fill="white"/>
<path fill-rule="evenodd" clip-rule="evenodd" d="M207.405 642.521L213.951 642.523V643.192L207.405 643.194V642.521Z" fill="white"/>
<path fill-rule="evenodd" clip-rule="evenodd" d="M261.014 642.523L267.524 642.525V643.189L261.014 643.192V642.523Z" fill="white"/>
<path fill-rule="evenodd" clip-rule="evenodd" d="M314.632 642.525L321.099 642.527V643.187L314.632 643.189V642.525Z" fill="white"/>
<path fill-rule="evenodd" clip-rule="evenodd" d="M368.255 642.529H374.671V643.185H368.255V642.529Z" fill="white"/>
<path fill-rule="evenodd" clip-rule="evenodd" d="M421.89 642.531L428.247 642.533V643.181L421.89 643.183V642.531Z" fill="white"/>
<path fill-rule="evenodd" clip-rule="evenodd" d="M475.539 642.536H481.821V643.178H475.539V642.536Z" fill="white"/>
<path fill-rule="evenodd" clip-rule="evenodd" d="M529.204 642.54L535.399 642.542V643.172L529.204 643.174V642.54Z" fill="white"/>
<path fill-rule="evenodd" clip-rule="evenodd" d="M582.897 642.546H588.974V643.168H582.897V642.546Z" fill="white"/>
<path fill-rule="evenodd" clip-rule="evenodd" d="M636.625 642.553L642.555 642.555V643.159L636.625 643.161V642.553Z" fill="white"/>
<path fill-rule="evenodd" clip-rule="evenodd" d="M690.414 642.564L696.138 642.566V643.149L690.414 643.151V642.564Z" fill="white"/>
<path fill-rule="evenodd" clip-rule="evenodd" d="M744.291 642.579L749.723 642.581V643.134L744.291 643.136V642.579Z" fill="white"/>
<path fill-rule="evenodd" clip-rule="evenodd" d="M798.327 642.602H803.316V643.112H798.327V642.602Z" fill="white"/>
<path fill-rule="evenodd" clip-rule="evenodd" d="M852.648 642.638H856.925V643.076H852.648V642.638Z" fill="white"/>
<path fill-rule="evenodd" clip-rule="evenodd" d="M907.467 642.699H910.557V643.016H907.467V642.699Z" fill="white"/>
<path fill-rule="evenodd" clip-rule="evenodd" d="M939.718 641.659L963.095 641.666V644.048L939.718 644.055V641.659Z" fill="white"/>
<path fill-rule="evenodd" clip-rule="evenodd" d="M995.02 641.743L1016.75 641.749V643.965L995.02 643.971V641.743Z" fill="white"/>
<path fill-rule="evenodd" clip-rule="evenodd" d="M1049.74 641.801L1070.38 641.805V643.909L1049.74 643.914V641.801Z" fill="white"/>
<path fill-rule="evenodd" clip-rule="evenodd" d="M1104.01 641.833L1123.98 641.839V643.875L1104.01 643.881V641.833Z" fill="white"/>
<path fill-rule="evenodd" clip-rule="evenodd" d="M1158.01 641.854L1177.58 641.861V643.853L1158.01 643.86V641.854Z" fill="white"/>
<path fill-rule="evenodd" clip-rule="evenodd" d="M1211.87 641.869L1231.16 641.873V643.841L1211.87 643.845V641.869Z" fill="white"/>
<path fill-rule="evenodd" clip-rule="evenodd" d="M1265.65 641.878L1284.74 641.884V643.83L1265.65 643.836V641.878Z" fill="white"/>
<path fill-rule="evenodd" clip-rule="evenodd" d="M1319.37 641.886L1338.32 641.891V643.824L1319.37 643.828V641.886Z" fill="white"/>
<path fill-rule="evenodd" clip-rule="evenodd" d="M1373.06 641.891L1391.9 641.897V643.817L1373.06 643.823V641.891Z" fill="white"/>
<path fill-rule="evenodd" clip-rule="evenodd" d="M1426.72 641.895L1445.47 641.901V643.813L1426.72 643.819V641.895Z" fill="white"/>
<path fill-rule="evenodd" clip-rule="evenodd" d="M1480.36 641.899L1499.05 641.906V643.808L1480.36 643.815V641.899Z" fill="white"/>
<path fill-rule="evenodd" clip-rule="evenodd" d="M1534 641.903L1552.62 641.908V643.806L1534 643.811V641.903Z" fill="white"/>
<path fill-rule="evenodd" clip-rule="evenodd" d="M1587.62 641.906L1606.2 641.91V643.804L1587.62 643.808V641.906Z" fill="white"/>
<path fill-rule="evenodd" clip-rule="evenodd" d="M1641.24 641.908L1659.77 641.912V643.802L1641.24 643.807V641.908Z" fill="white"/>
<path fill-rule="evenodd" clip-rule="evenodd" d="M1694.84 641.91L1713.34 641.914V643.8L1694.84 643.804V641.91Z" fill="white"/>
<path fill-rule="evenodd" clip-rule="evenodd" d="M1748.45 641.91L1766.92 641.916V643.798L1748.45 643.804V641.91Z" fill="white"/>
<path fill-rule="evenodd" clip-rule="evenodd" d="M1802.05 641.912L1820.49 641.916V643.798L1802.05 643.802V641.912Z" fill="white"/>
<path fill-rule="evenodd" clip-rule="evenodd" d="M1855.65 641.914L1874.06 641.919V643.796L1855.65 643.8V641.914Z" fill="white"/>
<path fill-rule="evenodd" clip-rule="evenodd" d="M46.8164 696.098L53.2443 696.1V696.756L46.8164 696.758V696.098Z" fill="white"/>
<path fill-rule="evenodd" clip-rule="evenodd" d="M100.426 696.101L106.817 696.103V696.754L100.426 696.756V696.101Z" fill="white"/>
<path fill-rule="evenodd" clip-rule="evenodd" d="M154.041 696.103L160.39 696.105V696.752L154.041 696.754V696.103Z" fill="white"/>
<path fill-rule="evenodd" clip-rule="evenodd" d="M207.663 696.105L213.965 696.107V696.75L207.663 696.752V696.105Z" fill="white"/>
<path fill-rule="evenodd" clip-rule="evenodd" d="M261.291 696.109H267.537V696.748H261.291V696.109Z" fill="white"/>
<path fill-rule="evenodd" clip-rule="evenodd" d="M314.927 696.111L321.113 696.113V696.743L314.927 696.746V696.111Z" fill="white"/>
<path fill-rule="evenodd" clip-rule="evenodd" d="M368.578 696.116L374.689 696.118V696.739L368.578 696.741V696.116Z" fill="white"/>
<path fill-rule="evenodd" clip-rule="evenodd" d="M422.239 696.12L428.265 696.122V696.735L422.239 696.737V696.12Z" fill="white"/>
<path fill-rule="evenodd" clip-rule="evenodd" d="M475.921 696.124L481.84 696.126V696.73L475.921 696.733V696.124Z" fill="white"/>
<path fill-rule="evenodd" clip-rule="evenodd" d="M529.629 696.133H535.419V696.724H529.629V696.133Z" fill="white"/>
<path fill-rule="evenodd" clip-rule="evenodd" d="M583.37 696.139L588.999 696.141V696.716L583.37 696.718V696.139Z" fill="white"/>
<path fill-rule="evenodd" clip-rule="evenodd" d="M637.159 696.15L642.58 696.152V696.705L637.159 696.707V696.15Z" fill="white"/>
<path fill-rule="evenodd" clip-rule="evenodd" d="M691.015 696.165H696.164V696.692H691.015V696.165Z" fill="white"/>
<path fill-rule="evenodd" clip-rule="evenodd" d="M744.971 696.184H749.756V696.673H744.971V696.184Z" fill="white"/>
<path fill-rule="evenodd" clip-rule="evenodd" d="M799.076 696.21H803.354V696.647H799.076V696.21Z" fill="white"/>
<path fill-rule="evenodd" clip-rule="evenodd" d="M853.397 696.247H856.961V696.611H853.397V696.247Z" fill="white"/>
<path fill-rule="evenodd" clip-rule="evenodd" d="M884.87 695.169L909.462 695.175V697.682L884.87 697.689V695.169Z" fill="white"/>
<path fill-rule="evenodd" clip-rule="evenodd" d="M939.664 695.229L963.092 695.235V697.622L939.664 697.629V695.229Z" fill="white"/>
<path fill-rule="evenodd" clip-rule="evenodd" d="M994.438 695.287L1016.72 695.293V697.564L994.438 697.571V695.287Z" fill="white"/>
<path fill-rule="evenodd" clip-rule="evenodd" d="M1048.99 695.334L1070.34 695.34V697.517L1048.99 697.524V695.334Z" fill="white"/>
<path fill-rule="evenodd" clip-rule="evenodd" d="M1103.27 695.368L1123.95 695.374V697.483L1103.27 697.489V695.368Z" fill="white"/>
<path fill-rule="evenodd" clip-rule="evenodd" d="M1157.34 695.394L1177.54 695.398V697.459L1157.34 697.464V695.394Z" fill="white"/>
<path fill-rule="evenodd" clip-rule="evenodd" d="M1211.28 695.411L1231.13 695.417V697.44L1211.28 697.446V695.411Z" fill="white"/>
<path fill-rule="evenodd" clip-rule="evenodd" d="M1265.12 695.424L1284.71 695.43V697.427L1265.12 697.434V695.424Z" fill="white"/>
<path fill-rule="evenodd" clip-rule="evenodd" d="M1318.9 695.434L1338.3 695.441V697.416L1318.9 697.423V695.434Z" fill="white"/>
<path fill-rule="evenodd" clip-rule="evenodd" d="M1372.64 695.443L1391.88 695.447V697.41L1372.64 697.414V695.443Z" fill="white"/>
<path fill-rule="evenodd" clip-rule="evenodd" d="M1426.34 695.449L1445.45 695.454V697.403L1426.34 697.408V695.449Z" fill="white"/>
<path fill-rule="evenodd" clip-rule="evenodd" d="M1480.02 695.453L1499.03 695.46V697.397L1480.02 697.403V695.453Z" fill="white"/>
<path fill-rule="evenodd" clip-rule="evenodd" d="M1533.68 695.458L1552.61 695.464V697.393L1533.68 697.399V695.458Z" fill="white"/>
<path fill-rule="evenodd" clip-rule="evenodd" d="M1587.33 695.462L1606.18 695.466V697.391L1587.33 697.395V695.462Z" fill="white"/>
<path fill-rule="evenodd" clip-rule="evenodd" d="M1640.96 695.467L1659.76 695.471V697.387L1640.96 697.391V695.467Z" fill="white"/>
<path fill-rule="evenodd" clip-rule="evenodd" d="M1694.59 695.469L1713.33 695.473V697.384L1694.59 697.388V695.469Z" fill="white"/>
<path fill-rule="evenodd" clip-rule="evenodd" d="M1748.21 695.471L1766.9 695.475V697.382L1748.21 697.386V695.471Z" fill="white"/>
<path fill-rule="evenodd" clip-rule="evenodd" d="M1801.82 695.473L1820.48 695.477V697.38L1801.82 697.384V695.473Z" fill="white"/>
<path fill-rule="evenodd" clip-rule="evenodd" d="M1855.43 695.475L1874.05 695.479V697.378L1855.43 697.382V695.475Z" fill="white"/>
<path fill-rule="evenodd" clip-rule="evenodd" d="M47.0237 749.681L53.253 749.683V750.317L47.0237 750.319V749.681Z" fill="white"/>
<path fill-rule="evenodd" clip-rule="evenodd" d="M100.647 749.683L106.828 749.685V750.315L100.647 750.317V749.683Z" fill="white"/>
<path fill-rule="evenodd" clip-rule="evenodd" d="M154.275 749.685L160.402 749.687L160.402 750.313L154.275 750.315V749.685Z" fill="white"/>
<path fill-rule="evenodd" clip-rule="evenodd" d="M207.912 749.689L213.977 749.691V750.308L207.912 750.311V749.689Z" fill="white"/>
<path fill-rule="evenodd" clip-rule="evenodd" d="M261.556 749.693H267.55V750.306H261.556V749.693Z" fill="white"/>
<path fill-rule="evenodd" clip-rule="evenodd" d="M315.211 749.698H321.126V750.302H315.211V749.698Z" fill="white"/>
<path fill-rule="evenodd" clip-rule="evenodd" d="M368.885 749.702L374.705 749.704V750.296L368.885 750.298V749.702Z" fill="white"/>
<path fill-rule="evenodd" clip-rule="evenodd" d="M422.572 749.707L428.28 749.709V750.291L422.572 750.294V749.707Z" fill="white"/>
<path fill-rule="evenodd" clip-rule="evenodd" d="M476.281 749.715H481.857V750.285H476.281V749.715Z" fill="white"/>
<path fill-rule="evenodd" clip-rule="evenodd" d="M530.02 749.721L535.437 749.724V750.276L530.02 750.279V749.721Z" fill="white"/>
<path fill-rule="evenodd" clip-rule="evenodd" d="M583.799 749.732L589.021 749.734V750.266L583.799 750.268V749.732Z" fill="white"/>
<path fill-rule="evenodd" clip-rule="evenodd" d="M637.624 749.745L642.601 749.747V750.253L637.624 750.255V749.745Z" fill="white"/>
<path fill-rule="evenodd" clip-rule="evenodd" d="M691.519 749.76L696.191 749.762V750.238L691.519 750.24V749.76Z" fill="white"/>
<path fill-rule="evenodd" clip-rule="evenodd" d="M745.505 749.781H749.782V750.218H745.505V749.781Z" fill="white"/>
<path fill-rule="evenodd" clip-rule="evenodd" d="M799.612 749.807H803.379V750.193H799.612V749.807Z" fill="white"/>
<path fill-rule="evenodd" clip-rule="evenodd" d="M853.862 749.839L856.984 749.841V750.158L853.862 750.161V749.839Z" fill="white"/>
<path fill-rule="evenodd" clip-rule="evenodd" d="M885.145 748.753L909.475 748.759V751.241L885.145 751.247V748.753Z" fill="white"/>
<path fill-rule="evenodd" clip-rule="evenodd" d="M939.639 748.798L963.09 748.804V751.196L939.639 751.202V748.798Z" fill="white"/>
<path fill-rule="evenodd" clip-rule="evenodd" d="M994.125 748.843L1016.71 748.849V751.151L994.125 751.157V748.843Z" fill="white"/>
<path fill-rule="evenodd" clip-rule="evenodd" d="M1048.5 748.882L1070.32 748.888V751.112L1048.5 751.119V748.882Z" fill="white"/>
<path fill-rule="evenodd" clip-rule="evenodd" d="M1102.73 748.913L1123.92 748.92V751.08L1102.73 751.086V748.913Z" fill="white"/>
<path fill-rule="evenodd" clip-rule="evenodd" d="M1156.81 748.939L1177.51 748.944V751.056L1156.81 751.061V748.939Z" fill="white"/>
<path fill-rule="evenodd" clip-rule="evenodd" d="M1210.78 748.958L1231.11 748.963V751.037L1210.78 751.041V748.958Z" fill="white"/>
<path fill-rule="evenodd" clip-rule="evenodd" d="M1264.66 748.974L1284.69 748.98V751.02L1264.66 751.027V748.974Z" fill="white"/>
<path fill-rule="evenodd" clip-rule="evenodd" d="M1318.48 748.986L1338.28 748.991V751.009L1318.48 751.013V748.986Z" fill="white"/>
<path fill-rule="evenodd" clip-rule="evenodd" d="M1372.25 748.995L1391.86 749.002V750.999L1372.25 751.005V748.995Z" fill="white"/>
<path fill-rule="evenodd" clip-rule="evenodd" d="M1425.99 749.003L1445.44 749.008V750.992L1425.99 750.996V749.003Z" fill="white"/>
<path fill-rule="evenodd" clip-rule="evenodd" d="M1479.69 749.01L1499.02 749.014V750.986L1479.69 750.99V749.01Z" fill="white"/>
<path fill-rule="evenodd" clip-rule="evenodd" d="M1533.38 749.014L1552.59 749.021V750.979L1533.38 750.986V749.014Z" fill="white"/>
<path fill-rule="evenodd" clip-rule="evenodd" d="M1587.05 749.021L1606.17 749.025V750.975L1587.05 750.979V749.021Z" fill="white"/>
<path fill-rule="evenodd" clip-rule="evenodd" d="M1640.7 749.025L1659.74 749.029V750.971L1640.7 750.975V749.025Z" fill="white"/>
<path fill-rule="evenodd" clip-rule="evenodd" d="M1694.34 749.027L1713.32 749.033V750.966L1694.34 750.973V749.027Z" fill="white"/>
<path fill-rule="evenodd" clip-rule="evenodd" d="M1747.98 749.031L1766.89 749.036V750.964L1747.98 750.968V749.031Z" fill="white"/>
<path fill-rule="evenodd" clip-rule="evenodd" d="M1801.61 749.033L1820.47 749.038V750.962L1801.61 750.966V749.033Z" fill="white"/>
<path fill-rule="evenodd" clip-rule="evenodd" d="M1855.23 749.036L1874.04 749.04V750.96L1855.23 750.964V749.036Z" fill="white"/>
<path fill-rule="evenodd" clip-rule="evenodd" d="M47.2288 803.263H53.2643V803.88H47.2288V803.263Z" fill="white"/>
<path fill-rule="evenodd" clip-rule="evenodd" d="M100.861 803.265L106.838 803.267V803.876L100.861 803.878V803.265Z" fill="white"/>
<path fill-rule="evenodd" clip-rule="evenodd" d="M154.501 803.269H160.413V803.874H154.501V803.269Z" fill="white"/>
<path fill-rule="evenodd" clip-rule="evenodd" d="M208.152 803.271L213.989 803.274V803.869L208.152 803.872V803.271Z" fill="white"/>
<path fill-rule="evenodd" clip-rule="evenodd" d="M261.812 803.276L267.563 803.278V803.865L261.812 803.867V803.276Z" fill="white"/>
<path fill-rule="evenodd" clip-rule="evenodd" d="M315.483 803.282H321.138V803.861H315.483V803.282Z" fill="white"/>
<path fill-rule="evenodd" clip-rule="evenodd" d="M369.174 803.286L374.718 803.289V803.854L369.174 803.856V803.286Z" fill="white"/>
<path fill-rule="evenodd" clip-rule="evenodd" d="M422.879 803.295H428.294V803.848H422.879V803.295Z" fill="white"/>
<path fill-rule="evenodd" clip-rule="evenodd" d="M476.612 803.302L481.875 803.304V803.839L476.612 803.842V803.302Z" fill="white"/>
<path fill-rule="evenodd" clip-rule="evenodd" d="M530.374 803.31L535.455 803.312V803.831L530.374 803.833V803.31Z" fill="white"/>
<path fill-rule="evenodd" clip-rule="evenodd" d="M584.176 803.323H589.038V803.82H584.176V803.323Z" fill="white"/>
<path fill-rule="evenodd" clip-rule="evenodd" d="M638.023 803.336L642.624 803.338V803.805L638.023 803.807V803.336Z" fill="white"/>
<path fill-rule="evenodd" clip-rule="evenodd" d="M691.934 803.353H696.211V803.79H691.934V803.353Z" fill="white"/>
<path fill-rule="evenodd" clip-rule="evenodd" d="M745.919 803.372L749.802 803.374V803.768L745.919 803.771V803.372Z" fill="white"/>
<path fill-rule="evenodd" clip-rule="evenodd" d="M799.995 803.398H803.398V803.745H799.995V803.398Z" fill="white"/>
<path fill-rule="evenodd" clip-rule="evenodd" d="M854.169 803.426L857 803.428V803.715L854.169 803.717V803.426Z" fill="white"/>
<path fill-rule="evenodd" clip-rule="evenodd" d="M885.314 802.333L909.483 802.339V804.804L885.314 804.81V802.333Z" fill="white"/>
<path fill-rule="evenodd" clip-rule="evenodd" d="M939.624 802.369L963.09 802.376V804.767L939.624 804.773V802.369Z" fill="white"/>
<path fill-rule="evenodd" clip-rule="evenodd" d="M993.93 802.404L1016.7 802.41V804.733L993.93 804.739V802.404Z" fill="white"/>
<path fill-rule="evenodd" clip-rule="evenodd" d="M1048.18 802.438L1070.3 802.444V804.698L1048.18 804.705V802.438Z" fill="white"/>
<path fill-rule="evenodd" clip-rule="evenodd" d="M1102.34 802.466L1123.9 802.472V804.671L1102.34 804.677V802.466Z" fill="white"/>
<path fill-rule="evenodd" clip-rule="evenodd" d="M1156.4 802.489L1177.5 802.496V804.647L1156.4 804.654V802.489Z" fill="white"/>
<path fill-rule="evenodd" clip-rule="evenodd" d="M1210.37 802.508L1231.09 802.515V804.628L1210.37 804.634V802.508Z" fill="white"/>
<path fill-rule="evenodd" clip-rule="evenodd" d="M1264.27 802.526L1284.67 802.532V804.611L1264.27 804.617V802.526Z" fill="white"/>
<path fill-rule="evenodd" clip-rule="evenodd" d="M1318.11 802.538L1338.26 802.545V804.598L1318.11 804.604V802.538Z" fill="white"/>
<path fill-rule="evenodd" clip-rule="evenodd" d="M1371.9 802.549L1391.84 802.556V804.587L1371.9 804.593V802.549Z" fill="white"/>
<path fill-rule="evenodd" clip-rule="evenodd" d="M1425.66 802.558L1445.42 802.564V804.579L1425.66 804.585V802.558Z" fill="white"/>
<path fill-rule="evenodd" clip-rule="evenodd" d="M1479.39 802.566L1499 802.571V804.572L1479.39 804.576V802.566Z" fill="white"/>
<path fill-rule="evenodd" clip-rule="evenodd" d="M1533.09 802.573L1552.58 802.577V804.566L1533.09 804.57V802.573Z" fill="white"/>
<path fill-rule="evenodd" clip-rule="evenodd" d="M1586.78 802.579L1606.16 802.584V804.559L1586.78 804.564V802.579Z" fill="white"/>
<path fill-rule="evenodd" clip-rule="evenodd" d="M1640.45 802.583L1659.73 802.588V804.555L1640.45 804.559V802.583Z" fill="white"/>
<path fill-rule="evenodd" clip-rule="evenodd" d="M1694.11 802.588L1713.31 802.592V804.551L1694.11 804.555V802.588Z" fill="white"/>
<path fill-rule="evenodd" clip-rule="evenodd" d="M1747.76 802.59L1766.88 802.597V804.547L1747.76 804.553V802.59Z" fill="white"/>
<path fill-rule="evenodd" clip-rule="evenodd" d="M1801.39 802.594L1820.46 802.598V804.544L1801.39 804.548V802.594Z" fill="white"/>
<path fill-rule="evenodd" clip-rule="evenodd" d="M1855.03 802.596L1874.03 802.603V804.54L1855.03 804.546V802.596Z" fill="white"/>
<path fill-rule="evenodd" clip-rule="evenodd" d="M47.4253 856.843L53.2734 856.845V857.441L47.4253 857.443V856.843Z" fill="white"/>
<path fill-rule="evenodd" clip-rule="evenodd" d="M101.068 856.847H106.848V857.438H101.068V856.847Z" fill="white"/>
<path fill-rule="evenodd" clip-rule="evenodd" d="M154.719 856.852H160.423V857.434H154.719V856.852Z" fill="white"/>
<path fill-rule="evenodd" clip-rule="evenodd" d="M208.38 856.856H213.999V857.43H208.38V856.856Z" fill="white"/>
<path fill-rule="evenodd" clip-rule="evenodd" d="M262.054 856.86L267.576 856.862V857.423L262.054 857.426V856.86Z" fill="white"/>
<path fill-rule="evenodd" clip-rule="evenodd" d="M315.739 856.866H321.152V857.419H315.739V856.866Z" fill="white"/>
<path fill-rule="evenodd" clip-rule="evenodd" d="M369.444 856.873H374.731V857.413H369.444V856.873Z" fill="white"/>
<path fill-rule="evenodd" clip-rule="evenodd" d="M423.166 856.879L428.309 856.881V857.404L423.166 857.406V856.879Z" fill="white"/>
<path fill-rule="evenodd" clip-rule="evenodd" d="M476.913 856.888L481.889 856.89V857.396L476.913 857.398V856.888Z" fill="white"/>
<path fill-rule="evenodd" clip-rule="evenodd" d="M530.692 856.899H535.47V857.387H530.692V856.899Z" fill="white"/>
<path fill-rule="evenodd" clip-rule="evenodd" d="M584.504 856.909L589.053 856.911V857.374L584.504 857.376V856.909Z" fill="white"/>
<path fill-rule="evenodd" clip-rule="evenodd" d="M638.362 856.924H642.639V857.361H638.362V856.924Z" fill="white"/>
<path fill-rule="evenodd" clip-rule="evenodd" d="M692.271 856.939L696.226 856.942V857.344L692.271 857.347V856.939Z" fill="white"/>
<path fill-rule="evenodd" clip-rule="evenodd" d="M746.244 856.961H749.818V857.325H746.244V856.961Z" fill="white"/>
<path fill-rule="evenodd" clip-rule="evenodd" d="M800.28 856.982L803.41 856.984V857.301L800.28 857.303V856.982Z" fill="white"/>
<path fill-rule="evenodd" clip-rule="evenodd" d="M831.268 855.881L855.887 855.887V858.399L831.268 858.405V855.881Z" fill="white"/>
<path fill-rule="evenodd" clip-rule="evenodd" d="M885.425 855.908L909.489 855.917V858.368L885.425 858.377V855.908Z" fill="white"/>
<path fill-rule="evenodd" clip-rule="evenodd" d="M939.614 855.941L963.089 855.947V858.339L939.614 858.345V855.941Z" fill="white"/>
<path fill-rule="evenodd" clip-rule="evenodd" d="M993.8 855.968L1016.69 855.975V858.311L993.8 858.317V855.968Z" fill="white"/>
<path fill-rule="evenodd" clip-rule="evenodd" d="M1047.95 855.999L1070.29 856.005V858.281L1047.95 858.287V855.999Z" fill="white"/>
<path fill-rule="evenodd" clip-rule="evenodd" d="M1102.04 856.024L1123.89 856.029V858.257L1102.04 858.262V856.024Z" fill="white"/>
<path fill-rule="evenodd" clip-rule="evenodd" d="M1156.07 856.046L1177.48 856.052V858.234L1156.07 858.24V856.046Z" fill="white"/>
<path fill-rule="evenodd" clip-rule="evenodd" d="M1210.03 856.065L1231.07 856.069V858.216L1210.03 858.221V856.065Z" fill="white"/>
<path fill-rule="evenodd" clip-rule="evenodd" d="M1263.93 856.08L1284.66 856.086V858.199L1263.93 858.206V856.08Z" fill="white"/>
<path fill-rule="evenodd" clip-rule="evenodd" d="M1317.78 856.095L1338.24 856.099V858.186L1317.78 858.191V856.095Z" fill="white"/>
<path fill-rule="evenodd" clip-rule="evenodd" d="M1371.59 856.106L1391.83 856.112V858.174L1371.59 858.18V856.106Z" fill="white"/>
<path fill-rule="evenodd" clip-rule="evenodd" d="M1425.36 856.116L1445.41 856.121V858.165L1425.36 858.169V856.116Z" fill="white"/>
<path fill-rule="evenodd" clip-rule="evenodd" d="M1479.1 856.123L1498.99 856.129V858.156L1479.1 858.163V856.123Z" fill="white"/>
<path fill-rule="evenodd" clip-rule="evenodd" d="M1532.83 856.131L1552.57 856.136V858.15L1532.83 858.154V856.131Z" fill="white"/>
<path fill-rule="evenodd" clip-rule="evenodd" d="M1586.52 856.138L1606.14 856.142V858.144L1586.52 858.148V856.138Z" fill="white"/>
<path fill-rule="evenodd" clip-rule="evenodd" d="M1640.21 856.142L1659.72 856.149V858.137L1640.21 858.144V856.142Z" fill="white"/>
<path fill-rule="evenodd" clip-rule="evenodd" d="M1693.88 856.149L1713.29 856.153V858.133L1693.88 858.137V856.149Z" fill="white"/>
<path fill-rule="evenodd" clip-rule="evenodd" d="M1747.54 856.153L1766.87 856.157V858.129L1747.54 858.133V856.153Z" fill="white"/>
<path fill-rule="evenodd" clip-rule="evenodd" d="M1801.19 856.155L1820.45 856.161V858.124L1801.19 858.131V856.155Z" fill="white"/>
<path fill-rule="evenodd" clip-rule="evenodd" d="M1854.83 856.159L1874.02 856.164V858.122L1854.83 858.127V856.159Z" fill="white"/>
<path fill-rule="evenodd" clip-rule="evenodd" d="M47.6157 910.423L53.2829 910.425V911.004L47.6157 911.006V910.423Z" fill="white"/>
<path fill-rule="evenodd" clip-rule="evenodd" d="M101.267 910.427L106.858 910.429V910.999L101.267 911.001L101.267 910.427Z" fill="white"/>
<path fill-rule="evenodd" clip-rule="evenodd" d="M154.928 910.431L160.434 910.433V910.995L154.928 910.997V910.431Z" fill="white"/>
<path fill-rule="evenodd" clip-rule="evenodd" d="M208.598 910.438H214.009V910.991H208.598L208.598 910.438Z" fill="white"/>
<path fill-rule="evenodd" clip-rule="evenodd" d="M262.282 910.442L267.588 910.444V910.984L262.282 910.986V910.442Z" fill="white"/>
<path fill-rule="evenodd" clip-rule="evenodd" d="M315.979 910.448L321.165 910.451V910.978L315.979 910.98V910.448Z" fill="white"/>
<path fill-rule="evenodd" clip-rule="evenodd" d="M369.695 910.455L374.744 910.457V910.971L369.695 910.973V910.455Z" fill="white"/>
<path fill-rule="evenodd" clip-rule="evenodd" d="M423.428 910.463L428.322 910.466V910.963L423.428 910.965V910.463Z" fill="white"/>
<path fill-rule="evenodd" clip-rule="evenodd" d="M477.185 910.472L481.902 910.474V910.954L477.185 910.956V910.472Z" fill="white"/>
<path fill-rule="evenodd" clip-rule="evenodd" d="M530.972 910.483L535.485 910.485V910.944L530.972 910.946V910.483Z" fill="white"/>
<path fill-rule="evenodd" clip-rule="evenodd" d="M584.791 910.496H589.068V910.933H584.791V910.496Z" fill="white"/>
<path fill-rule="evenodd" clip-rule="evenodd" d="M638.649 910.508L642.654 910.51V910.918L638.649 910.92V910.508Z" fill="white"/>
<path fill-rule="evenodd" clip-rule="evenodd" d="M692.551 910.526H696.241V910.903H692.551V910.526Z" fill="white"/>
<path fill-rule="evenodd" clip-rule="evenodd" d="M746.499 910.543L749.831 910.545V910.883L746.499 910.886V910.543Z" fill="white"/>
<path fill-rule="evenodd" clip-rule="evenodd" d="M800.497 910.564H803.422V910.864H800.497V910.564Z" fill="white"/>
<path fill-rule="evenodd" clip-rule="evenodd" d="M831.427 909.461L855.896 909.467V911.962L831.427 911.968V909.461Z" fill="white"/>
<path fill-rule="evenodd" clip-rule="evenodd" d="M885.506 909.484L909.491 909.491V911.938L885.506 911.944V909.484Z" fill="white"/>
<path fill-rule="evenodd" clip-rule="evenodd" d="M939.607 909.51L963.089 909.516V911.912L939.607 911.919V909.51Z" fill="white"/>
<path fill-rule="evenodd" clip-rule="evenodd" d="M993.704 909.536L1016.68 909.542V911.886L993.704 911.893V909.536Z" fill="white"/>
<path fill-rule="evenodd" clip-rule="evenodd" d="M1047.78 909.561L1070.28 909.568V911.861L1047.78 911.867V909.561Z" fill="white"/>
<path fill-rule="evenodd" clip-rule="evenodd" d="M1101.82 909.583L1123.87 909.589V911.839L1101.82 911.846V909.583Z" fill="white"/>
<path fill-rule="evenodd" clip-rule="evenodd" d="M1155.81 909.604L1177.47 909.611V911.818L1155.81 911.824V909.604Z" fill="white"/>
<path fill-rule="evenodd" clip-rule="evenodd" d="M1209.75 909.621L1231.06 909.628V911.801L1209.75 911.807V909.621Z" fill="white"/>
<path fill-rule="evenodd" clip-rule="evenodd" d="M1263.65 909.638L1284.64 909.643V911.786L1263.65 911.79V909.638Z" fill="white"/>
<path fill-rule="evenodd" clip-rule="evenodd" d="M1317.5 909.651L1338.23 909.658V911.771L1317.5 911.777V909.651Z" fill="white"/>
<path fill-rule="evenodd" clip-rule="evenodd" d="M1371.31 909.664L1391.81 909.669V911.76L1371.31 911.764V909.664Z" fill="white"/>
<path fill-rule="evenodd" clip-rule="evenodd" d="M1425.09 909.673L1445.39 909.679V911.749L1425.09 911.755V909.673Z" fill="white"/>
<path fill-rule="evenodd" clip-rule="evenodd" d="M1478.84 909.684L1498.97 909.688V911.741L1478.84 911.745V909.684Z" fill="white"/>
<path fill-rule="evenodd" clip-rule="evenodd" d="M1532.58 909.69L1552.55 909.696V911.732L1532.58 911.738V909.69Z" fill="white"/>
<path fill-rule="evenodd" clip-rule="evenodd" d="M1586.29 909.696L1606.13 909.703V911.726L1586.29 911.732V909.696Z" fill="white"/>
<path fill-rule="evenodd" clip-rule="evenodd" d="M1639.98 909.703L1659.71 909.709V911.719L1639.98 911.725V909.703Z" fill="white"/>
<path fill-rule="evenodd" clip-rule="evenodd" d="M1693.66 909.709L1713.29 909.713V911.715L1693.66 911.719V909.709Z" fill="white"/>
<path fill-rule="evenodd" clip-rule="evenodd" d="M1747.33 909.713L1766.86 909.718V911.711L1747.33 911.715V909.713Z" fill="white"/>
<path fill-rule="evenodd" clip-rule="evenodd" d="M1800.99 909.718L1820.44 909.722V911.706L1800.99 911.711V909.718Z" fill="white"/>
<path fill-rule="evenodd" clip-rule="evenodd" d="M1854.64 909.722L1874.01 909.726V911.702L1854.64 911.707V909.722Z" fill="white"/>
<path fill-rule="evenodd" clip-rule="evenodd" d="M47.7979 964.005H53.2915V964.566H47.7979V964.005Z" fill="white"/>
<path fill-rule="evenodd" clip-rule="evenodd" d="M101.457 964.009H106.868V964.562H101.457V964.009Z" fill="white"/>
<path fill-rule="evenodd" clip-rule="evenodd" d="M155.125 964.013H160.443V964.558H155.125V964.013Z" fill="white"/>
<path fill-rule="evenodd" clip-rule="evenodd" d="M208.805 964.018L214.02 964.02V964.551L208.805 964.554V964.018Z" fill="white"/>
<path fill-rule="evenodd" clip-rule="evenodd" d="M262.496 964.024L267.598 964.026V964.545L262.496 964.547V964.024Z" fill="white"/>
<path fill-rule="evenodd" clip-rule="evenodd" d="M316.201 964.031L321.175 964.033V964.539L316.201 964.541V964.031Z" fill="white"/>
<path fill-rule="evenodd" clip-rule="evenodd" d="M369.923 964.037L374.753 964.039V964.532L369.923 964.534V964.037Z" fill="white"/>
<path fill-rule="evenodd" clip-rule="evenodd" d="M423.666 964.046L428.333 964.048V964.523L423.666 964.526V964.046Z" fill="white"/>
<path fill-rule="evenodd" clip-rule="evenodd" d="M477.43 964.056H481.913V964.515H477.43V964.056Z" fill="white"/>
<path fill-rule="evenodd" clip-rule="evenodd" d="M531.219 964.067H535.496V964.504H531.219V964.067Z" fill="white"/>
<path fill-rule="evenodd" clip-rule="evenodd" d="M585.038 964.078L589.079 964.08V964.491L585.038 964.493V964.078Z" fill="white"/>
<path fill-rule="evenodd" clip-rule="evenodd" d="M638.892 964.093H642.665V964.478H638.892V964.093Z" fill="white"/>
<path fill-rule="evenodd" clip-rule="evenodd" d="M692.777 964.108H696.25V964.464H692.777V964.108Z" fill="white"/>
<path fill-rule="evenodd" clip-rule="evenodd" d="M746.704 964.125H749.839V964.446H746.704V964.125Z" fill="white"/>
<path fill-rule="evenodd" clip-rule="evenodd" d="M800.665 964.144H803.429V964.427H800.665V964.144Z" fill="white"/>
<path fill-rule="evenodd" clip-rule="evenodd" d="M831.546 963.036L855.902 963.045V965.526L831.546 965.535V963.036Z" fill="white"/>
<path fill-rule="evenodd" clip-rule="evenodd" d="M885.567 963.06L909.494 963.066V965.505L885.567 965.511V963.06Z" fill="white"/>
<path fill-rule="evenodd" clip-rule="evenodd" d="M939.603 963.082L963.089 963.088V965.484L939.603 965.49V963.082Z" fill="white"/>
<path fill-rule="evenodd" clip-rule="evenodd" d="M993.635 963.105L1016.68 963.111V965.46L993.635 965.466V963.105Z" fill="white"/>
<path fill-rule="evenodd" clip-rule="evenodd" d="M1047.65 963.126L1070.28 963.133V965.439L1047.65 965.445V963.126Z" fill="white"/>
<path fill-rule="evenodd" clip-rule="evenodd" d="M1101.64 963.146L1123.87 963.152V965.419L1101.64 965.426V963.146Z" fill="white"/>
<path fill-rule="evenodd" clip-rule="evenodd" d="M1155.6 963.165L1177.46 963.171V965.4L1155.6 965.406V963.165Z" fill="white"/>
<path fill-rule="evenodd" clip-rule="evenodd" d="M1209.52 963.182L1231.05 963.189V965.383L1209.52 965.389V963.182Z" fill="white"/>
<path fill-rule="evenodd" clip-rule="evenodd" d="M1263.4 963.197L1284.63 963.203V965.368L1263.4 965.374V963.197Z" fill="white"/>
<path fill-rule="evenodd" clip-rule="evenodd" d="M1317.25 963.21L1338.22 963.216V965.355L1317.25 965.361V963.21Z" fill="white"/>
<path fill-rule="evenodd" clip-rule="evenodd" d="M1371.06 963.223L1391.8 963.229V965.342L1371.06 965.348V963.223Z" fill="white"/>
<path fill-rule="evenodd" clip-rule="evenodd" d="M1424.85 963.234L1445.38 963.238V965.334L1424.85 965.338V963.234Z" fill="white"/>
<path fill-rule="evenodd" clip-rule="evenodd" d="M1478.61 963.242L1498.96 963.248V965.323L1478.61 965.329V963.242Z" fill="white"/>
<path fill-rule="evenodd" clip-rule="evenodd" d="M1532.35 963.251L1552.54 963.257V965.314L1532.35 965.321V963.251Z" fill="white"/>
<path fill-rule="evenodd" clip-rule="evenodd" d="M1586.07 963.257L1606.12 963.264V965.308L1586.07 965.315V963.257Z" fill="white"/>
<path fill-rule="evenodd" clip-rule="evenodd" d="M1639.77 963.263L1659.7 963.27V965.301L1639.77 965.308V963.263Z" fill="white"/>
<path fill-rule="evenodd" clip-rule="evenodd" d="M1693.46 963.27L1713.27 963.276V965.295L1693.46 965.301V963.27Z" fill="white"/>
<path fill-rule="evenodd" clip-rule="evenodd" d="M1747.14 963.274L1766.85 963.281V965.291L1747.14 965.297V963.274Z" fill="white"/>
<path fill-rule="evenodd" clip-rule="evenodd" d="M1800.8 963.281L1820.43 963.285V965.286L1800.8 965.291V963.281Z" fill="white"/>
<path fill-rule="evenodd" clip-rule="evenodd" d="M1854.46 963.285L1874 963.289V965.282L1854.46 965.286V963.285Z" fill="white"/>
<path fill-rule="evenodd" clip-rule="evenodd" d="M47.9714 1017.58H53.2992L53.2994 1018.13H47.9714V1017.58Z" fill="white"/>
<path fill-rule="evenodd" clip-rule="evenodd" d="M101.637 1017.59H106.876V1018.13H101.637V1017.59Z" fill="white"/>
<path fill-rule="evenodd" clip-rule="evenodd" d="M155.313 1017.59L160.453 1017.6V1018.12L155.313 1018.12V1017.59Z" fill="white"/>
<path fill-rule="evenodd" clip-rule="evenodd" d="M208.998 1017.6H214.029V1018.11H208.998V1017.6Z" fill="white"/>
<path fill-rule="evenodd" clip-rule="evenodd" d="M262.695 1017.61H267.606V1018.11H262.695V1017.61Z" fill="white"/>
<path fill-rule="evenodd" clip-rule="evenodd" d="M316.408 1017.61H321.185V1018.1H316.408V1017.61Z" fill="white"/>
<path fill-rule="evenodd" clip-rule="evenodd" d="M370.137 1017.62L374.765 1017.62V1018.09L370.137 1018.09V1017.62Z" fill="white"/>
<path fill-rule="evenodd" clip-rule="evenodd" d="M423.88 1017.63L428.343 1017.63V1018.08L423.88 1018.09V1017.63Z" fill="white"/>
<path fill-rule="evenodd" clip-rule="evenodd" d="M477.648 1017.64H481.925V1018.08H477.648V1017.64Z" fill="white"/>
<path fill-rule="evenodd" clip-rule="evenodd" d="M531.437 1017.65H535.506V1018.06H531.437V1017.65Z" fill="white"/>
<path fill-rule="evenodd" clip-rule="evenodd" d="M585.253 1017.66L589.091 1017.66V1018.05L585.253 1018.05V1017.66Z" fill="white"/>
<path fill-rule="evenodd" clip-rule="evenodd" d="M639.097 1017.67L642.675 1017.68V1018.04L639.097 1018.04V1017.67Z" fill="white"/>
<path fill-rule="evenodd" clip-rule="evenodd" d="M692.967 1017.69L696.261 1017.69V1018.02L692.967 1018.03V1017.69Z" fill="white"/>
<path fill-rule="evenodd" clip-rule="evenodd" d="M746.872 1017.7H749.848V1018.01H746.872V1017.7Z" fill="white"/>
<path fill-rule="evenodd" clip-rule="evenodd" d="M777.686 1016.59L802.316 1016.6V1019.11L777.686 1019.12V1016.59Z" fill="white"/>
<path fill-rule="evenodd" clip-rule="evenodd" d="M831.64 1016.61L855.906 1016.62V1019.09L831.64 1019.1V1016.61Z" fill="white"/>
<path fill-rule="evenodd" clip-rule="evenodd" d="M885.615 1016.63L909.497 1016.64V1019.07L885.615 1019.08V1016.63Z" fill="white"/>
<path fill-rule="evenodd" clip-rule="evenodd" d="M939.597 1016.65L963.087 1016.66V1019.05L939.597 1019.06V1016.65Z" fill="white"/>
<path fill-rule="evenodd" clip-rule="evenodd" d="M993.578 1016.67L1016.68 1016.68V1019.04L993.578 1019.04V1016.67Z" fill="white"/>
<path fill-rule="evenodd" clip-rule="evenodd" d="M1047.55 1016.69L1070.27 1016.7V1019.02L1047.55 1019.02V1016.69Z" fill="white"/>
<path fill-rule="evenodd" clip-rule="evenodd" d="M1101.5 1016.71L1123.86 1016.72V1019L1101.5 1019V1016.71Z" fill="white"/>
<path fill-rule="evenodd" clip-rule="evenodd" d="M1155.43 1016.73L1177.45 1016.73V1018.98L1155.43 1018.99V1016.73Z" fill="white"/>
<path fill-rule="evenodd" clip-rule="evenodd" d="M1209.32 1016.74L1231.03 1016.75V1018.96L1209.32 1018.97V1016.74Z" fill="white"/>
<path fill-rule="evenodd" clip-rule="evenodd" d="M1263.19 1016.76L1284.62 1016.76V1018.95L1263.19 1018.96V1016.76Z" fill="white"/>
<path fill-rule="evenodd" clip-rule="evenodd" d="M1317.03 1016.77L1338.21 1016.78V1018.94L1317.03 1018.94V1016.77Z" fill="white"/>
<path fill-rule="evenodd" clip-rule="evenodd" d="M1370.84 1016.78L1391.79 1016.79V1018.92L1370.84 1018.93V1016.78Z" fill="white"/>
<path fill-rule="evenodd" clip-rule="evenodd" d="M1424.63 1016.79L1445.37 1016.8L1445.37 1018.91L1424.63 1018.92V1016.79Z" fill="white"/>
<path fill-rule="evenodd" clip-rule="evenodd" d="M1478.39 1016.8L1498.95 1016.81V1018.9L1478.39 1018.91V1016.8Z" fill="white"/>
<path fill-rule="evenodd" clip-rule="evenodd" d="M1532.13 1016.81L1552.53 1016.82V1018.9L1532.13 1018.9V1016.81Z" fill="white"/>
<path fill-rule="evenodd" clip-rule="evenodd" d="M1585.86 1016.82L1606.11 1016.82V1018.89L1585.86 1018.89V1016.82Z" fill="white"/>
<path fill-rule="evenodd" clip-rule="evenodd" d="M1639.57 1016.83L1659.69 1016.83V1018.88L1639.57 1018.89V1016.83Z" fill="white"/>
<path fill-rule="evenodd" clip-rule="evenodd" d="M1693.27 1016.83L1713.27 1016.84V1018.88L1693.27 1018.88V1016.83Z" fill="white"/>
<path fill-rule="evenodd" clip-rule="evenodd" d="M1746.95 1016.84L1766.84 1016.84V1018.87L1746.95 1018.88V1016.84Z" fill="white"/>
<path fill-rule="evenodd" clip-rule="evenodd" d="M1800.62 1016.84L1820.42 1016.85V1018.87L1800.62 1018.87V1016.84Z" fill="white"/>
<path fill-rule="evenodd" clip-rule="evenodd" d="M1854.29 1016.85L1874 1016.85V1018.86L1854.29 1018.87V1016.85Z" fill="white"/>
<path fill-rule="evenodd" clip-rule="evenodd" d="M48.1389 1071.16L53.3088 1071.16V1071.69L48.1389 1071.69V1071.16Z" fill="white"/>
<path fill-rule="evenodd" clip-rule="evenodd" d="M101.809 1071.17H106.884V1071.69H101.809V1071.17Z" fill="white"/>
<path fill-rule="evenodd" clip-rule="evenodd" d="M155.489 1071.17L160.461 1071.18V1071.68L155.489 1071.68V1071.17Z" fill="white"/>
<path fill-rule="evenodd" clip-rule="evenodd" d="M209.18 1071.18H214.038V1071.68H209.18V1071.18Z" fill="white"/>
<path fill-rule="evenodd" clip-rule="evenodd" d="M262.881 1071.19H267.614V1071.67H262.881V1071.19Z" fill="white"/>
<path fill-rule="evenodd" clip-rule="evenodd" d="M316.599 1071.19L321.195 1071.19V1071.66L316.599 1071.66V1071.19Z" fill="white"/>
<path fill-rule="evenodd" clip-rule="evenodd" d="M370.329 1071.2H374.774V1071.66H370.329V1071.2Z" fill="white"/>
<path fill-rule="evenodd" clip-rule="evenodd" d="M424.076 1071.21H428.354V1071.65H424.076V1071.21Z" fill="white"/>
<path fill-rule="evenodd" clip-rule="evenodd" d="M477.843 1071.22L481.935 1071.22V1071.64L477.843 1071.64V1071.22Z" fill="white"/>
<path fill-rule="evenodd" clip-rule="evenodd" d="M531.629 1071.23L535.517 1071.23V1071.63L531.629 1071.63V1071.23Z" fill="white"/>
<path fill-rule="evenodd" clip-rule="evenodd" d="M585.439 1071.24L589.099 1071.24V1071.62L585.439 1071.62V1071.24Z" fill="white"/>
<path fill-rule="evenodd" clip-rule="evenodd" d="M639.272 1071.25L642.684 1071.26V1071.6L639.272 1071.6V1071.25Z" fill="white"/>
<path fill-rule="evenodd" clip-rule="evenodd" d="M693.128 1071.27H696.268V1071.59H693.128V1071.27Z" fill="white"/>
<path fill-rule="evenodd" clip-rule="evenodd" d="M747.012 1071.28H749.855V1071.57H747.012V1071.28Z" fill="white"/>
<path fill-rule="evenodd" clip-rule="evenodd" d="M777.796 1070.17L802.321 1070.18V1072.68L777.796 1072.69V1070.17Z" fill="white"/>
<path fill-rule="evenodd" clip-rule="evenodd" d="M831.717 1070.19L855.908 1070.19V1072.66L831.717 1072.67V1070.19Z" fill="white"/>
<path fill-rule="evenodd" clip-rule="evenodd" d="M885.651 1070.21L909.499 1070.21V1072.64L885.651 1072.65V1070.21Z" fill="white"/>
<path fill-rule="evenodd" clip-rule="evenodd" d="M939.593 1070.22L963.087 1070.23V1072.63L939.593 1072.63V1070.22Z" fill="white"/>
<path fill-rule="evenodd" clip-rule="evenodd" d="M993.534 1070.24L1016.68 1070.25V1072.61L993.534 1072.62V1070.24Z" fill="white"/>
<path fill-rule="evenodd" clip-rule="evenodd" d="M1047.47 1070.26L1070.27 1070.27V1072.59L1047.47 1072.6V1070.26Z" fill="white"/>
<path fill-rule="evenodd" clip-rule="evenodd" d="M1101.39 1070.28L1123.85 1070.28V1072.57L1101.39 1072.58V1070.28Z" fill="white"/>
<path fill-rule="evenodd" clip-rule="evenodd" d="M1155.28 1070.29L1177.44 1070.3V1072.56L1155.28 1072.56V1070.29Z" fill="white"/>
<path fill-rule="evenodd" clip-rule="evenodd" d="M1209.16 1070.31L1231.03 1070.31V1072.54L1209.16 1072.55V1070.31Z" fill="white"/>
<path fill-rule="evenodd" clip-rule="evenodd" d="M1263.02 1070.32L1284.61 1070.33V1072.53L1263.02 1072.54V1070.32Z" fill="white"/>
<path fill-rule="evenodd" clip-rule="evenodd" d="M1316.84 1070.33L1338.2 1070.34V1072.52L1316.84 1072.52V1070.33Z" fill="white"/>
<path fill-rule="evenodd" clip-rule="evenodd" d="M1370.65 1070.35L1391.78 1070.35V1072.51L1370.65 1072.51V1070.35Z" fill="white"/>
<path fill-rule="evenodd" clip-rule="evenodd" d="M1424.44 1070.35L1445.36 1070.36V1072.5L1424.44 1072.5V1070.35Z" fill="white"/>
<path fill-rule="evenodd" clip-rule="evenodd" d="M1478.2 1070.37L1498.94 1070.37V1072.49L1478.2 1072.49V1070.37Z" fill="white"/>
<path fill-rule="evenodd" clip-rule="evenodd" d="M1531.94 1070.37L1552.52 1070.38V1072.48L1531.94 1072.48V1070.37Z" fill="white"/>
<path fill-rule="evenodd" clip-rule="evenodd" d="M1585.67 1070.38L1606.1 1070.39V1072.47L1585.67 1072.48V1070.38Z" fill="white"/>
<path fill-rule="evenodd" clip-rule="evenodd" d="M1639.38 1070.39L1659.68 1070.39V1072.46L1639.38 1072.47V1070.39Z" fill="white"/>
<path fill-rule="evenodd" clip-rule="evenodd" d="M1693.09 1070.39L1713.26 1070.4V1072.46L1693.09 1072.46V1070.39Z" fill="white"/>
<path fill-rule="evenodd" clip-rule="evenodd" d="M1746.77 1070.4L1766.84 1070.41V1072.45L1746.77 1072.46V1070.4Z" fill="white"/>
<path fill-rule="evenodd" clip-rule="evenodd" d="M1800.45 1070.41L1820.41 1070.41V1072.45L1800.45 1072.45V1070.41Z" fill="white"/>
<path fill-rule="evenodd" clip-rule="evenodd" d="M1854.12 1070.41L1873.99 1070.41V1072.44L1854.12 1072.45V1070.41Z" fill="white"/>
</g>
<defs>
<clipPath id="clip0_1_10798">
<rect width="1920" height="1080" fill="white"/>
</clipPath>
</defs>
</svg>
